<?xml version="1.0" standalone="no"?>
<!DOCTYPE svg PUBLIC "-//W3C//DTD SVG 1.1//EN" "http://www.w3.org/Graphics/SVG/1.1/DTD/svg11.dtd" >
<svg>
<metadata>
Created by FontForge 20090914 at Mon Nov  5 16:46:04 2012
 By www-data
Copyright (c) 2010 by Brian J. Bonislawsky DBA Astigmatic (AOETI). All rights reserved. Available under the Apache 2.0 licence.http://www.apache.org/licenses/LICENSE-2.0.html
</metadata>
<defs>
<font id="MaidenOrange-Regular" horiz-adv-x="1004" >
  <font-face 
    font-family="Maiden Orange"
    font-weight="400"
    font-stretch="normal"
    units-per-em="2048"
    panose-1="2 6 5 6 0 0 0 2 0 4"
    ascent="1440"
    descent="-608"
    x-height="1032"
    cap-height="1406"
    bbox="-183 -635 2158.99 1848"
    underline-thickness="40"
    underline-position="-226"
    unicode-range="U+0020-U+FB02"
  />
<missing-glyph horiz-adv-x="1024" 
 />
    <glyph glyph-name="fi" unicode="fi" horiz-adv-x="1061" 
d="M1037 140l-6 -165.996l-366 16v174l84 6v674l-384 -8v-670l116 4l-6 -166h-422v176l132 4v664h-146l4 176h140c0.666992 72 7.5 136.667 20.5 194s35 106 66 146s72.667 70.667 125 92s118.5 32 198.5 32c14 0 27.667 -0.333008 41 -1s27 -1.66699 41 -3l-4 -176
c-56.667 1.33301 -104.167 -1.33398 -142.5 -8.00098s-69.5 -20.334 -93.5 -41.001s-41.5 -49.834 -52.5 -87.501s-17.5 -86.834 -19.5 -147.501l590 -6l-24 -868zM953 1258c0 -17.333 -3.33301 -33.666 -10 -48.999s-15.667 -28.666 -27 -39.999
s-24.666 -20.333 -39.999 -27s-31.666 -10 -48.999 -10s-33.666 3.33301 -48.999 10s-28.666 15.667 -39.999 27s-20.333 24.666 -27 39.999s-10 31.666 -10 48.999s3.33301 33.666 10 48.999s15.667 28.666 27 39.999s24.666 20.333 39.999 27s31.666 10 48.999 10
s33.666 -3.33301 48.999 -10s28.666 -15.667 39.999 -27s20.333 -24.666 27 -39.999s10 -31.666 10 -48.999z" />
    <glyph glyph-name="fl" unicode="fl" horiz-adv-x="1051" 
d="M1029 158l-6 -165.999l-366 16v174l84 6v1116l-70 6c-56.667 0.666992 -104.167 -2.33301 -142.5 -9s-69.5 -20.5 -93.5 -41.5s-41.5 -50.333 -52.5 -88s-17.5 -86.834 -19.5 -147.501h214l-10 -190l-202 8v-676l116 4l-6 -166h-422v176l132 4v664h-146l4 176h140
c0.666992 72 7.5 136.667 20.5 194s35 106 66 146s72.667 70.667 125 92s118.5 32 198.5 32l352 -24l-24 -1296z" />
    <glyph glyph-name=".notdef" horiz-adv-x="1024" 
 />
    <glyph glyph-name="space" unicode=" " horiz-adv-x="360" 
 />
    <glyph glyph-name="exclam" unicode="!" horiz-adv-x="412" 
d="M329 1454l-50 -1146l-130 -10l-72 1146zM335 114c0 -17.333 -3.33301 -33.666 -10 -48.999s-15.667 -28.666 -27 -39.999s-24.666 -20.333 -39.999 -27s-31.666 -10 -48.999 -10s-33.833 3.33301 -49.5 10s-29.334 15.667 -41.001 27s-20.834 24.666 -27.501 39.999
s-10 31.666 -10 48.999s3.33301 33.833 10 49.5s15.834 29.334 27.501 41.001s25.334 20.834 41.001 27.501s32.167 10 49.5 10s33.666 -3.33301 48.999 -10s28.666 -15.834 39.999 -27.501s20.333 -25.334 27 -41.001s10 -32.167 10 -49.5z" />
    <glyph glyph-name="quotedbl" unicode="&#x22;" horiz-adv-x="546" 
d="M74 1014l-20 426h178l-20 -426h-138zM334 1014l-20 426h178l-20 -426h-138z" />
    <glyph glyph-name="numbersign" unicode="#" horiz-adv-x="1335" 
d="M1288 1044l-38 -148l-296 -10l-58 -234l306 12l-38 -146l-304 -10l-104 -420l-138 18l96 396l-246 -8l-102 -406l-138 18l94 384l-272 -10l28 136l278 12l58 240l-278 -10l28 138l284 12l82 338l150 -6l-82 -326l242 10l78 322l150 -6l-78 -310zM804 882l-242 -8
l-58 -240l244 12z" />
    <glyph glyph-name="dollar" unicode="$" horiz-adv-x="774" 
d="M448 194l14.001 -262h-162l18 284c-23.333 10 -44.166 24.5 -62.499 43.5s-36.166 42.5 -53.499 70.5l-2 -124l-140 18l26 368l118 -6c4.66699 -28.667 11.834 -58.334 21.501 -89.001s23 -58.667 40 -84s38 -46.166 63 -62.499s54.833 -24.5 89.5 -24.5
c56 0 95 11.5 117 34.5s33 60.167 33 111.5c0 28.667 -4.83301 52.834 -14.5 72.501s-22.667 36.167 -39 49.5s-35.666 24.666 -57.999 33.999s-45.833 18.666 -70.5 27.999l-124.5 44.5c-39 14.333 -73 32.333 -102 54s-51.833 49 -68.5 82s-25 76.167 -25 129.5
c0 82.667 22 146.5 66 191.5s105.333 71.167 184 78.5l-16 270h162l-18 -282c27.333 -9.33301 50 -24 68 -44s36.667 -46 56 -78l2 132l140 -2l-18 -408l-126 4c-4.66699 30 -11 61 -19 93s-19.667 61 -35 87s-35.333 47.5 -60 64.5s-55.334 25.5 -92.001 25.5
c-48 0 -83.667 -12 -107 -36s-35 -58 -35 -102c0 -31.333 5.16699 -56.166 15.5 -74.499s24.166 -33.5 41.499 -45.5s37.666 -22 60.999 -30l74 -26c40 -14 78.167 -29.167 114.5 -45.5s68.166 -36 95.499 -59s49.166 -51 65.499 -84s24.5 -72.833 24.5 -119.5
c0 -85.333 -21.333 -152.833 -64 -202.5s-108.667 -76.167 -198 -79.5z" />
    <glyph glyph-name="percent" unicode="%" horiz-adv-x="1509" 
d="M678 1016c0 -28 -2 -58.167 -6 -90.5s-10.667 -64.666 -20 -96.999s-21.833 -63.666 -37.5 -93.999s-35.167 -57 -58.5 -80s-51 -41.5 -83 -55.5s-69 -21 -111 -21c-43.333 0 -81 7 -113 21s-59.5 32.667 -82.5 56s-42 50 -57 80s-26.667 61.167 -35 93.5
s-14.166 64.666 -17.499 96.999s-5 62.5 -5 90.5c0 29.333 1.83301 60.833 5.5 94.5s10 67 19 100s21.5 64.5 37.5 94.5s36.167 56.5 60.5 79.5s53.333 41.333 87 55s73.167 20.5 118.5 20.5c39.333 0 74.166 -7.5 104.499 -22.5s56.5 -34.833 78.5 -59.5
s40.333 -52.667 55 -84s26.5 -63.5 35.5 -96.5s15.333 -65.333 19 -97s5.5 -59.834 5.5 -84.501zM552 1016c0 16 -1.00586 35.333 -3.00586 58s-5.5 46.167 -10.5 70.5s-11.833 48.333 -20.5 72s-19.667 45 -33 64s-29.5 34.333 -48.5 46s-41.167 17.5 -66.5 17.5
c-28 0 -52 -5.66699 -72 -17s-37 -26.333 -51 -45s-25.333 -39.667 -34 -63s-15.5 -47.166 -20.5 -71.499s-8.33301 -48 -10 -71s-2.5 -43.167 -2.5 -60.5s0.833008 -37 2.5 -59s4.83398 -44.833 9.50098 -68.5s11.334 -46.834 20.001 -69.501s19.834 -43 33.501 -61
s30.334 -32.5 50.001 -43.5s43.167 -16.5 70.5 -16.5c24 0 45.333 5.66699 64 17s34.834 26.166 48.501 44.499s25.167 39 34.5 62s16.833 46.333 22.5 70s9.83398 46.334 12.501 68.001s4 40.5 4 56.5zM1155.99 1440l-686 -1460l-112 20l676 1460zM1457.99 416
c0 -28 -2 -58.167 -6 -90.5s-10.667 -64.666 -20 -96.999s-21.833 -63.666 -37.5 -93.999s-35.167 -57 -58.5 -80s-51 -41.5 -83 -55.5s-69 -21 -111 -21c-43.333 0 -81 7 -113 21s-59.5 32.5 -82.5 55.5s-42 49.667 -57 80s-26.667 61.666 -35 93.999
s-14.166 64.833 -17.499 97.5s-5 62.667 -5 90c0 29.333 1.83301 60.833 5.5 94.5s10 67 19 100s21.5 64.5 37.5 94.5s36.167 56.5 60.5 79.5s53.333 41.333 87 55s73.167 20.5 118.5 20.5c39.333 0 74.166 -7.5 104.499 -22.5s56.5 -34.833 78.5 -59.5
s40.333 -52.667 55 -84s26.5 -63.5 35.5 -96.5s15.333 -65.333 19 -97s5.5 -59.834 5.5 -84.501zM1331.99 416c0 16 -1.00586 35.333 -3.00586 58s-5.5 46.167 -10.5 70.5s-11.833 48.333 -20.5 72s-19.667 45 -33 64s-29.5 34.333 -48.5 46s-41.167 17.5 -66.5 17.5
c-28 0 -52 -5.66699 -72 -17s-37 -26.333 -51 -45s-25.333 -39.667 -34 -63s-15.5 -47.166 -20.5 -71.499s-8.33301 -48 -10 -71s-2.5 -43.167 -2.5 -60.5s0.833008 -37 2.5 -59s4.83398 -44.833 9.50098 -68.5s11.334 -46.834 20.001 -69.501s19.834 -43 33.501 -61
s30.334 -32.5 50.001 -43.5s43.167 -16.5 70.5 -16.5c24 0 45.333 5.66699 64 17s34.834 26.166 48.501 44.499s25.167 39 34.5 62s16.833 46.333 22.5 70s9.83398 46.334 12.501 68.001s4 40.5 4 56.5z" />
    <glyph glyph-name="ampersand" unicode="&#x26;" horiz-adv-x="1090" 
d="M1076 708c-6 -26.667 -14.333 -59.168 -25 -97.501s-22.5 -77.5 -35.5 -117.5s-26.667 -78 -41 -114s-28.5 -65 -42.5 -87l114 -178l-160 -124l-86 134c-16.667 -22.667 -37.5 -42 -62.5 -58s-51.833 -29 -80.5 -39s-58 -17.333 -88 -22s-58.333 -7 -85 -7
c-27.333 0 -54.833 2.66699 -82.5 8s-54.167 12.666 -79.5 21.999c-97.333 35.333 -170 89.833 -218 163.5s-72 161.167 -72 262.5c0 48.667 7.5 95.167 22.5 139.5s35.5 85.333 61.5 123s56.833 71.834 92.5 102.501s74.167 57 115.5 79c-24 38 -43 77.833 -57 119.5
s-21 84.5 -21 128.5c0 39.333 7.33301 76.666 22 111.999c22 61.333 55.167 110 99.5 146s99.833 54 166.5 54c45.333 0 85.833 -7.66699 121.5 -23s65.667 -36.5 90 -63.5s42.833 -59.167 55.5 -96.5s19 -77.666 19 -120.999c0 -38 -6 -73.167 -18 -105.5
s-28.5 -61.833 -49.5 -88.5s-45.5 -50.667 -73.5 -72s-58.333 -40 -91 -56l214 -390c24 51.333 43 104.333 57 159s25 110.334 33 167.001zM656 1160c0 38 -9.66699 69.167 -29 93.5s-49 36.5 -89 36.5c-19.333 0 -36.5 -3.83301 -51.5 -11.5s-27.667 -18 -38 -31
s-18.333 -27.833 -24 -44.5s-8.5 -33.667 -8.5 -51c0 -32 6.66699 -65 20 -99s30 -63 50 -87c20.667 6.66699 41.167 16 61.5 28s38.5 26.5 54.5 43.5s29 35.833 39 56.5s15 42.667 15 66zM690 285.999l-278 482.001c-57.333 -31.333 -101.333 -73.5 -132 -126.5
s-46 -112.167 -46 -177.5c0 -89.333 22.167 -158.333 66.5 -207s110.833 -73 199.5 -73c37.333 0 73.5 9.16699 108.5 27.5s62.167 43.166 81.5 74.499z" />
    <glyph glyph-name="quotesingle" unicode="'" horiz-adv-x="286" 
d="M74 1014l-20 426h178l-20 -426h-138z" />
    <glyph glyph-name="parenleft" unicode="(" horiz-adv-x="556" 
d="M558 -58l-40 -156.001c-56 25.333 -106.833 58.166 -152.5 98.499s-86.667 85.666 -123 135.999s-68 104.333 -95 162s-49.333 117.167 -67 178.5s-30.834 123 -39.501 185s-13 122 -13 180c0 58.667 4.5 118.834 13.5 180.501s22.5 122.834 40.5 183.501
s40.833 119.5 68.5 176.5s60 110 97 159s78.833 92.833 125.5 131.5s98.334 70.334 155.001 95.001l30 -146c-57.333 -41.333 -107.333 -92.5 -150 -153.5s-78.167 -126.5 -106.5 -196.5s-49.666 -142.333 -63.999 -217s-21.5 -146.334 -21.5 -215.001
c0 -69.333 7.16699 -141.166 21.5 -215.499s35.666 -146.5 63.999 -216.5s63.833 -135.5 106.5 -196.5s92.667 -112.167 150 -153.5z" />
    <glyph glyph-name="parenright" unicode=")" horiz-adv-x="556" 
d="M528 726c0 -58.667 -4.33203 -118.832 -12.999 -180.499s-21.834 -123.167 -39.501 -184.5s-40 -120.833 -67 -178.5s-58.667 -111.667 -95 -162s-77.5 -95.666 -123.5 -135.999s-96.667 -73.166 -152 -98.499l-40 156c56.667 41.333 106.5 92.5 149.5 153.5
s79 126.5 108 196.5s50.667 142.167 65 216.5s21.5 146.166 21.5 215.499c0 68.667 -7.16699 140.334 -21.5 215.001s-36 147 -65 217s-65 135.5 -108 196.5s-92.833 112.167 -149.5 153.5l30 146c56.667 -24.667 108.5 -56.334 155.5 -95.001s89 -82.5 126 -131.5
s69.167 -102 96.5 -159s50 -115.833 68 -176.5s31.5 -121.834 40.5 -183.501s13.5 -121.834 13.5 -180.501z" />
    <glyph glyph-name="asterisk" unicode="*" horiz-adv-x="865" 
d="M439 844l-198 -262l-144 106l200 218l-242 108l60 166l244 -138l-12 318h176l-12 -314l234 134l60 -166l-228 -104l204 -222l-146 -106z" />
    <glyph glyph-name="plus" unicode="+" horiz-adv-x="743" 
d="M686 838l-10 -180l-198 -4l4 -228l-186 -6v232l-232 -4l-6 186h236l-2 214l180 -10l4 -202z" />
    <glyph glyph-name="comma" unicode="," horiz-adv-x="356" 
d="M304 114c0 -50 -11.833 -96 -35.5 -138s-56.5 -76 -98.5 -102l-52 42c8 8 17.5 19 28.5 33s17.5 27 19.5 39c-16.667 1.33301 -32 5.66602 -46 12.999s-26.167 16.5 -36.5 27.5s-18.5 23.833 -24.5 38.5s-9 30.334 -9 47.001c0 17.333 3.33301 33.833 10 49.5
s15.667 29.334 27 41.001s24.666 20.834 39.999 27.501s31.666 10 48.999 10s33.833 -3.33301 49.5 -10s29.334 -15.834 41.001 -27.501s20.834 -25.334 27.501 -41.001s10 -32.167 10 -49.5z" />
    <glyph glyph-name="hyphen" unicode="-" horiz-adv-x="767" 
d="M699 838l-10 -180l-612 -10l-6 186z" />
    <glyph glyph-name="period" unicode="." horiz-adv-x="354" 
d="M304 114c0 -17.333 -3.33301 -33.666 -10 -48.999s-15.834 -28.666 -27.501 -39.999s-25.334 -20.333 -41.001 -27s-32.167 -10 -49.5 -10s-33.666 3.33301 -48.999 10s-28.666 15.667 -39.999 27s-20.333 24.666 -27 39.999s-10 31.666 -10 48.999
s3.33301 33.833 10 49.5s15.667 29.334 27 41.001s24.666 20.834 39.999 27.501s31.666 10 48.999 10s33.833 -3.33301 49.5 -10s29.334 -15.834 41.001 -27.501s20.834 -25.334 27.501 -41.001s10 -32.167 10 -49.5z" />
    <glyph glyph-name="slash" unicode="/" horiz-adv-x="867" 
d="M837 1440l-648 -1460l-152 20l616 1460z" />
    <glyph glyph-name="zero" unicode="0" 
d="M943 704c0 -46 -2.8291 -95.667 -8.49609 -149s-15.167 -106.666 -28.5 -159.999s-31 -104.833 -53 -154.5s-49.5 -93.5 -82.5 -131.5s-71.833 -68.333 -116.5 -91s-96.334 -34 -155.001 -34c-60.667 0 -113.334 11.333 -158.001 34s-83.167 53 -115.5 91
s-59 81.667 -80 131s-37.667 100.666 -50 153.999s-20.833 106.666 -25.5 159.999s-7 103.333 -7 150c0 50 2.5 102.833 7.5 158.5s14 110.5 27 164.5s30.667 105.833 53 155.5s50.666 93.167 84.999 130.5s75.333 67.166 123 89.499s103.167 33.5 166.5 33.5
c55.333 0 104 -12.167 146 -36.5s78.5 -56.666 109.5 -96.999s57 -86.333 78 -138s37.667 -104.667 50 -159s21.166 -107.666 26.499 -159.999s8 -99.5 8 -141.5zM779.004 704c0 26.667 -1.5 58.834 -4.5 96.501s-8.16699 77 -15.5 118s-17.5 81.833 -30.5 122.5
s-29.5 77 -49.5 109s-44 58 -72 78s-60.667 30 -98 30c-40.667 0 -75.667 -9.66699 -105 -29s-54.333 -44.833 -75 -76.5s-37.167 -67.5 -49.5 -107.5s-22 -80.5 -29 -121.5s-11.667 -80.833 -14 -119.5s-3.5 -72 -3.5 -100c0 -27.333 1.16699 -59.666 3.5 -96.999
s6.83301 -75.833 13.5 -115.5s16.167 -79 28.5 -118s28.5 -73.833 48.5 -104.5s44.5 -55.5 73.5 -74.5s63.167 -28.5 102.5 -28.5c36 0 67.833 9.66699 95.5 29s51.667 44.666 72 75.999s37.5 66.666 51.5 105.999s25.167 79 33.5 119s14.333 78.167 18 114.5
s5.5 67.5 5.5 93.5z" />
    <glyph glyph-name="one" unicode="1" horiz-adv-x="541" 
d="M530 198l-10 -180l-462 -10l-6 186h148l-2 1022l-154 -4l10 194l322 -10l-6 -1202z" />
    <glyph glyph-name="two" unicode="2" horiz-adv-x="931" 
d="M862 1018c0 -60 -7.83301 -112.833 -23.5 -158.5s-36.334 -86.334 -62.001 -122.001s-55 -67.334 -88 -95.001s-67.167 -53.834 -102.5 -78.501l-104.5 -72.5c-34.333 -23.667 -65.833 -49.167 -94.5 -76.5s-52.834 -57.5 -72.501 -90.5s-32.5 -71.167 -38.5 -114.5
l396 -10l10 196l158 -10l-10 -378l-746 10c0 89.333 8.5 166.5 25.5 231.5s39.333 121.333 67 169s59.167 88.5 94.5 122.5s71.333 64.5 108 91.5s72.667 52.167 108 75.5s66.833 48.5 94.5 75.5s50 57.333 67 91s25.5 74.167 25.5 121.5
c0 30.667 -2.33301 60.834 -7 90.501s-13.5 56.334 -26.5 80.001s-31.167 42.834 -54.5 57.501s-53.333 22 -90 22c-44.667 0 -82.667 -9.16699 -114 -27.5s-57.166 -42.333 -77.499 -72s-35.666 -63.5 -45.999 -101.5s-16.5 -76.333 -18.5 -115l-158 -6l-22 510l176 4
l2 -166c16.667 28.667 34.667 53 54 73s40.5 36.5 63.5 49.5s48 22.5 75 28.5s56.833 9 89.5 9c59.333 0 110.5 -11.5 153.5 -34.5s78.5 -53.667 106.5 -92s48.667 -82.5 62 -132.5s20 -101.667 20 -155z" />
    <glyph glyph-name="three" unicode="3" horiz-adv-x="942" 
d="M868 380c0 -133.333 -33.3301 -231.665 -99.9971 -294.998s-165.334 -95 -296.001 -95c-60 0 -114 11.167 -162 33.5s-88.667 52.5 -122 90.5s-59 82.667 -77 134s-27 106 -27 164c0 12 0.333008 24 1 36s1.66699 24 3 36l168 -6c0 -40 4.16699 -79.5 12.5 -118.5
s22.166 -73.833 41.499 -104.5s44.666 -55.5 75.999 -74.5s70 -28.5 116 -28.5c33.333 0 62 5 86 15s43.5 24.333 58.5 43s26 41 33 67s10.5 55 10.5 87c0 31.333 -6.66699 63.166 -20 95.499s-31.333 61.5 -54 87.5s-49 47.333 -79 64s-61.667 25 -95 25l-90 -2v162h88
c35.333 0 67.666 7.16699 96.999 21.5s54.5 33.5 75.5 57.5s37.167 51.5 48.5 82.5s17 63.167 17 96.5c0 27.333 -3.5 53.833 -10.5 79.5s-17.833 48.334 -32.5 68.001s-33.167 35.334 -55.5 47.001s-48.833 17.5 -79.5 17.5s-57.5 -4.83301 -80.5 -14.5
s-43.333 -22.834 -61 -39.501s-32.834 -36.167 -45.501 -58.5s-23.5 -45.833 -32.5 -70.5s-16.333 -50.167 -22 -76.5s-10.5 -51.833 -14.5 -76.5l-158 -6l-22 510l176 4l2 -166c17.333 28.667 34.333 53.667 51 75s35 39 55 53s42.5 24.5 67.5 31.5s55.167 10.5 90.5 10.5
c56.667 0 107.334 -9.33301 152.001 -28s82.5 -44.834 113.5 -78.501s54.833 -73.834 71.5 -120.501s25 -97.667 25 -153c0 -80.667 -19.667 -151 -59 -211s-98.333 -103.667 -177 -131c34.667 -14 66.334 -32.5 95.001 -55.5s53.5 -49.167 74.5 -78.5
s37.333 -61.5 49 -96.5s17.5 -71.5 17.5 -109.5z" />
    <glyph glyph-name="four" unicode="4" horiz-adv-x="872" 
d="M830 600l-10 -180l-166 -2l-2 -224l140 4l-10 -180l-412 -10l-6 186h118v222l-470 -6l-6 184l422 814h234l-6 -810zM482 598l-2 584l-304 -588z" />
    <glyph glyph-name="five" unicode="5" horiz-adv-x="875" 
d="M816 452c0 -60.667 -6.66992 -118.83 -20.0029 -174.497s-34.666 -104.834 -63.999 -147.501s-67.666 -76.667 -114.999 -102s-105 -38 -173 -38c-63.333 0 -118.833 13.333 -166.5 40s-87.5 61.834 -119.5 105.501s-56 93.334 -72 149.001s-23.333 112.834 -22 171.501
v28l188 -6c0 -31.333 2.33301 -65.833 7 -103.5s13.834 -73 27.501 -106s33 -60.667 58 -83s58.167 -33.5 99.5 -33.5c38.667 0 70.334 8.83301 95.001 26.5s44.167 40.167 58.5 67.5s24.333 57.666 30 90.999s8.5 65.666 8.5 96.999c0 41.333 -5.33301 79.166 -16 113.499
s-26.5 63.666 -47.5 87.999s-47.667 43.166 -80 56.499s-69.833 20 -112.5 20c-24 0 -47.833 -2.33301 -71.5 -7s-46.5 -11 -68.5 -19l-166 90l58 634l626 6l10 -384h-176v202l-302 2l-28 -378c21.333 5.33301 42.333 9 63 11s41.667 3 63 3
c60.667 0 117.167 -10.333 169.5 -31s97.666 -49.5 135.999 -86.5s68.333 -81.333 90 -133s32.5 -108.167 32.5 -169.5z" />
    <glyph glyph-name="six" unicode="6" horiz-adv-x="903" 
d="M851 472c0 -61.333 -7.66895 -120.831 -23.002 -178.498s-39 -109 -71 -154s-72.667 -81.167 -122 -108.5s-108 -41 -176 -41c-65.333 0 -120.166 12.5 -164.499 37.5s-80.833 58 -109.5 99s-50.667 88.167 -66 141.5s-26.666 108.333 -33.999 165s-11.5 113 -12.5 169
s-1.5 107.333 -1.5 154c0 43.333 1.83301 90.5 5.5 141.5s10.667 102 21 153s24.5 100.167 42.5 147.5s41.667 89.166 71 125.499s65 65.5 107 87.5s91.667 33 149 33c50.667 0 96.667 -10 138 -30s77.5 -46.667 108.5 -80s56 -71.833 75 -115.5s31.167 -89.167 36.5 -136.5
l-176 -20c-2 24.667 -7.16699 49.167 -15.5 73.5s-20 46.166 -35 65.499s-33.167 35 -54.5 47s-45.666 18 -72.999 18c-32 0 -59.833 -6.83301 -83.5 -20.5s-43.667 -31.667 -60 -54s-29.833 -48 -40.5 -77s-18.834 -58.667 -24.501 -89s-9.66699 -60.333 -12 -90
s-3.5 -56.167 -3.5 -79.5v-33c0 -10.667 0.666992 -21.667 2 -33c32 32 68 57.667 108 77s82.667 29 128 29c56 0 106.5 -12.5 151.5 -37.5s83.5 -57.5 115.5 -97.5s56.5 -85.333 73.5 -136s25.5 -101.667 25.5 -153zM672.998 454.002
c0 34.667 -4.16992 68.001 -12.5029 100.001s-21.333 60.5 -39 85.5s-40.167 45 -67.5 60s-60.333 22.5 -99 22.5c-31.333 0 -59.166 -8.5 -83.499 -25.5s-45 -38.5 -62 -64.5s-30 -54.167 -39 -84.5s-13.5 -58.833 -13.5 -85.5c0 -30.667 3.66699 -64 11 -100
s19 -69.5 35 -100.5s37.167 -57 63.5 -78s58.5 -31.5 96.5 -31.5s70.333 9.83301 97 29.5s48.334 44.5 65.001 74.5s28.834 62.667 36.501 98s11.5 68.666 11.5 99.999z" />
    <glyph glyph-name="seven" unicode="7" horiz-adv-x="791" 
d="M774 1216l-342 -1022l142 4l-12 -180l-412 -10l-6 186h118l330 1022l-408 -2l-6 -182h-152l18 374h2v0l714 -10z" />
    <glyph glyph-name="eight" unicode="8" horiz-adv-x="964" 
d="M908 382c0 -59.333 -11.665 -113.17 -34.998 -161.503s-54.5 -89.5 -93.5 -123.5s-84.167 -60.333 -135.5 -79s-105.333 -28 -162 -28c-59.333 0 -115 8.66699 -167 26s-97.167 42.5 -135.5 75.5s-68.5 73.833 -90.5 122.5s-33 104.667 -33 168
c0 36.667 5.16699 73.334 15.5 110.001s25.333 71 45 103s43.334 60.667 71.001 86s59.167 45 94.5 59c-29.333 10.667 -55.333 26.834 -78 48.501s-41.834 46.334 -57.501 74.001s-27.667 57.167 -36 88.5s-12.5 61.666 -12.5 90.999
c0 56.667 9.16699 109.334 27.5 158.001s44.166 90.5 77.499 125.5s73.666 62.5 120.999 82.5s100 30 158 30c56.667 0 108.667 -10.167 156 -30.5s87.833 -48.333 121.5 -84s59.834 -77.667 78.501 -126s28 -100.166 28 -155.499c0 -28.667 -4.16699 -58.667 -12.5 -90
s-20.5 -61 -36.5 -89s-35.333 -53 -58 -75s-48.334 -38 -77.001 -48c34.667 -14 66 -33.667 94 -59s51.833 -54 71.5 -86s34.667 -66.333 45 -103s15.5 -73.334 15.5 -110.001zM678.002 1042c0 28.667 -4.49609 56.333 -13.4961 83s-22 50.5 -39 71.5
s-37.5 37.833 -61.5 50.5s-51.333 19 -82 19c-31.333 0 -59 -6.16699 -83 -18.5s-44.5 -29 -61.5 -50s-29.833 -45 -38.5 -72s-13 -54.833 -13 -83.5c0 -30 4.16699 -58.667 12.5 -86s20.666 -51.333 36.999 -72s36.666 -37.167 60.999 -49.5s52.833 -18.5 85.5 -18.5
s61.167 6.16699 85.5 18.5s44.666 28.833 60.999 49.5s28.666 44.667 36.999 72s12.5 56 12.5 86zM730.006 381.995c0 79.333 -21.498 141.497 -64.498 186.497s-104.167 67.5 -183.5 67.5c-37.333 0 -71.333 -6.16699 -102 -18.5s-56.834 -29.666 -78.501 -51.999
s-38.334 -49.166 -50.001 -80.499s-17.5 -65.666 -17.5 -102.999c0 -34.667 6.66699 -66.167 20 -94.5s31.5 -52.5 54.5 -72.5s49.333 -35.5 79 -46.5s61.167 -16.5 94.5 -16.5c34.667 0 67 5.16699 97 15.5s56.167 25.5 78.5 45.5s40 44.167 53 72.5s19.5 60.5 19.5 96.5z
" />
    <glyph glyph-name="nine" unicode="9" horiz-adv-x="902" 
d="M831 678c0 -44 -1.83398 -91.335 -5.50098 -142.002s-10.5 -101.5 -20.5 -152.5s-24.167 -100.167 -42.5 -147.5s-42.166 -89.166 -71.499 -125.499s-65 -65.5 -107 -87.5s-91.667 -33 -149 -33c-50.667 0 -96.667 9.83301 -138 29.5s-77.5 46.167 -108.5 79.5
s-56 71.833 -75 115.5s-31.167 89.5 -36.5 137.5l176 20c2 -25.333 7.33301 -50.166 16 -74.499s20.5 -46 35.5 -65s33.333 -34.5 55 -46.5s46.167 -18 73.5 -18c32 0 59.667 6.83301 83 20.5s43.333 31.667 60 54s30 48 40 77s18 58.667 24 89s10 60.333 12 90
s3 56.167 3 79.5v33c0 10.667 -0.666992 21 -2 31c-31.333 -32 -67 -57.333 -107 -76s-83 -28 -129 -28c-56 0 -106.5 12.5 -151.5 37.5s-83.5 57.5 -115.5 97.5s-56.5 85.333 -73.5 136s-25.5 101.667 -25.5 153c0 60.667 7.66699 120 23 178s39 109.5 71 154.5
s72.833 81.167 122.5 108.5s108.834 41 177.501 41c64.667 0 119.167 -12.5 163.5 -37.5s80.666 -58 108.999 -99s50.333 -88.167 66 -141.5s27 -108.333 34 -165s11 -113 12 -169s1.5 -107.333 1.5 -154zM644.999 971.998c0 30 -3.66797 62.833 -11.001 98.5
s-19 69 -35 100s-37 57 -63 78s-57.667 31.5 -95 31.5c-38 0 -70.5 -9.66699 -97.5 -29s-49 -43.833 -66 -73.5s-29.333 -62.167 -37 -97.5s-11.5 -68.666 -11.5 -99.999c0 -34.667 4.16699 -68 12.5 -100s21.333 -60.5 39 -85.5s40.167 -45 67.5 -60s60.333 -22.5 99 -22.5
c30.667 0 58.334 8.5 83.001 25.5s45.5 38.333 62.5 64s30 53.667 39 84s13.5 59.166 13.5 86.499z" />
    <glyph glyph-name="colon" unicode=":" horiz-adv-x="438" 
d="M346 778c0 -17.333 -3.33301 -33.833 -10 -49.5s-15.834 -29.334 -27.501 -41.001s-25.334 -20.834 -41.001 -27.501s-32.167 -10 -49.5 -10s-33.666 3.33301 -48.999 10s-28.666 15.834 -39.999 27.501s-20.333 25.334 -27 41.001s-10 32.167 -10 49.5
s3.33301 33.666 10 48.999s15.667 28.666 27 39.999s24.666 20.333 39.999 27s31.666 10 48.999 10s33.833 -3.33301 49.5 -10s29.334 -15.667 41.001 -27s20.834 -24.666 27.501 -39.999s10 -31.666 10 -48.999zM346 114c0 -17.333 -3.33301 -33.666 -10 -48.999
s-15.834 -28.666 -27.501 -39.999s-25.334 -20.333 -41.001 -27s-32.167 -10 -49.5 -10s-33.666 3.33301 -48.999 10s-28.666 15.667 -39.999 27s-20.333 24.666 -27 39.999s-10 31.666 -10 48.999s3.33301 33.833 10 49.5s15.667 29.334 27 41.001
s24.666 20.834 39.999 27.501s31.666 10 48.999 10s33.833 -3.33301 49.5 -10s29.334 -15.834 41.001 -27.501s20.834 -25.334 27.501 -41.001s10 -32.167 10 -49.5z" />
    <glyph glyph-name="semicolon" unicode=";" horiz-adv-x="440" 
d="M346 778c0 -17.333 -3.33301 -33.833 -10 -49.5s-15.834 -29.334 -27.501 -41.001s-25.334 -20.834 -41.001 -27.501s-32.167 -10 -49.5 -10s-33.666 3.33301 -48.999 10s-28.666 15.834 -39.999 27.501s-20.333 25.334 -27 41.001s-10 32.167 -10 49.5
s3.33301 33.666 10 48.999s15.667 28.666 27 39.999s24.666 20.333 39.999 27s31.666 10 48.999 10s33.833 -3.33301 49.5 -10s29.334 -15.667 41.001 -27s20.834 -24.666 27.501 -39.999s10 -31.666 10 -48.999zM346 114c0 -50 -11.833 -96 -35.5 -138
s-56.5 -76 -98.5 -102l-52 42c8 8 17.5 19 28.5 33s17.5 27 19.5 39c-16.667 1.33301 -32 5.66602 -46 12.999s-26.167 16.5 -36.5 27.5s-18.5 23.833 -24.5 38.5s-9 30.334 -9 47.001c0 17.333 3.33301 33.833 10 49.5s15.667 29.334 27 41.001
s24.666 20.834 39.999 27.501s31.666 10 48.999 10s33.833 -3.33301 49.5 -10s29.334 -15.834 41.001 -27.501s20.834 -25.334 27.501 -41.001s10 -32.167 10 -49.5z" />
    <glyph glyph-name="less" unicode="&#x3c;" horiz-adv-x="1045" 
d="M965 364l-92 -174l-810 442l-18 172l828 470l92 -174l-706 -374z" />
    <glyph glyph-name="equal" unicode="=" horiz-adv-x="813" 
d="M723 638l-10 -180l-612 -10l-6 186zM723 1038l-10 -180l-612 -10l-6 186z" />
    <glyph glyph-name="greater" unicode="&#x3e;" horiz-adv-x="1045" 
d="M1000 804l-18 -172l-810 -442l-92 174l706 362l-706 374l92 174z" />
    <glyph glyph-name="question" unicode="?" horiz-adv-x="909" 
d="M857 1016c0 -58 -6.83301 -115.334 -20.5 -172.001s-35 -108.667 -64 -156s-65.667 -88.166 -110 -122.499s-96.833 -58.166 -157.5 -71.499l-30 -200h-116l-30 350h98c38.667 0 72.834 11.667 102.501 35s54.5 52.333 74.5 87s35.167 71.834 45.5 111.501
s15.5 75.834 15.5 108.501c0 27.333 -2.83301 57.333 -8.5 90s-15.334 63 -29.001 91s-32.167 51.5 -55.5 70.5s-52.333 28.5 -87 28.5c-45.333 0 -82.833 -10.667 -112.5 -32s-54 -48.5 -73 -81.5s-33.667 -69.167 -44 -108.5s-18.5 -77.333 -24.5 -114l-158 -6l-22 510
l176 4l2 -166c17.333 29.333 34.333 54.666 51 75.999s35 39 55 53s42.833 24.333 68.5 31s56.167 10 91.5 10c63.333 0 117.833 -11.333 163.5 -34s83.167 -53.334 112.5 -92.001s51 -83.834 65 -135.501s21 -106.5 21 -164.5zM539 113.999
c0 -17.333 -3.33594 -33.666 -10.0029 -48.999s-15.834 -28.666 -27.501 -39.999s-25.334 -20.333 -41.001 -27s-32.167 -10 -49.5 -10s-33.666 3.33301 -48.999 10s-28.666 15.667 -39.999 27s-20.333 24.666 -27 39.999s-10 31.666 -10 48.999s3.33301 33.833 10 49.5
s15.834 29.334 27.501 41.001s25 20.834 40 27.501s31.167 10 48.5 10s33.833 -3.33301 49.5 -10s29.334 -15.834 41.001 -27.501s20.834 -25.334 27.501 -41.001s10 -32.167 10 -49.5z" />
    <glyph glyph-name="at" unicode="@" horiz-adv-x="1153" 
d="M1098 782c0 -53.333 -9.00195 -103.826 -27.002 -151.493s-43.5 -89.5 -76.5 -125.5s-72.333 -64.5 -118 -85.5s-95.834 -31.5 -150.501 -31.5l-8 68c-21.333 -19.333 -47 -35.5 -77 -48.5s-59.667 -19.5 -89 -19.5c-26 0 -48.667 4.16699 -68 12.5s-35.333 20 -48 35
s-22.167 32.667 -28.5 53s-9.5 42.833 -9.5 67.5c0 30 6.16699 56.167 18.5 78.5s28.5 40.833 48.5 55.5s43 25.667 69 33s52.667 11 80 11c12 0 24.333 -0.833008 37 -2.5s25 -4.16699 37 -7.5v36c0 6.66699 -0.5 17.334 -1.5 32.001s-3.33301 29.5 -7 44.5
s-9 28.333 -16 40s-16.167 17.5 -27.5 17.5c-12.667 0 -24.667 -5.16699 -36 -15.5s-21.833 -22.5 -31.5 -36.5s-18 -28.333 -25 -43s-12.167 -26.334 -15.5 -35.001l-118 6l-4 216l116 2v-84c4.66699 11.333 11.167 22.5 19.5 33.5s17.833 20.667 28.5 29
s22.334 15 35.001 20s25.667 7.5 39 7.5c32 0 58.5 -3.66699 79.5 -11s37.833 -18.5 50.5 -33.5s21.5 -34 26.5 -57s7.5 -50.5 7.5 -82.5c0 -52 -0.666992 -104.667 -2 -158s-4.66602 -106 -9.99902 -158c13.333 0 26.166 2.16699 38.499 6.5s24.166 10.166 35.499 17.499
c22.667 14 41.834 30.833 57.501 50.5s28.5 41 38.5 64s17.167 47.333 21.5 73s6.5 51.167 6.5 76.5c0 136.667 -32 239.167 -96 307.5s-165.333 102.5 -304 102.5c-72 0 -133.833 -13.333 -185.5 -40s-94.167 -62.5 -127.5 -107.5s-57.833 -97.167 -73.5 -156.5
s-23.5 -121.333 -23.5 -186c0 -67.333 10.667 -131.333 32 -192s52 -113.834 92 -159.501s88.333 -81.834 145 -108.501s120.334 -40 191.001 -40c44 0 87.167 5.5 129.5 16.5s82.5 27.5 120.5 49.5l46 -90c-45.333 -26 -96 -47.5 -152 -64.5s-110.667 -25.5 -164 -25.5
c-84 0 -160 17 -228 51s-126 79.5 -174 136.5s-85 122.5 -111 196.5s-39 150.667 -39 230c0 78.667 11.333 153.667 34 225s56 134.166 100 188.499s98.5 97.666 163.5 129.999s139.833 48.5 224.5 48.5c82.667 0 155.334 -11.333 218.001 -34
s115.167 -55.834 157.5 -99.501s74.333 -97.334 96 -161.001s32.5 -136.167 32.5 -217.5zM691.998 534.007l0.00195312 86c-7.33301 7.33301 -17.5 12.166 -30.5 14.499s-24.167 3.5 -33.5 3.5c-14.667 0 -28.834 -1.5 -42.501 -4.5s-25.834 -8 -36.501 -15
s-19.167 -16 -25.5 -27s-9.5 -24.833 -9.5 -41.5c0 -21.333 6.66699 -37.333 20 -48s30 -16 50 -16c6.66699 0 16 0.833008 28 2.5s24 4.33398 36 8.00098s22.333 8.5 31 14.5s13 13.667 13 23z" />
    <glyph glyph-name="A" unicode="A" horiz-adv-x="960" 
d="M973 162l-14 -190l-406 10l-10 194l124 -4l-52 292l-264 -12l-42 -260l116 -10l-16 -180h-406l-10 194l124 -4l218 1068l-102 -4l-10 170l510 10l-10 -160l-100 -4l226 -1100zM587 620l-108 614l-100 -614h208z" />
    <glyph glyph-name="B" unicode="B" horiz-adv-x="1010" 
d="M974 404c0 -62.667 -11.333 -119.667 -34 -171s-53.834 -95.5 -93.501 -132.5s-86.167 -65.667 -139.5 -86s-110.333 -30.5 -171 -30.5c-78.667 0 -157 1.33301 -235 4s-155.667 6 -233 10l12 194l114 -4l-2 1058l-114 -6l-14 194c67.333 7.33301 135 12.166 203 14.499
s136.333 3.5 205 3.5c62.667 0 120.334 -9.66699 173.001 -29s97.834 -47.166 135.501 -83.499s67 -80.5 88 -132.5s31.5 -110.333 31.5 -175c0 -61.333 -13.667 -114.833 -41 -160.5s-67 -84.167 -119 -115.5c75.333 -33.333 133.166 -79.5 173.499 -138.5
s60.5 -130.167 60.5 -213.5zM716 1038c0 71.333 -19.832 126.833 -59.499 166.5s-95.167 59.5 -166.5 59.5h-26c-12 0 -24.333 -0.166992 -37 -0.5s-24.167 -0.833008 -34.5 -1.5s-16.5 -1.33398 -18.5 -2.00098l-4 -432c11.333 -1.33301 22.333 -2 33 -2h33h70
c65.333 1.33301 116.666 20.333 153.999 57s56 88.334 56 155.001zM788.001 408c0 40.667 -5.16504 74.835 -15.498 102.502s-24.5 50.334 -42.5 68.001s-39.333 31.167 -64 40.5s-51.167 16.166 -79.5 20.499s-57.833 6.66602 -88.5 6.99902
s-61.334 0.166016 -92.001 -0.500977h-34l4 -472c28 0 56.333 -0.333008 85 -1s57 -1 85 -1c33.333 0 64.666 5.83301 93.999 17.5s55 28 77 49s39.333 46 52 75s19 60.5 19 94.5z" />
    <glyph glyph-name="C" unicode="C" horiz-adv-x="1033" 
d="M983 1444l-22.0049 -509.996l-158 6c-4 23.333 -9.16699 47.666 -15.5 72.999s-14.333 50 -24 74s-21.167 46.833 -34.5 68.5s-29 40.667 -47 57s-38.333 29.333 -61 39s-48 14.5 -76 14.5c-42 0 -78.5 -9 -109.5 -27s-57.5 -42 -79.5 -72s-40.167 -64.167 -54.5 -102.5
s-25.5 -77.5 -33.5 -117.5s-13.5 -79.5 -16.5 -118.5s-4.5 -73.833 -4.5 -104.5c0 -28.667 1.33301 -62.167 4 -100.5s7.83398 -77.833 15.501 -118.5s18.167 -80.834 31.5 -120.501s30.5 -75 51.5 -106s46.167 -56.167 75.5 -75.5s64 -29 104 -29
c48.667 0 89.5 10.667 122.5 32s59.833 48.833 80.5 82.5s35.834 71.334 45.501 113.001s16.167 83.167 19.5 124.5h158c0 -68.667 -8.5 -135.334 -25.5 -200.001s-43.167 -122 -78.5 -172s-80.166 -90.167 -134.499 -120.5s-118.833 -45.5 -193.5 -45.5
c-57.333 0 -108.666 11.667 -153.999 35s-85.166 54.5 -119.499 93.5s-63.5 83.667 -87.5 134s-43.667 102.5 -59 156.5s-26.5 107.833 -33.5 161.5s-10.5 102.834 -10.5 147.501c0 50.667 3.16699 104 9.5 160s16.666 111.167 30.999 165.5s33.333 106.166 57 155.499
s53.167 92.666 88.5 129.999s77 67.166 125 89.499s103 33.5 165 33.5c62.667 0 115.334 -14.667 158.001 -44s80 -70 112 -122l2 164z" />
    <glyph glyph-name="D" unicode="D" horiz-adv-x="1029" 
d="M966 704c0 -58 -3.83008 -118.499 -11.4971 -181.499s-21.334 -124 -41.001 -183s-46.334 -113.833 -80.001 -164.5s-76.834 -93 -129.501 -127c-32 -21.333 -66.5 -37.666 -103.5 -48.999s-74.5 -17 -112.5 -17h-6l-402 6l-6 184h118l-2 1054l-114 -4l-10 194
c58.667 4 116.834 6.66699 174.501 8s116.167 2 175.5 2h114c60.667 0 113.667 -11.333 159 -34s84.166 -53 116.499 -91s58.833 -81.667 79.5 -131s37 -100.833 49 -154.5s20.333 -107.334 25 -161.001s7 -103.834 7 -150.501zM782.003 728.001l0.000976562 18.002
c0 22.667 -1.5 50.5 -4.5 83.5s-7.83301 67.833 -14.5 104.5s-16 73 -28 109s-26.667 68.5 -44 97.5s-38.166 52.5 -62.499 70.5s-52.5 27 -84.5 27h-64h-54c-18 0 -36 -0.666992 -54 -2l-10 -1074c13.333 -1.33301 26.333 -2.33301 39 -3s25.667 -1 39 -1
c35.333 0 70 2 104 6c37.333 6 69.166 20.167 95.499 42.5s48.333 49.666 66 81.999s31.5 68.166 41.5 107.499s17.667 78.833 23 118.5s8.66602 78.167 9.99902 115.5s2 70 2 98z" />
    <glyph glyph-name="E" unicode="E" horiz-adv-x="953" 
d="M903 1038l-148 -10l-20 206l-364 -8l-4 -446h304v-144l-306 -18l-4 -446l374 14v220h148l10 -398l-814 -20l-6 184h118l-2 1054l-124 -4l10 194l818 10z" />
    <glyph glyph-name="F" unicode="F" horiz-adv-x="910" 
d="M894 998l-168 -10l-10 226l-354 -8l4 -456h298v-144l-296 -18l4 -404l142 -8v-178l-434 -10l-6 196h118l-2 1022l-124 -4l10 194l808 10z" />
    <glyph glyph-name="G" unicode="G" horiz-adv-x="1028" 
d="M960 530c0 -65.333 -9.1709 -130.168 -27.5039 -194.501s-45.833 -122.333 -82.5 -174s-82.167 -93.5 -136.5 -125.5s-117.5 -48 -189.5 -48c-57.333 0 -108.666 11.667 -153.999 35s-85.166 54.5 -119.499 93.5s-63.5 83.667 -87.5 134s-43.667 102.5 -59 156.5
s-26.5 107.833 -33.5 161.5s-10.5 102.834 -10.5 147.501c0 48.667 2.66699 100.667 8 156s14.5 110.166 27.5 164.499s30.667 106.333 53 156s50.333 93.667 84 132s73.834 68.833 120.501 91.5s101 34 163 34c32 0 60 -3.83301 84 -11.5s45.667 -18.667 65 -33
s37 -31.833 53 -52.5s32 -43.667 48 -69l2 164l176 -4l-22 -510l-158 6c-5.33301 32.667 -13.166 68.167 -23.499 106.5s-24.5 73.666 -42.5 105.999s-41.167 59.333 -69.5 81s-63.166 32.5 -104.499 32.5s-76.833 -9.16699 -106.5 -27.5s-54.667 -42.666 -75 -72.999
s-36.833 -64.666 -49.5 -102.999s-22.334 -77.666 -29.001 -117.999s-11 -79.666 -13 -117.999s-3 -72.5 -3 -102.5c0 -28.667 1.33301 -62.167 4 -100.5s7.83398 -77.833 15.501 -118.5s18.167 -80.834 31.5 -120.501s30.5 -75 51.5 -106s46.167 -56.167 75.5 -75.5
s64 -29 104 -29c32 0 60.667 6.33301 86 19s47.5 29.5 66.5 50.5s35 45.167 48 72.5s23.5 55.666 31.5 84.999s13.833 58.833 17.5 88.5s5.16699 57.167 4.5 82.5v20l-282 8v138l446 10c3.33301 -36 6.16602 -72.333 8.49902 -109s3.5 -73 3.5 -109z" />
    <glyph glyph-name="H" unicode="H" horiz-adv-x="1194" 
d="M1118 1232l-104 4l-20 -1064h116l6 -184l-444 10v180l142 -6l6 378h-456v-356h118l4 -186l-434 10v180l142 -4l-10 1012l-136 10l4 180h418v-194l-106 4v-500l454 16l4 514l-134 10l4 180h426v-194z" />
    <glyph glyph-name="I" unicode="I" horiz-adv-x="555" 
d="M501 198l-10 -180l-412 -10l-6 186h118l-2 1022l-124 -4l10 194h396l16 -180l-116 -10l-10 -1022z" />
    <glyph glyph-name="J" unicode="J" horiz-adv-x="807" 
d="M778 1242l-148.001 0.000976562v-900c0 -55.333 -6.33301 -105.333 -19 -150s-32.5 -82.834 -59.5 -114.501s-61.333 -56.167 -103 -73.5s-91.834 -26 -150.501 -26c-46 0 -86.167 8.83301 -120.5 26.5s-62.833 41.5 -85.5 71.5s-39.667 64.333 -51 103s-17 79 -17 121
c0 40 0.333008 80.333 1 121s3 81 7 121h186c-3.33301 -39.333 -6.16602 -78.333 -8.49902 -117s-3.5 -77.667 -3.5 -117c0 -16 1.83301 -33.167 5.5 -51.5s9.66699 -35.5 18 -51.5s19.333 -29.167 33 -39.5s30.167 -15.5 49.5 -15.5c28.667 0 51.834 5.83301 69.501 17.5
s31.5 27 41.5 46s16.667 40.5 20 64.5s5 48 5 72v892l-180 -12l-10 192l520 12v-192z" />
    <glyph glyph-name="K" unicode="K" horiz-adv-x="1032" 
d="M1039 1426l-16 -190h-104l-398 -500l380 -564l110 6l10 -180l-412 -20l-16 184h118l-346 526l-4 -494l140 4l-10 -180l-412 -10l-6 186h118l-2 1022l-124 -4l10 194h396l16 -180l-116 -10l-4 -430l360 460l-126 16l12 174z" />
    <glyph glyph-name="L" unicode="L" horiz-adv-x="895" 
d="M873 406l-10 -408l-788 10l-10 194l124 -4l2 1024h-118l6 184h434v-178l-142 -6l-10 -1024l334 -8l10 226z" />
    <glyph glyph-name="M" unicode="M" horiz-adv-x="1403" 
d="M1367 1422l-6 -192l-130 6l-20 -1058h102l4 -190h-408l4 190h122l4 950l-252 -1032l-196 -6l-196 1036l-14 -932h118l4 -186l-464 10v180l162 -4l10 1012l-176 10l4 180h488l166 -994l240 1014z" />
    <glyph glyph-name="N" unicode="N" horiz-adv-x="1167" 
d="M1133 1246l-116 -10l-30 -1244l-174 -4l-450 1088l10 -882l136 4v-180l-428 -10l-6 186h118l-12 1022l-124 -4l10 194h336l424 -1062v892l-126 -4l10 194h408z" />
    <glyph glyph-name="O" unicode="O" 
d="M938 778c0 -54 -1.67188 -111.665 -5.00488 -172.998s-10.5 -122 -21.5 -182s-27 -117.833 -48 -173.5s-49 -104.5 -84 -146.5s-78.167 -75.667 -129.5 -101s-112.666 -38 -183.999 -38c-56 0 -104.667 10.167 -146 30.5s-76.833 47.5 -106.5 81.5
s-54.167 73.333 -73.5 118s-34.666 91.167 -45.999 139.5s-19.166 97.166 -23.499 146.499s-6.5 95.333 -6.5 138c0 54 2 112.333 6 175s12 125 24 187s28.833 121.667 50.5 179s50.334 108 86.001 152s79.167 79.167 130.5 105.5s112.333 39.5 183 39.5
c56 0 104.833 -10.833 146.5 -32.5s77 -50.667 106 -87s52.667 -77.833 71 -124.5s32.833 -95.167 43.5 -145.5s17.834 -100.333 21.501 -150s5.5 -95.834 5.5 -138.501zM741.995 766.002c0 22.667 -0.670898 50.8359 -2.00391 84.5029s-4.33301 69 -9 106
s-11.667 74.167 -21 111.5s-22.166 70.833 -38.499 100.5s-36.666 53.667 -60.999 72s-53.833 27.5 -88.5 27.5c-44 0 -81.167 -11.833 -111.5 -35.5s-55.5 -54.834 -75.5 -93.501s-35.667 -82.167 -47 -130.5s-19.666 -97.166 -24.999 -146.499s-8.5 -96.833 -9.5 -142.5
s-1.5 -84.834 -1.5 -117.501c0 -24.667 0.666992 -52.834 2 -84.501s4.5 -64 9.5 -97s12.5 -65.333 22.5 -97s23.167 -59.834 39.5 -84.501s36.833 -44.667 61.5 -60s54.334 -23 89.001 -23c43.333 0 80 11 110 33s54.833 50.833 74.5 86.5s35 75.834 46 120.501
s19.167 89.5 24.5 134.5s8.5 88.167 9.5 129.5s1.5 76.666 1.5 105.999z" />
    <glyph glyph-name="P" unicode="P" horiz-adv-x="966" 
d="M946 1020c0 -82.667 -13.332 -152 -39.999 -208s-63.5 -101 -110.5 -135s-102.333 -58.5 -166 -73.5s-132.834 -22.833 -207.501 -23.5h-56l-4 -386l140 4l-10 -180l-412 -10l-6 186h118l-2 1048l-114 -4l-10 194c74.667 3.33301 148.667 5.5 222 6.5
s147.333 1.5 222 1.5c60.667 0 117.667 -10.167 171 -30.5s99.5 -49 138.5 -86s69.833 -81.167 92.5 -132.5s34 -108.333 34 -171zM762.001 1012c0 34 -6.16895 65.6689 -18.502 95.002s-29.166 54.666 -50.499 75.999s-46.666 38.166 -75.999 50.499s-61 18.5 -95 18.5h-64
h-86l-4 -502h48c46 0 89.833 2.83301 131.5 8.5s78.5 17.5 110.5 35.5s57.333 44.333 76 79s28 81 28 139z" />
    <glyph glyph-name="Q" unicode="Q" 
d="M937 746c0 -36 -0.84082 -74.835 -2.50781 -116.502s-5.16699 -84.5 -10.5 -128.5s-12.666 -87.833 -21.999 -131.5s-21.666 -85.5 -36.999 -125.5s-34 -77.167 -56 -111.5s-48 -63.833 -78 -88.5c21.333 -27.333 45.833 -53.833 73.5 -79.5s56.5 -46.5 86.5 -62.5
l-136 -150c-37.333 30 -70.166 64.167 -98.499 102.5s-54.166 78.166 -77.499 119.499c-18 -4 -35.667 -6.66699 -53 -8s-35 -2 -53 -2c-57.333 0 -107.166 10.833 -149.499 32.5s-78.666 50.5 -108.999 86.5s-55.166 77.333 -74.499 124s-34.5 95.334 -45.5 146.001
s-18.667 101.5 -23 152.5s-6.5 98.5 -6.5 142.5c0 53.333 2 110.333 6 171s11.667 120.834 23 180.501s27.833 117.167 49.5 172.5s49.834 104 84.501 146s77.334 75.5 128.001 100.5s111 37.5 181 37.5c58 0 108.167 -11.5 150.5 -34.5s78.333 -53.667 108 -92
s53.667 -82.166 72 -131.499s32.666 -100.333 42.999 -153s17.333 -105 21 -157s5.5 -99.333 5.5 -142zM740.992 725.998c0 24 -0.665039 54.002 -1.99805 90.002s-4.33301 74.167 -9 114.5s-11.834 80.5 -21.501 120.5s-23 76.167 -40 108.5s-38.333 58.5 -64 78.5
s-56.834 30 -93.501 30c-43.333 0 -79.666 -11.333 -108.999 -34s-53.333 -52.5 -72 -89.5s-33.167 -78.667 -43.5 -125s-17.833 -93 -22.5 -140s-7.33398 -92.333 -8.00098 -136s-1 -80.834 -1 -111.501v-49c0 -16.667 0.666992 -33.667 2 -51
c45.333 -6 87.166 -18 125.499 -36s73 -40.5 104 -67.5s58.333 -58.333 82 -94s43.834 -73.834 60.501 -114.501c25.333 28 45.5 63.333 60.5 106s26.333 87.667 34 135s12.5 94.333 14.5 141s3 88 3 124zM484.994 156c-20 43.333 -47.833 81.167 -83.5 113.5
s-74.5 58.5 -116.5 78.5c6.66699 -25.333 15.5 -49.5 26.5 -72.5s24.5 -43.5 40.5 -61.5s34.833 -32.333 56.5 -43s47.167 -15.667 76.5 -15z" />
    <glyph glyph-name="R" unicode="R" horiz-adv-x="999" 
d="M956 208l-9.99902 -189.998l-362 -30l-24 184h76l-136 468h-136l-4 -468l120 6l-10 -190h-382l-16 184h118l-2 1070l-114 -4l-10 194c74.667 3.33301 149.167 5.5 223.5 6.5s149.166 1.5 224.499 1.5c59.333 0 115.333 -8.16699 168 -24.5s98.5 -40.833 137.5 -73.5
s69.833 -73.334 92.5 -122.001s34 -105.334 34 -170.001c0 -42.667 -6 -85 -18 -127s-29.667 -80.833 -53 -116.5s-52 -66.5 -86 -92.5s-73 -44 -117 -54l146 -456zM760.001 1042c0 34 -5.83203 64 -17.499 90s-27.834 48 -48.501 66s-45 31.5 -73 40.5
s-58.333 13.5 -91 13.5h-74h-86l-4 -442h48c44 0 86.833 1.83301 128.5 5.5s78.5 13.167 110.5 28.5s57.833 38.5 77.5 69.5s29.5 73.833 29.5 128.5z" />
    <glyph glyph-name="S" unicode="S" horiz-adv-x="952" 
d="M876 380c0 -54 -6.83496 -104.836 -20.502 -152.503s-34.5 -89.167 -62.5 -124.5s-63.5 -63.333 -106.5 -84s-93.833 -31 -152.5 -31c-35.333 0 -67 3.16699 -95 9.5s-53.5 16.333 -76.5 30s-44.333 31.167 -64 52.5s-38.5 46.666 -56.5 75.999l-2 -154l-176 24l32 458
l148 -6c6 -35.333 15.333 -72.166 28 -110.499s29.5 -73.5 50.5 -105.5s47 -58.333 78 -79s68.167 -31 111.5 -31c34.667 0 63.834 5.66699 87.501 17s42.834 27 57.501 47s25.167 43.667 31.5 71s9.5 57 9.5 89c0 36 -5.83301 68.167 -17.5 96.5s-27.834 53.333 -48.501 75
s-44.834 40.334 -72.501 56.001s-57.5 29.167 -89.5 40.5c-36.667 12.667 -71.834 26 -105.501 40s-65.167 29.5 -94.5 46.5s-56.166 36 -80.499 57s-45.166 45.167 -62.499 72.5s-30.833 58.333 -40.5 93s-14.5 74.334 -14.5 119.001c0 55.333 8.33301 106.333 25 153
s40.667 86.834 72 120.501s69.333 59.834 114 78.501s95 28 151 28c35.333 0 65.833 -3.33301 91.5 -10s48.5 -17 68.5 -31s38.333 -31.5 55 -52.5s33.667 -45.833 51 -74.5l2 164l174 -4l-22 -510l-156 6c-4.66699 24.667 -9.83398 50.167 -15.501 76.5
s-13.167 51.833 -22.5 76.5s-20.333 48.167 -33 70.5s-27.834 41.833 -45.501 58.5s-38.167 29.834 -61.5 39.501s-50 14.5 -80 14.5c-30.667 0 -57.167 -5.83301 -79.5 -17.5s-40.833 -27.334 -55.5 -47.001s-25.5 -42.334 -32.5 -68.001s-10.5 -52.167 -10.5 -79.5
c0 -38.667 6.33301 -71.667 19 -99s29.834 -50.833 51.501 -70.5s46.834 -36.5 75.501 -50.5s59.334 -26.667 92.001 -38c50 -18 97.667 -39.333 143 -64s85.333 -54 120 -88s62.167 -73.5 82.5 -118.5s30.5 -96.833 30.5 -155.5z" />
    <glyph glyph-name="T" unicode="T" horiz-adv-x="920" 
d="M886 1002l-154 -20l-10 270l-166 -6l-10 -1052l140 4l-10 -180l-412 -10l-6 186h118l-2 1042l-180 -12l10 -252h-166l10 434l818 30z" />
    <glyph glyph-name="U" unicode="U" horiz-adv-x="1104" 
d="M1069 1266l-113.999 -9.99707v-534c-0.666992 -50 -2.5 -103.5 -5.5 -160.5s-9.5 -113.5 -19.5 -169.5s-24.333 -109.833 -43 -161.5s-43.834 -97.167 -75.501 -136.5s-70.667 -70.833 -117 -94.5s-102.166 -35.5 -167.499 -35.5c-56 0 -104.333 10.667 -145 32
s-75.167 49.833 -103.5 85.5s-51.166 76.667 -68.499 123s-30.833 94.333 -40.5 144s-16.167 99.167 -19.5 148.5s-5 95 -5 137c0 98.667 2.16699 197.167 6.5 295.5s8.16602 197.166 11.499 296.499l-124 -4l10 194h396l16 -180l-116 -10
c-3.33301 -102.667 -7.5 -205 -12.5 -307s-7.5 -204.333 -7.5 -307c0 -24.667 0.333008 -52.834 1 -84.501s3 -64.5 7 -98.5s10.333 -67.333 19 -100s20.834 -61.834 36.501 -87.501s35.5 -46.334 59.5 -62.001s53.667 -23.5 89 -23.5c40 0 73.667 10 101 30
s49.666 46.333 66.999 79s30.666 69.667 39.999 111s16 83 20 125s6.33301 82.833 7 122.5s1 73.834 1 102.501v530l-124 -4l10 194h396z" />
    <glyph glyph-name="V" unicode="V" horiz-adv-x="956" 
d="M970 1256l-124 -10l-258 -1264l-226 12l-248 1232l-124 -4l10 194h406l16 -180l-116 -10l170 -1022l188 1042l-124 -4l10 194l406 10z" />
    <glyph glyph-name="W" unicode="W" horiz-adv-x="1289" 
d="M1283 1252l-124 4l-148 -1262l-256 -12l-114 976l-126 -946l-274 -8l-108 1222l-124 -4l10 194h366l16 -180l-76 -10l60 -1012l156 998l-62 10l10 174l306 10l12 -164l-68 -20l148 -978l80 1012l-76 10l16 180h366z" />
    <glyph glyph-name="X" unicode="X" horiz-adv-x="1010" 
d="M997 1236l-124 -10l-276 -520l258 -544l142 6l-12 -180l-422 -10l-6 184h118l-178 388l-168 -378l132 6l-10 -180l-424 -10l-6 184h118l264 528l-262 526l-124 -4l10 194h406l16 -180l-116 -10l170 -378l188 378l-124 -4l10 194l406 10z" />
    <glyph glyph-name="Y" unicode="Y" horiz-adv-x="958" 
d="M970 1236l-124 -10l-288 -702l-4 -330l140 4l-10 -180l-412 -10l-6 186h118l-2 334l-268 698l-124 -4l10 194h406l16 -180l-116 -10l170 -540l188 540l-124 -4l10 194l406 10z" />
    <glyph glyph-name="Z" unicode="Z" horiz-adv-x="858" 
d="M805 18l-738 -10l-6 186l542 1042l-382 -2l10 -252h-176l10 434l728 4l2 -194l-544 -1032l388 2v258l156 10z" />
    <glyph glyph-name="bracketleft" unicode="[" horiz-adv-x="606" 
d="M592 -226l-492 10v1864l492 20v-200l-308 10v-1526l308 20v-198z" />
    <glyph glyph-name="backslash" unicode="\" horiz-adv-x="867" 
d="M830 0l-154 -20l-646 1460l182 20z" />
    <glyph glyph-name="bracketright" unicode="]" horiz-adv-x="606" 
d="M506 -216l-492 -10v198l306 -20v1526l-306 -10v200l492 -20v-1864z" />
    <glyph glyph-name="asciicircum" unicode="^" horiz-adv-x="750" 
d="M750 826l-184 -30l-192 500l-198 -510l-176 30l260 590l208 20z" />
    <glyph glyph-name="underscore" unicode="_" horiz-adv-x="608" 
d="M618 -82l-10 -180l-612 -10l-6 186z" />
    <glyph glyph-name="grave" unicode="`" horiz-adv-x="316" 
d="M316 1142l-92 -30l-224 232l186 50z" />
    <glyph glyph-name="a" unicode="a" horiz-adv-x="766" 
d="M740 170l-3.99902 -159.996l-206 -20l-10 116c-14 -15.333 -30.167 -29.833 -48.5 -43.5s-38 -26 -59 -37s-42.667 -19.667 -65 -26s-44.166 -9.5 -65.499 -9.5c-41.333 0 -76.166 8.16699 -104.499 24.5s-51 38 -68 65s-29.167 57.833 -36.5 92.5s-11 70 -11 106
c0 45.333 7.5 86.666 22.5 123.999s36 69.166 63 95.499s59.5 46.666 97.5 60.999s79.667 21.5 125 21.5c18 0 35.833 -1.16699 53.5 -3.5s35.167 -6.5 52.5 -12.5c1.33301 11.333 2 22 2 32v32c0 6 -0.333008 15.833 -1 29.5s-1.83398 29 -3.50098 46
s-4.16699 34.667 -7.5 53s-7.83301 35 -13.5 50s-12.334 27.333 -20.001 37s-17.167 14.5 -28.5 14.5c-12.667 0 -25 -4.33301 -37 -13s-23.333 -19.834 -34 -33.501s-20.5 -29 -29.5 -46s-17.167 -33.833 -24.5 -50.5s-13.666 -32.167 -18.999 -46.5
s-9.33301 -25.833 -12 -34.5l-170 8l-6 372l166 4v-146c6.66699 17.333 15.667 35.333 27 54s24.5 35.5 39.5 50.5s31.667 27.333 50 37s38.166 14.5 59.499 14.5c50.667 0 91.5 -7.66699 122.5 -23s54.667 -36.833 71 -64.5s27.166 -61 32.499 -100s8 -81.833 8 -128.5
c0 -90.667 -0.666992 -181 -2 -271s-6 -180.333 -14 -271h108zM482.001 238.004l-0.00292969 146c-9.33301 13.333 -23.166 22 -41.499 26s-35.166 6 -50.499 6c-48 0 -87 -11.833 -117 -35.5s-45 -61.167 -45 -112.5c0 -31.333 8.33301 -57.833 25 -79.5
s41.667 -32.5 75 -32.5c10.667 0 24.834 1.5 42.501 4.5s34.667 7.83301 51 14.5s30.5 15.167 42.5 25.5s18 22.833 18 37.5z" />
    <glyph glyph-name="b" unicode="b" horiz-adv-x="833" 
d="M779 548c0 -30 -1.33203 -64.6719 -3.99902 -104.005s-7.83398 -79.666 -15.501 -120.999s-18 -81.833 -31 -121.5s-30 -75.167 -51 -106.5s-46.167 -56.666 -75.5 -75.999s-64.333 -29 -105 -29c-20 0 -39.833 3 -59.5 9s-38.5 14.333 -56.5 25s-34.5 23 -49.5 37
s-27.833 29 -38.5 45l-16 -116l-268 10l2 166l132 -6l4 1092l-136 -4l-2 184h328l-10 -496c10.667 12.667 23.334 25.167 38.001 37.5s30.167 23.333 46.5 33s33.333 17.334 51 23.001s35.167 8.5 52.5 8.5c38.667 0 72.167 -8.16699 100.5 -24.5s52.333 -38 72 -65
s35.5 -57.667 47.5 -92s21.167 -69.666 27.5 -105.999s10.666 -72.166 12.999 -107.499s3.5 -67 3.5 -95zM603.001 549.995c0 25.333 -1.16504 54.998 -3.49805 88.998s-8.5 66.167 -18.5 96.5s-25 56 -45 77s-47.667 31.5 -83 31.5c-18 0 -34.667 -5.16699 -50 -15.5
s-28.5 -23.333 -39.5 -39s-19.5 -32.667 -25.5 -51s-9 -35.166 -9 -50.499c-2 -62.667 -2.83301 -125.167 -2.5 -187.5s0.5 -125.166 0.5 -188.499c0 -19.333 2.66699 -37.5 8 -54.5s13.333 -32 24 -45s23.667 -23.333 39 -31s33 -11.5 53 -11.5
c25.333 0 46.666 7 63.999 21s31.666 32.333 42.999 55s20 48.167 26 76.5s10.5 56.5 13.5 84.5s4.66699 54.667 5 80s0.5 46.333 0.5 63z" />
    <glyph glyph-name="c" unicode="c" horiz-adv-x="738" 
d="M687 1022l-10.0029 -410l-162 4c-0.666992 18.667 -3.16699 42.167 -7.5 70.5s-11.5 56 -21.5 83s-23.667 50.167 -41 69.5s-39.333 29 -66 29c-21.333 0 -39.5 -7 -54.5 -21s-27.5 -32 -37.5 -54s-18 -46.667 -24 -74s-10.5 -54.333 -13.5 -81
s-4.83301 -51.5 -5.5 -74.5s-1 -41.5 -1 -55.5c0 -15.333 0.166992 -34.5 0.5 -57.5s1.66602 -47.333 3.99902 -73s6 -51.334 11 -77.001s12.667 -48.834 23 -69.501s23.333 -37.334 39 -50.001s35.167 -19 58.5 -19c27.333 0 50 9.33301 68 28s32.5 41.167 43.5 67.5
s18.667 53.833 23 82.5s6.83301 53.334 7.5 74.001h160c-0.666992 -45.333 -6.66699 -92.666 -18 -141.999s-29.166 -94.833 -53.499 -136.5s-55.5 -76 -93.5 -103s-83.667 -40.5 -137 -40.5c-46.667 0 -87.167 7.66699 -121.5 23s-63.666 36.166 -87.999 62.499
s-44.166 57 -59.499 92s-27.333 71.667 -36 110s-14.667 77.5 -18 117.5s-5 78.333 -5 115c0 32 2 67.167 6 105.5s10.833 76.833 20.5 115.5s22.5 76.334 38.5 113.001s35.833 69 59.5 97s51.334 50.5 83.001 67.5s68.5 25.5 110.5 25.5c33.333 0 65 -8.66699 95 -26
s55.667 -38.666 77 -63.999l20 86z" />
    <glyph glyph-name="d" unicode="d" horiz-adv-x="831" 
d="M821 -2l-268 -7.99902l-14 116c-22 -36 -51.333 -64.333 -88 -85s-76 -31 -118 -31c-41.333 0 -76.833 8.66699 -106.5 26s-55 40.333 -76 69s-38 61.334 -51 98.001s-23 74.334 -30 113.001s-11.833 76.667 -14.5 114s-4 71.333 -4 102s2 65.167 6 103.5
s10.833 77.166 20.5 116.499s22.334 77.666 38.001 114.999s35 70.666 58 99.999s50.167 52.833 81.5 70.5s67.333 26.5 108 26.5c31.333 0 61.166 -8.16699 89.499 -24.5s50.5 -37.5 66.5 -63.5v326h-180v172l366 -6l-16 -1288l132 4v-166zM513 736.001
c-4 12 -9.66992 25.332 -17.0029 39.999s-16.166 28.5 -26.499 41.5s-22 24 -35 33s-26.833 13.5 -41.5 13.5c-22 0 -41.167 -6.33301 -57.5 -19s-30.166 -29 -41.499 -49s-20.833 -42.5 -28.5 -67.5s-13.5 -50 -17.5 -75s-6.83301 -48.667 -8.5 -71
s-2.5 -41.166 -2.5 -56.499v-55c0 -22.667 1 -47.167 3 -73.5s5.5 -53 10.5 -80s12.167 -51.5 21.5 -73.5s21.333 -39.833 36 -53.5s33 -20.5 55 -20.5c16.667 0 32.667 4.83301 48 14.5s29.333 21.667 42 36s23.834 29.5 33.501 45.5s17.167 30.667 22.5 44z" />
    <glyph glyph-name="e" unicode="e" horiz-adv-x="718" 
d="M667 606c0 -54.667 -1.99902 -107.996 -5.99902 -159.996l-430 -8c0 -14 0.666992 -30.833 2 -50.5s3.5 -40.334 6.5 -62.001s7.33301 -43 13 -64s13.167 -40 22.5 -57s20.833 -30.667 34.5 -41s30.167 -15.5 49.5 -15.5c20.667 0 38.5 5.5 53.5 16.5
s27.333 24.667 37 41s17.167 34.166 22.5 53.499s9 37.666 11 54.999h174c-6 -38 -16 -76.333 -30 -115s-32.667 -73.667 -56 -105s-51.666 -56.833 -84.999 -76.5s-72.333 -29.5 -117 -29.5c-46.667 0 -86.834 8.83301 -120.501 26.5s-62.167 41.167 -85.5 70.5
s-42.333 63.166 -57 101.499s-25.834 78 -33.501 119s-12.834 82.167 -15.501 123.5s-4 79.666 -4 114.999c0 32 1.83301 66.667 5.5 104s9.83398 74.333 18.501 111s20.5 72 35.5 106s33.833 63.833 56.5 89.5s49.667 46.334 81 62.001s67.666 23.5 108.999 23.5
c70.667 0 126.334 -11.167 167.001 -33.5s71.5 -53 92.5 -92s34.333 -85 40 -138s8.5 -109.833 8.5 -170.5zM493.001 664.004c0 20 -1.16797 42.667 -3.50098 68s-7.66602 49.333 -15.999 72s-20.5 41.667 -36.5 57s-37.333 23 -64 23c-23.333 0 -43 -5.16699 -59 -15.5
s-29.333 -23.833 -40 -40.5s-19 -35.834 -25 -57.501s-10.333 -43.667 -13 -66s-4.5 -44.166 -5.5 -65.499s-1.5 -40.333 -1.5 -57h258c4 28 6 55.333 6 82z" />
    <glyph glyph-name="f" unicode="f" horiz-adv-x="528" 
d="M675 1484l-4 -175.996c-56.667 1.33301 -104.167 -1.33398 -142.5 -8.00098s-69.5 -20.334 -93.5 -41.001s-41.5 -49.834 -52.5 -87.501s-17.5 -86.834 -19.5 -147.501h134l-10 -190l-122 8v-676l116 4l-6 -166h-422v176l132 4v664h-146l4 176h140
c0.666992 72 7.5 136.667 20.5 194s35 106 66 146s72.667 70.667 125 92s118.5 32 198.5 32c14 0 27.667 -0.333008 41 -1s27 -1.66699 41 -3z" />
    <glyph glyph-name="g" unicode="g" horiz-adv-x="721" 
d="M760 1058l-156.007 -137.995c13.333 -35.333 22.333 -74.166 27 -116.499s7 -82.166 7 -119.499c0 -49.333 -5.83301 -94.833 -17.5 -136.5s-29.667 -78.334 -54 -110.001s-55.333 -57.5 -93 -77.5s-82.167 -32.667 -133.5 -38
c-5.33301 -3.33301 -11.166 -7.33301 -17.499 -12s-12.166 -9.83398 -17.499 -15.501s-9.83301 -11.834 -13.5 -18.501s-5.5 -13.334 -5.5 -20.001c0 -6 2 -13.167 6 -21.5s8.66699 -16.5 14 -24.5s10.833 -15.667 16.5 -23l13.5 -17c44.667 0 88.834 -4.33301 132.501 -13
s82.667 -23.5 117 -44.5s62 -48.833 83 -83.5s31.5 -78.334 31.5 -131.001c0 -44.667 -10.5 -85.5 -31.5 -122.5s-48.333 -69 -82 -96s-71.5 -48 -113.5 -63s-83.667 -22.5 -125 -22.5c-43.333 0 -83.5 6.5 -120.5 19.5s-69 31.667 -96 56s-48 54 -63 89
s-22.5 74.833 -22.5 119.5c0 49.333 10.167 95.5 30.5 138.5s51.5 78.167 93.5 105.5c-12 19.333 -22.667 39.666 -32 60.999s-14 43 -14 65c0 23.333 6 46 18 68s28 38.667 48 50c-22.667 16.667 -42.167 38 -58.5 64s-30 53.833 -41 83.5s-19.167 60 -24.5 91
s-8 60.167 -8 87.5c0 53.333 6 102.166 18 146.499s30.667 82.5 56 114.5s57.833 56.833 97.5 74.5s87.167 26.5 142.5 26.5c14.667 0 27.834 -0.666992 39.501 -2s22.834 -3.5 33.501 -6.5s21.334 -6.66699 32.001 -11s22.334 -9.83301 35.001 -16.5l126 160z
M471.993 696.005c0 18.667 -2.16797 39.1689 -6.50098 61.502s-11.5 43 -21.5 62s-23 34.833 -39 47.5s-35.667 19 -59 19c-27.333 0 -49 -5.5 -65 -16.5s-28.167 -25.333 -36.5 -43s-13.833 -37.5 -16.5 -59.5s-4 -43.667 -4 -65c0 -18 1.83301 -39.333 5.5 -64
s10 -48.334 19 -71.001s21.333 -41.834 37 -57.501s35.834 -23.5 60.501 -23.5c23.333 0 43 7.5 59 22.5s29 33.333 39 55s17.167 44.5 21.5 68.5s6.5 45.333 6.5 64zM539.992 -97.9932c0 23.333 -6.33398 42.999 -19.001 58.999s-28.5 29 -47.5 39s-39.667 17.167 -62 21.5
s-42.833 6.5 -61.5 6.5c-44 0 -77 -13.833 -99 -41.5s-33 -62.5 -33 -104.5c0 -21.333 5.33301 -39.333 16 -54s24 -26.5 40 -35.5s33.833 -15.667 53.5 -20s38.5 -6.5 56.5 -6.5c18.667 0 37.334 3.16699 56.001 9.5s35.5 15.5 50.5 27.5s27 26.333 36 43
s13.5 35.334 13.5 56.001z" />
    <glyph glyph-name="h" unicode="h" horiz-adv-x="836" 
d="M812 136l-19.999 -161.996l-336 16l-4 160l88 10c2 92.667 3.83301 184.667 5.5 276s2.5 183.333 2.5 276c0 16.667 -1.5 33.667 -4.5 51s-8.16699 33.166 -15.5 47.499s-17.5 26.166 -30.5 35.499s-29.5 14 -49.5 14s-37.833 -4.83301 -53.5 -14.5
s-29.334 -22.167 -41.001 -37.5s-21.667 -33 -30 -53s-15.166 -40.333 -20.499 -61s-9.33301 -40.834 -12 -60.501s-4.33398 -36.834 -5.00098 -51.501c-3.33301 -70.667 -5.5 -141 -6.5 -211s-2.16699 -140.333 -3.5 -211h88l10 -162l-346 -4v186l98 4l-6 1104l-146 10
l4 170l310 10l6 -568c11.333 19.333 25.333 37.333 42 54s35 31 55 43s41.333 21.5 64 28.5s45.667 10.5 69 10.5c30 0 55.667 -5.16699 77 -15.5s39.333 -24 54 -41s26.167 -37 34.5 -60s14.833 -47 19.5 -72s7.66699 -50.333 9 -76s2 -50.167 2 -73.5
c0 -94.667 -1.16699 -188.667 -3.5 -282s-4.5 -187.333 -6.5 -282z" />
    <glyph glyph-name="i" unicode="i" horiz-adv-x="457" 
d="M349 1258c0 -17.333 -3.33301 -33.666 -10 -48.999s-15.667 -28.666 -27 -39.999s-24.666 -20.333 -39.999 -27s-31.666 -10 -48.999 -10s-33.666 3.33301 -48.999 10s-28.666 15.667 -39.999 27s-20.333 24.666 -27 39.999s-10 31.666 -10 48.999
s3.33301 33.666 10 48.999s15.667 28.666 27 39.999s24.666 20.333 39.999 27s31.666 10 48.999 10s33.666 -3.33301 48.999 -10s28.666 -15.667 39.999 -27s20.333 -24.666 27 -39.999s10 -31.666 10 -48.999zM433 140l-6 -166l-366 16v174l84 6v674h-122l4 174h322
l-24 -868z" />
    <glyph glyph-name="j" unicode="j" horiz-adv-x="401" 
d="M329 1258c0 -17.333 -3.33301 -33.666 -10 -48.999s-15.834 -28.666 -27.501 -39.999s-25.334 -20.333 -41.001 -27s-32.167 -10 -49.5 -10s-33.666 3.33301 -48.999 10s-28.666 15.667 -39.999 27s-20.333 24.666 -27 39.999s-10 31.666 -10 48.999
s3.33301 33.833 10 49.5s15.667 29.334 27 41.001s24.666 20.834 39.999 27.501s31.666 10 48.999 10s33.833 -3.33301 49.5 -10s29.334 -15.834 41.001 -27.501s20.834 -25.334 27.501 -41.001s10 -32.167 10 -49.5zM315 1022l-6.00098 -970
c-0.666992 -71.333 -7.5 -135.666 -20.5 -192.999s-35.333 -106 -67 -146s-73.834 -70.833 -126.501 -92.5s-118.667 -32.5 -198 -32.5c-13.333 0 -26.666 0.333008 -39.999 1s-26.666 1.66699 -39.999 3l4 176c56.667 -1.33301 104.5 1.16699 143.5 7.5
s70.5 19.666 94.5 39.999s41.333 49.5 52 87.5s16 87.667 16 149v808l-116 -6l6 166z" />
    <glyph glyph-name="k" unicode="k" horiz-adv-x="831" 
d="M815 164l-4 -164h-338v160h70l-198 262l-52 -70l-4 -184l118 -10l-6 -166l-366 16v174l84 6v1086h-122l4 176h302l-6 -864l216 286h-82l-14 150l384 16l6 -166l-118 -4l-248 -326l290 -372z" />
    <glyph glyph-name="l" unicode="l" horiz-adv-x="429" 
d="M407 158l-6 -166l-366 16v174l84 6v1076h-122l4 176h322l-24 -1272z" />
    <glyph glyph-name="m" unicode="m" horiz-adv-x="1241" 
d="M1205 162l-9.99902 -159.999l-316 -16l-4 172l78 10c2 88.667 3.83301 176.667 5.5 264s2.5 175.333 2.5 264c0 14.667 -1.33301 30.334 -4 47.001s-7.33398 32 -14.001 46s-15.834 25.667 -27.501 35s-26.5 14 -44.5 14c-19.333 0 -37 -5 -53 -15
s-29.833 -22.5 -41.5 -37.5s-20.834 -31.833 -27.501 -50.5s-10 -36.334 -10 -53.001c-1.33301 -88.667 -2.83301 -177 -4.5 -265s-3.5 -176.333 -5.5 -265l82 -10l-20 -160l-306 14l6 162l68 10c2 91.333 3.83301 182.666 5.5 273.999s2.5 182.666 2.5 273.999
c0 14.667 -1.33301 30.334 -4 47.001s-7.33398 32 -14.001 46s-15.834 25.667 -27.501 35s-26.5 14 -44.5 14c-29.333 0 -53.166 -8.33301 -71.499 -25s-32.5 -37.334 -42.5 -62.001s-17 -50.834 -21 -78.501s-6.33301 -52.5 -7 -74.5
c-3.33301 -75.333 -5.5 -150.333 -6.5 -225s-2.16699 -149.667 -3.5 -225h78v-162l-326 -4v184l98 6l-6 650l-146 10l4 170l288 10l6 -142c10.667 20.667 24.167 40.334 40.5 59.001s34.5 34.834 54.5 48.501s41.333 24.5 64 32.5s46.334 12 71.001 12
c26 0 48.5 -3.66699 67.5 -11s35.333 -18 49 -32s25 -30.667 34 -50s16.167 -41 21.5 -65c12.667 19.333 26.834 37.5 42.501 54.5s32.834 31.667 51.501 44s38.667 22 60 29s44 10.5 68 10.5c44.667 0 79.5 -11 104.5 -33s43.667 -49.5 56 -82.5s20 -69 23 -108
s4.5 -75.167 4.5 -108.5c0 -88.667 -1.16699 -176.667 -3.5 -264s-4.5 -175.333 -6.5 -264h82z" />
    <glyph glyph-name="n" unicode="n" horiz-adv-x="886" 
d="M861 142l-19.999 -160.001l-336 14l-4 162l88 10c2 90.667 3.83301 181 5.5 271s2.5 180.333 2.5 271c0 16 -1.5 32.667 -4.5 50s-8.16699 33.333 -15.5 48s-17.5 26.667 -30.5 36s-29.5 14 -49.5 14c-29.333 0 -54.166 -8.16699 -74.499 -24.5
s-36.833 -36.5 -49.5 -60.5s-22 -50 -28 -78s-9.33301 -53.667 -10 -77c-3.33301 -75.333 -5.5 -150.333 -6.5 -225s-2.16699 -149.667 -3.5 -225h88l10 -162l-346 -4v184l98 6l-6 650l-146 10l4 170l288 10l6 -142c13.333 20 29.166 39.167 47.499 57.5
s38.5 34.5 60.5 48.5s45.167 25.167 69.5 33.5s49.166 12.5 74.499 12.5c30 0 55.667 -5 77 -15s39.333 -23.667 54 -41s26.167 -37.166 34.5 -59.499s14.833 -46 19.5 -71s7.66699 -50.333 9 -76s2 -50.167 2 -73.5c0 -92.667 -1.16699 -185 -3.5 -277
s-4.5 -184.333 -6.5 -277z" />
    <glyph glyph-name="o" unicode="o" horiz-adv-x="737" 
d="M688 544c0 -33.333 -1.99902 -70.3281 -5.99902 -110.995s-11 -81.834 -21 -123.501s-23.167 -82.334 -39.5 -122.001s-36.833 -74.834 -61.5 -105.501s-53.5 -55.334 -86.5 -74.001s-71.5 -28 -115.5 -28c-41.333 0 -77.666 7.83301 -108.999 23.5
s-58.333 36.334 -81 62.001s-41.667 55.5 -57 89.5s-27.5 69.333 -36.5 106s-15.333 73.667 -19 111s-5.5 72 -5.5 104c0 33.333 2 70.666 6 111.999s10.833 83.166 20.5 125.499s22.667 83.5 39 123.5s36.666 75.5 60.999 106.5s53.166 55.833 86.499 74.5
s72.333 28 117 28c40.667 0 76.5 -8 107.5 -24s58 -37.333 81 -64s42 -57.334 57 -92.001s27.167 -70.5 36.5 -107.5s16 -74.167 20 -111.5s6 -71.666 6 -102.999zM530.001 550.005c0 14 -0.664062 32.002 -1.99707 54.002s-3.83301 45.333 -7.5 70
s-8.83398 49.334 -15.501 74.001s-15.334 47 -26.001 67s-23.834 36.167 -39.501 48.5s-34.167 18.5 -55.5 18.5c-26 0 -48.167 -7.83301 -66.5 -23.5s-34 -35.834 -47 -60.501s-23.5 -52.167 -31.5 -82.5s-14.167 -60.666 -18.5 -90.999s-7.16602 -58.833 -8.49902 -85.5
s-2 -48.334 -2 -65.001c0 -14 0.666992 -31.833 2 -53.5s4 -44.834 8 -69.501s9.5 -49.167 16.5 -73.5s15.833 -46.5 26.5 -66.5s23.667 -36.167 39 -48.5s33.333 -18.5 54 -18.5c25.333 0 47.166 7.66699 65.499 23s34 35.166 47 59.499s23.5 51.5 31.5 81.5
s14.167 60.167 18.5 90.5s7.33301 58.833 9 85.5s2.5 48.667 2.5 66z" />
    <glyph glyph-name="p" unicode="p" horiz-adv-x="823" 
d="M771 510c0 -32.667 -1.50098 -68.3301 -4.50098 -106.997s-8.33301 -77.334 -16 -116.001s-18.667 -76.167 -33 -112.5s-32.666 -68.5 -54.999 -96.5s-49.333 -50.333 -81 -67s-69.167 -25 -112.5 -25c-33.333 0 -63.833 9.66699 -91.5 29s-49.167 43 -64.5 71v-338
l90 -2v-158h-382l6 170l104 -4l12 1108l-132 -4v164l268 10l14 -116c10.667 16 23.667 31 39 45s32 26.333 50 37s37 19 57 25s40 9 60 9c37.333 0 70 -9.16699 98 -27.5s52 -42.333 72 -72s36.667 -63.334 50 -101.001s23.833 -75.834 31.5 -114.501s13 -76.167 16 -112.5
s4.5 -67.833 4.5 -94.5zM594.999 496.004c0 14.667 -0.331055 33.834 -0.998047 57.501s-2.5 48.667 -5.5 75s-7.5 52.833 -13.5 79.5s-14.333 50.667 -25 72s-24.167 38.666 -40.5 51.999s-35.833 20 -58.5 20c-20.667 0 -38.834 -3.66699 -54.501 -11
s-28.834 -17.5 -39.501 -30.5s-18.834 -28.167 -24.501 -45.5s-8.83398 -35.666 -9.50098 -54.999l-4 -187.5c-1.33301 -62.333 -2 -125.166 -2 -188.499c0 -15.333 2.83301 -33.166 8.5 -53.499s13.834 -39.5 24.501 -57.5s23.5 -33.333 38.5 -46s31.833 -19 50.5 -19
c24.667 0 45.834 6 63.501 18s32.167 27.667 43.5 47s20.333 41.166 27 65.499s11.667 49.166 15 74.499s5.33301 49.666 6 72.999s1 43.333 1 60z" />
    <glyph glyph-name="q" unicode="q" horiz-adv-x="833" 
d="M823 1022l-4.00391 -163.999l-132 4l-6 -1108l102 4l4 -170h-382l2 158l90 2l6 338c-7.33301 -14 -16.666 -27.167 -27.999 -39.5s-23.833 -23 -37.5 -32s-28.167 -16 -43.5 -21s-31 -7.5 -47 -7.5c-42 0 -78.5 7.83301 -109.5 23.5s-57.5 36.5 -79.5 62.5
s-39.833 56 -53.5 90s-24.334 69.333 -32.001 106s-13 73.5 -16 110.5s-4.16699 71.5 -3.5 103.5v28c0 27.333 1.83301 59.166 5.5 95.499s9.66699 73.833 18 112.5s19.5 76.834 33.5 114.501s31.333 71.167 52 100.5s45.334 53.166 74.001 71.499s61.667 27.5 99 27.5
c20 0 39.833 -3 59.5 -9s38.334 -14.167 56.001 -24.5s33.834 -22.5 48.501 -36.5s27.334 -29.333 38.001 -46l18 116zM504.996 710.001c0 18.667 -2.83105 36.6699 -8.49805 54.0029s-13.834 32.5 -24.501 45.5s-23.834 23.333 -39.501 31s-33.5 11.5 -53.5 11.5
c-24 0 -44.333 -7.33301 -61 -22s-30.5 -33.5 -41.5 -56.5s-19.833 -48.667 -26.5 -77s-11.667 -56.666 -15 -84.999s-5.5 -54.833 -6.5 -79.5s-1.5 -44.667 -1.5 -60c0 -16.667 0.5 -35.834 1.5 -57.501s3.16699 -44.167 6.5 -67.5s8.33301 -46.333 15 -69
s15.5 -42.834 26.5 -60.501s24.833 -32 41.5 -43s37 -16.5 61 -16.5c18.667 0 35.5 6.33301 50.5 19s28 28 39 46s19.5 37.167 25.5 57.5s9 38.166 9 53.499c1.33301 63.333 2 126.166 2 188.499v187.5z" />
    <glyph glyph-name="r" unicode="r" horiz-adv-x="599" 
d="M569 800c-25.333 -5.33301 -50.001 -14.332 -74.001 -26.999s-45.333 -28.167 -64 -46.5s-33.667 -39.333 -45 -63s-17 -49.5 -17 -77.5c0 -66.667 -0.333008 -132.667 -1 -198s-1.66699 -131.333 -3 -198l146 -6v-180l-488 -10l14 190l132 6l14 644l-106 -4l-6 184
l268 26v-138c14 11.333 30.333 23.666 49 36.999s38.334 26 59.001 38s41.5 22.833 62.5 32.5s40.833 16.5 59.5 20.5v-230z" />
    <glyph glyph-name="s" unicode="s" horiz-adv-x="694" 
d="M637 232c0 -37.333 -7.16699 -71.501 -21.5 -102.501s-33.833 -58 -58.5 -81s-53.167 -40.833 -85.5 -53.5s-66.5 -19 -102.5 -19c-33.333 0 -63.666 9 -90.999 27s-51 39 -71 63l-22 -86l-126 10l10 332l192 -2c-1.33301 -8 -2.33301 -16.333 -3 -25s-1 -17 -1 -25
c0 -16 2 -31.5 6 -46.5s10 -28.5 18 -40.5s18.5 -21.5 31.5 -28.5s28.5 -10.5 46.5 -10.5c12.667 0 24.5 3.16699 35.5 9.5s20.333 14.5 28 24.5s13.667 21 18 33s6.5 23.667 6.5 35c0 28.667 -6.5 54.167 -19.5 76.5s-29.5 42.5 -49.5 60.5s-42 34.167 -66 48.5
s-47 27.166 -69 38.499c-36 18.667 -65.833 38.334 -89.5 59.001s-42.5 43.5 -56.5 68.5s-23.833 52.833 -29.5 83.5s-8.5 65.667 -8.5 105c0 36.667 7.16699 70.667 21.5 102s33.833 58.5 58.5 81.5s53.167 40.833 85.5 53.5s66.5 19 102.5 19
c33.333 0 63.666 -9 90.999 -27s51 -39 71 -63l22 86l126 -10l-10 -332l-192 2c1.33301 8 2.33301 16.333 3 25s1 17 1 25c0 16 -2 31.5 -6 46.5s-10 28.5 -18 40.5s-18.5 21.5 -31.5 28.5s-28.5 10.5 -46.5 10.5c-12.667 0 -24.334 -3.16699 -35.001 -9.5
s-20 -14.5 -28 -24.5s-14.167 -21 -18.5 -33s-6.5 -23.667 -6.5 -35c0 -29.333 6.16699 -55.333 18.5 -78s28 -43 47 -61s40.333 -34.167 64 -48.5s47.167 -27.166 70.5 -38.499c34.667 -18 63.834 -37.333 87.501 -58s43 -43.667 58 -69s25.833 -53.333 32.5 -84
s10 -65 10 -103z" />
    <glyph glyph-name="t" unicode="t" horiz-adv-x="610" 
d="M566 1018l-4 -180.001h-176c-2 -89.333 -3.83301 -178.666 -5.5 -267.999s-2.5 -179.333 -2.5 -270c0 -21.333 4.16699 -40 12.5 -56s19.5 -29.5 33.5 -40.5s30 -19.333 48 -25s36.667 -8.5 56 -8.5h17c5.33301 0 11 0.666992 17 2v-178c-32 -8 -64.667 -12 -98 -12
c-43.333 0 -82.333 7.83301 -117 23.5s-64 37 -88 64s-42.5 58.5 -55.5 94.5s-19.5 74.667 -19.5 116c0 93.333 0.833008 186.333 2.5 279s3.5 185.667 5.5 279h-152v180h156l12 348h190l-8 -348h176z" />
    <glyph glyph-name="u" unicode="u" horiz-adv-x="863" 
d="M862 160l-4 -169.994l-288 -10l-6 162c-13.333 -20 -29.166 -39.167 -47.499 -57.5s-38.333 -34.5 -60 -48.5s-44.667 -25.167 -69 -33.5s-48.833 -12.5 -73.5 -12.5c-30.667 0 -56.667 5 -78 15s-39.333 23.667 -54 41s-26.334 37.166 -35.001 59.499
s-15.334 46 -20.001 71s-7.66699 50.333 -9 76s-2 50.167 -2 73.5c0 90.667 1.16699 181.167 3.5 271.5s4.5 181.166 6.5 272.499l-102 10l20 160l258 -14l-9.5 -356c-3 -117.333 -4.5 -236 -4.5 -356c0 -15.333 1.66699 -31.333 5 -48s8.83301 -31.834 16.5 -45.501
s17.834 -24.834 30.501 -33.501s28.667 -13 48 -13c29.333 0 54.166 8.16699 74.499 24.5s36.833 36.5 49.5 60.5s21.834 50 27.501 78s9.16699 53.667 10.5 77c4 73.333 6.33301 146.666 7 219.999s1.66699 146.666 3 219.999h-88l-10 162l270 4l-16 -850z" />
    <glyph glyph-name="v" unicode="v" horiz-adv-x="794" 
d="M791 848l-96 -6l-190 -844l-226 -6l-190 880h-92l10 170l336 -4l4 -162l-88 -8l138 -676l146 666l-88 10l-10 160l346 4v-184z" />
    <glyph glyph-name="w" unicode="w" horiz-adv-x="1052" 
d="M1045 868l-76 -6l-130 -874l-226 -6l-80 696l-82 -680l-226 -6l-130 870h-92l10 170l316 -4l4 -162l-68 -8l78 -666l94 676h-40l10 160h256l12 -160h-42l98 -676l86 676h-78l10 160l286 4z" />
    <glyph glyph-name="x" unicode="x" horiz-adv-x="835" 
d="M811 130l-4 -156l-356 4v166l82 6l-116 200l-112 -190l82 -6v-164l-356 -6l-4 156l96 10l204 354l-204 354l-96 10l4 164l356 -4v-164l-82 -6l114 -198l114 198l-82 6v164l356 4l4 -164l-94 -10l-210 -354l210 -364z" />
    <glyph glyph-name="y" unicode="y" horiz-adv-x="790" 
d="M787 848l-96 -6l-238 -1080l82 -4v-166l-344 -4l-6 156l96 10l56 240l-252 878h-92l10 170l336 -4l4 -162l-88 -8l158 -604l116 594l-78 10l-10 160l346 4v-184z" />
    <glyph glyph-name="z" unicode="z" horiz-adv-x="706" 
d="M649 288l-4 -284l-584 -4v164l392 694l-238 -4v-120h-158l-6 298l594 -4v-164l-392 -704l238 4l2 132z" />
    <glyph glyph-name="braceleft" unicode="{" horiz-adv-x="564" 
d="M580 1488c-45.333 -8 -82.168 -22.1641 -110.501 -42.4971s-50.5 -45 -66.5 -74s-26.833 -61.167 -32.5 -96.5s-8.5 -72.333 -8.5 -111c0 -23.333 -0.833008 -49.333 -2.5 -78s-4.83398 -57.834 -9.50098 -87.501s-11.334 -59.334 -20.001 -89.001
s-19.834 -57.167 -33.501 -82.5s-30.167 -47.833 -49.5 -67.5s-42.333 -34.167 -69 -43.5c36 -17.333 65.833 -39.333 89.5 -66s42.667 -56.5 57 -89.5s25 -68 32 -105s12 -74.667 15 -113s4.5 -76.5 4.5 -114.5s0.666992 -74 2 -108
c0.666992 -24.667 5.33398 -47.334 14.001 -68.001s20.667 -38.667 36 -54s33.333 -27.666 54 -36.999s43.334 -14.333 68.001 -15l-40 -180c-42.667 7.33301 -82.667 21.166 -120 41.499s-70 45.5 -98 75.5s-50.333 64.333 -67 103s-25.667 80 -27 124
c-1.33301 34.667 -1.5 70.167 -0.5 106.5s0.833008 72.166 -0.5 107.499s-5.16602 69.5 -11.499 102.5s-17.166 63.167 -32.499 90.5s-36.333 51.5 -63 72.5s-61.334 37.167 -104.001 48.5v158c32 0.666992 59.167 7.33398 81.5 20.001s41 29.167 56 49.5
s26.833 43.666 35.5 69.999s15.167 53.5 19.5 81.5s7 55.833 8 83.5s1.5 52.834 1.5 75.501c0 58.667 7.83301 114.5 23.5 167.5s38.834 101.167 69.501 144.5s68.5 80.5 113.5 111.5s96.833 53.833 155.5 68.5z" />
    <glyph glyph-name="bar" unicode="|" horiz-adv-x="375" 
d="M99 -206v1822h182l-10 -1822h-172z" />
    <glyph glyph-name="braceright" unicode="}" horiz-adv-x="564" 
d="M578 638c-42.667 -11.333 -77.3359 -27.501 -104.003 -48.501s-47.667 -45.167 -63 -72.5s-26.166 -57.5 -32.499 -90.5s-10.166 -67.167 -11.499 -102.5s-1.66602 -71.166 -0.999023 -107.499s0.666992 -71.833 0 -106.5c-1.33301 -44 -10.5 -85.333 -27.5 -124
s-39.5 -73 -67.5 -103s-60.5 -55.167 -97.5 -75.5s-76.833 -34.166 -119.5 -41.499l-40 180c36 1.33301 65.167 8.83301 87.5 22.5s40 31.167 53 52.5s22 45.666 27 72.999s8.16699 55.666 9.5 84.999s1.66602 58.5 0.999023 87.5s0 55.5 2 79.5
c2.66699 38.667 7 76.334 13 113.001s15.833 71 29.5 103s32.334 61 56.001 87s54.834 48.333 93.501 67c-40 14.667 -72.167 39.667 -96.5 75s-43 74.833 -56 118.5s-21.5 88.167 -25.5 133.5s-6 85.666 -6 120.999c0 38.667 -3 75.667 -9 111s-17 67.5 -33 96.5
s-38.167 53.667 -66.5 74s-64.833 34.5 -109.5 42.5l30 180c68.667 -17.333 126.167 -43.666 172.5 -78.999s83.5 -77 111.5 -125s48 -101.167 60 -159.5s18 -119.833 18 -184.5c0 -21.333 1.16699 -44 3.5 -68s6.5 -48 12.5 -72s14 -46.833 24 -68.5s22.5 -41 37.5 -58
s32.667 -30.667 53 -41s44.166 -15.833 71.499 -16.5v-158z" />
    <glyph glyph-name="asciitilde" unicode="~" horiz-adv-x="940" 
d="M906 762c-14.667 -16 -32.168 -32.8301 -52.501 -50.4971s-42.166 -33.834 -65.499 -48.501s-47.5 -26.834 -72.5 -36.501s-48.833 -14.5 -71.5 -14.5c-31.333 0 -61.5 6.5 -90.5 19.5s-57 27.167 -84 42.5s-53.667 29.5 -80 42.5s-52.833 19.5 -79.5 19.5
c-14 0 -30.5 -5.33301 -49.5 -16s-38 -23.167 -57 -37.5s-36.5 -28.833 -52.5 -43.5s-28.333 -26.334 -37 -35.001l-70 168c14.667 15.333 32.834 31.833 54.501 49.5s44.5 34 68.5 49s48.667 27.333 74 37s49.666 14.5 72.999 14.5c30.667 0 59 -6.5 85 -19.5
s51.667 -27.167 77 -42.5s51.333 -29.5 78 -42.5s56.667 -19.5 90 -19.5c16.667 0 34 2.66699 52 8s35.5 12.333 52.5 21s33 18.5 48 29.5s28.167 22.167 39.5 33.5z" />
    <glyph glyph-name="nonbreakingspace" unicode="&#xa0;" horiz-adv-x="360" 
 />
    <glyph glyph-name="exclamdown" unicode="&#xa1;" horiz-adv-x="413" 
d="M84 -172l50 1146l130 10l72 -1146zM78 1166c0 17.333 3.33301 33.833 10 49.5s15.667 29.334 27 41.001s24.666 20.834 39.999 27.501s31.666 10 48.999 10s33.833 -3.33301 49.5 -10s29.334 -15.834 41.001 -27.501s20.834 -25.334 27.501 -41.001s10 -32.167 10 -49.5
s-3.33301 -33.666 -10 -48.999s-15.834 -28.666 -27.501 -39.999s-25.334 -20.333 -41.001 -27s-32.167 -10 -49.5 -10s-33.666 3.33301 -48.999 10s-28.666 15.667 -39.999 27s-20.333 24.666 -27 39.999s-10 31.666 -10 48.999z" />
    <glyph glyph-name="cent" unicode="&#xa2;" horiz-adv-x="854" 
d="M484 214l13.9971 -261.999h-162l18 266c-54.667 11.333 -100.834 34.333 -138.501 69s-68.334 75.334 -92.001 122.001s-40.834 96.834 -51.501 150.501s-16 105.167 -16 154.5c0 54 4.66699 108.167 14 162.5s25.333 104.5 48 150.5s53 85.5 91 118.5
s85.667 55.167 143 66.5l-16 274h162l-16 -270c38 -6 70.667 -20.167 98 -42.5s52 -51.5 74 -87.5v132l140 -2l-18 -408l-124 4c-5.33301 28 -12.666 57.333 -21.999 88s-22.166 59 -38.499 85s-36.5 47.333 -60.5 64s-53 25 -87 25s-63.333 -5.33301 -88 -16
s-45.667 -25 -63 -43s-31.5 -38.833 -42.5 -62.5s-19.667 -48.667 -26 -75s-10.666 -53 -12.999 -80s-3.5 -52.833 -3.5 -77.5c0 -23.333 1.16699 -48.333 3.5 -75s6.33301 -53.334 12 -80.001s13.834 -52.334 24.501 -77.001s24.167 -46.5 40.5 -65.5
s36.333 -34.167 60 -45.5s51.5 -17 83.5 -17c39.333 0 72.333 7.5 99 22.5s48.167 35 64.5 60s28.5 53.167 36.5 84.5s13.333 63.666 16 96.999h124c0 -50 -5.66699 -98 -17 -144s-28.666 -87.5 -51.999 -124.5s-53.166 -68 -89.499 -93s-79.5 -41.167 -129.5 -48.5z" />
    <glyph glyph-name="sterling" unicode="&#xa3;" horiz-adv-x="804" 
d="M467 698l-9.99902 -119.997l-134 -4c-1.33301 -23.333 -5.83301 -48.333 -13.5 -75s-15.834 -51.334 -24.501 -74.001c-10 -26.667 -21.333 -53 -34 -79l332 -6l8 182l134 -8l-8 -328l-630 8l-8 156l36 -4c10.667 25.333 20.334 51 29.001 77
c7.33301 22 14.666 46.167 21.999 72.5s12.333 51.166 15 74.499l-96 -2l-6 126h82c-7.33301 16.667 -15.833 32.834 -25.5 48.501s-18.667 31.667 -27 48s-15.333 33.666 -21 51.999s-8.5 38.833 -8.5 61.5c0 46.667 5.5 90.667 16.5 132s28.167 77.5 51.5 108.5
s53.166 55.667 89.499 74s79.833 27.5 130.5 27.5c28.667 0 53.334 -2.83301 74.001 -8.5s39 -14 55 -25s30.667 -25.167 44 -42.5s27 -37.333 41 -60l2 132l140 -4l-18 -406l-126 4c-4.66699 28.667 -11 59 -19 91s-19.5 61.167 -34.5 87.5s-34.5 48.166 -58.5 65.499
s-54 26 -90 26c-28 0 -51.333 -7.5 -70 -22.5s-33.667 -33.833 -45 -56.5s-19.333 -47.167 -24 -73.5s-7 -50.833 -7 -73.5c0 -20 2.5 -37.833 7.5 -53.5s11 -30.5 18 -44.5s14.5 -27.833 22.5 -41.5s15.333 -28.5 22 -44.5z" />
    <glyph glyph-name="currency" unicode="&#xa4;" horiz-adv-x="587" 
d="M292 816c-18.667 0 -35.333 -3.66992 -50 -11.0029s-27 -17.166 -37 -29.499s-17.667 -26.666 -23 -42.999s-8 -33.166 -8 -50.499c0 -36 11.833 -64.333 35.5 -85s53.167 -31 88.5 -31c19.333 0 36.5 3.5 51.5 10.5s27.5 16.5 37.5 28.5s17.667 26 23 42s8 33 8 51
c0 37.333 -12 66.333 -36 87s-54 31 -90 31zM587.001 526.997l-133.999 -120l-59 63c-28 -12 -58.667 -18 -92 -18c-34.667 0 -66.334 6 -95.001 18l-69 -72l-134 128l71 72c-11.333 28 -17 57.333 -17 88c0 32.667 5.66699 63.334 17 92.001l-75 74l128 134l76 -76
c14 5.33301 28.5 9.66602 43.5 12.999s30.5 5 46.5 5c15.333 0 30.5 -1.33301 45.5 -4s29.5 -6.66699 43.5 -12l73 74l122 -134l-63 -65c12.667 -30.667 19 -63 19 -97c0 -16 -1.33301 -31.333 -4 -46s-6.66699 -29 -12 -43z" />
    <glyph glyph-name="yen" unicode="&#xa5;" horiz-adv-x="890" 
d="M699 778l-8 -128l-156 -2l-28 -64l192 2l-8 -128l-186 -2l-2 -98l114 4l-8 -144l-330 -8l-6 148h94v94l-166 -2l-4 132l170 2l-24 60l-142 -2l-4 132l86 2l-130 282l-100 -4l8 156h326l12 -144l-94 -8l136 -336l150 336l-98 -4l8 156l324 8l12 -152l-100 -8l-138 -282z
" />
    <glyph glyph-name="brokenbar" unicode="&#xa6;" horiz-adv-x="386" 
d="M103 834v782h182l-4 -782h-178zM103 -206v802h176l-4 -802h-172z" />
    <glyph glyph-name="section" unicode="&#xa7;" horiz-adv-x="939" 
d="M872 210c0 -54.667 -6.83789 -105.829 -20.5049 -153.496s-34.5 -89.334 -62.5 -125.001s-63.5 -63.834 -106.5 -84.501s-93.833 -31 -152.5 -31c-35.333 0 -67 3.33301 -95 10s-53.5 17 -76.5 31s-44.333 31.667 -64 53s-38.5 46.666 -56.5 75.999l-2 -154l-176 22
l32 460l148 -6c6 -36 15.333 -73.167 28 -111.5s29.5 -73.5 50.5 -105.5s47 -58.167 78 -78.5s68.167 -30.5 111.5 -30.5c34.667 0 63.834 5.66699 87.501 17s42.834 27 57.501 47s25.167 43.5 31.5 70.5s9.5 56.167 9.5 87.5c0 36.667 -5.83301 69.167 -17.5 97.5
s-27.834 53.5 -48.501 75.5s-44.834 40.833 -72.501 56.5s-57.5 29.167 -89.5 40.5c-20 7.33301 -39.833 14.166 -59.5 20.499s-39.167 13.5 -58.5 21.5c-34.667 14.667 -64.334 31.5 -89.001 50.5s-45.167 41 -61.5 66s-29.166 52.833 -38.499 83.5
s-15.666 64.667 -18.999 102v26c0 23.333 1.83301 46.666 5.5 69.999s9.16699 46 16.5 68c-35.333 38 -59.833 78.333 -73.5 121s-20.5 89.667 -20.5 141c0 54.667 8.33301 105.167 25 151.5s40.667 86.333 72 120s69.333 59.834 114 78.501s95 28 151 28
c35.333 0 65.833 -3.33301 91.5 -10s48.5 -17 68.5 -31s38.333 -31.5 55 -52.5s33.667 -45.833 51 -74.5l2 164l174 -4l-22 -508l-156 6c-4.66699 24.667 -10 50.167 -16 76.5s-13.333 51.833 -22 76.5s-19.5 48.167 -32.5 70.5s-28.167 41.833 -45.5 58.5
s-37.833 29.834 -61.5 39.501s-50.5 14.5 -80.5 14.5c-30.667 0 -57.167 -6 -79.5 -18s-40.833 -28 -55.5 -48s-25.5 -42.833 -32.5 -68.5s-10.5 -52.167 -10.5 -79.5c0 -38.667 6.33301 -71.667 19 -99s29.834 -50.833 51.501 -70.5s46.834 -36.5 75.501 -50.5
s59.334 -26.667 92.001 -38c50.667 -18 96.167 -38.333 136.5 -61s74.5 -49.834 102.5 -81.501s49.5 -68.834 64.5 -111.501s22.5 -92.667 22.5 -150c0 -22 -2.16699 -44.167 -6.5 -66.5s-10.166 -44.166 -17.499 -65.499c25.333 -33.333 44 -69.5 56 -108.5
s18 -79.5 18 -121.5zM643.995 578.005c0 36.667 -3.83301 67.6689 -11.5 93.002s-18.5 46.666 -32.5 63.999s-30.833 31.666 -50.5 42.999s-41.167 21.5 -64.5 30.5s-48 17.833 -74 26.5s-52.333 19 -79 31c-1.33301 -7.33301 -2 -14.333 -2 -21v-21c0 -26 4.5 -49 13.5 -69
s21 -37.5 36 -52.5s32.5 -28 52.5 -39s41.333 -20.833 64 -29.5c26 -9.33301 51.333 -19 76 -29s48.667 -21.667 72 -35v8z" />
    <glyph glyph-name="dieresis" unicode="&#xa8;" horiz-adv-x="482" 
d="M482 1242c0 -26 -8.83301 -47.833 -26.5 -65.5s-39.5 -26.5 -65.5 -26.5s-47.5 9 -64.5 27s-25.5 39.667 -25.5 65c0 26 8.83301 48.167 26.5 66.5s39.5 27.5 65.5 27.5s47.5 -9.16699 64.5 -27.5s25.5 -40.5 25.5 -66.5zM202 1242
c0 -29.333 -9.66895 -54.002 -29.002 -74.002s-43.666 -30 -72.999 -30c-14 0 -27.167 2.83301 -39.5 8.5s-23 13.334 -32 23.001s-16 20.834 -21 33.501s-7.5 25.667 -7.5 39c0 29.333 10 54 30 74s44.667 30 74 30c14.667 0 28 -2.83301 40 -8.5s22.333 -13.167 31 -22.5
s15.334 -20.333 20.001 -33s7 -26 7 -40z" />
    <glyph glyph-name="copyright" unicode="&#xa9;" horiz-adv-x="1181" 
d="M1118 704c0 -37.333 -3.33496 -77.334 -10.002 -120.001s-18 -85.5 -34 -128.5s-37.167 -84.333 -63.5 -124s-59.166 -74.667 -98.499 -105s-85.666 -54.666 -138.999 -72.999s-115 -27.5 -185 -27.5c-72.667 0 -136 9.16699 -190 27.5s-100.5 42.666 -139.5 72.999
s-71 65.166 -96 104.499s-44.833 80.5 -59.5 123.5s-24.834 86 -30.501 129s-8.5 83.167 -8.5 120.5c0 39.333 3 81.333 9 126s16.833 88.667 32.5 132s36.834 84.833 63.501 124.5s60.5 74.5 101.5 104.5s90.167 54 147.5 72s124 27 200 27
c66 0 124.333 -9.83301 175 -29.5s94.5 -45.667 131.5 -78s67.833 -69.166 92.5 -110.499s44.5 -83.666 59.5 -126.999s25.667 -86 32 -128s9.5 -79.667 9.5 -113zM1020 699.999c0 23.333 -2.16504 51.5 -6.49805 84.5s-12.333 67.5 -24 103.5s-27.5 71.833 -47.5 107.5
s-45.5 67.5 -76.5 95.5s-68.333 50.833 -112 68.5s-94.834 26.5 -153.501 26.5c-63.333 0 -118 -8.5 -164 -25.5s-85 -39.333 -117 -67s-57.833 -59 -77.5 -94s-35 -70.5 -46 -106.5s-18.333 -71 -22 -105s-5.5 -63.333 -5.5 -88c0 -24 1.83301 -52.333 5.5 -85
s10.834 -66.5 21.501 -101.5s25.667 -69.5 45 -103.5s44.666 -64.5 75.999 -91.5s69.5 -48.833 114.5 -65.5s98.167 -25 159.5 -25c56 0 105.5 8.5 148.5 25.5s80.5 39.167 112.5 66.5s58.667 58.333 80 93s38.666 69.5 51.999 104.5s22.833 68.5 28.5 100.5
s8.5 59.333 8.5 82zM826 1046l-12.0029 -245.998l-88 4c-3.33301 16.667 -8.16602 34.167 -14.499 52.5s-15.333 35.166 -27 50.499s-26 28 -43 38s-37.5 15 -61.5 15c-35.333 0 -63.666 -9.5 -84.999 -28.5s-37.833 -42 -49.5 -69s-19.5 -55.333 -23.5 -85
s-6 -55.5 -6 -77.5c0 -21.333 1.83301 -47 5.5 -77s11 -58.833 22 -86.5s26.833 -51.334 47.5 -71.001s47.667 -29.5 81 -29.5c27.333 0 50.333 5.16699 69 15.5s33.667 23.5 45 39.5s19.833 34 25.5 54s9.16699 39.667 10.5 59h88c0 -32.667 -4.66699 -64.5 -14 -95.5
s-23.833 -58.5 -43.5 -82.5s-44.667 -43.333 -75 -58s-66.166 -22 -107.499 -22c-48.667 0 -89.5 12.167 -122.5 36.5s-59.667 54.333 -80 90s-35 73.667 -44 114s-13.5 76.833 -13.5 109.5c0 36.667 4 75.5 12 116.5s22 79 42 114s47.167 64 81.5 87
s77.833 34.5 130.5 34.5c35.333 0 65 -7 89 -21s45 -33.667 63 -59v78h98z" />
    <glyph glyph-name="ordfeminine" unicode="&#xaa;" horiz-adv-x="612" 
d="M530 810l-148.001 -13.9971l-6 58c-19.333 -15.333 -41.5 -28.5 -66.5 -39.5s-50.167 -16.5 -75.5 -16.5c-28 0 -51.5 5.16699 -70.5 15.5s-34.167 24 -45.5 41s-19.5 35.833 -24.5 56.5s-7.5 41.667 -7.5 63c0 28 5 53.5 15 76.5s24 42.5 42 58.5s39.5 28.5 64.5 37.5
s52.5 13.5 82.5 13.5c18.667 0 38 -2 58 -6v24c0 4.66699 -0.166992 13.667 -0.5 27s-1.5 27.166 -3.5 41.499s-5.5 27.166 -10.5 38.499s-12.167 17 -21.5 17c-11.333 0 -21.833 -5.16699 -31.5 -15.5s-18.5 -22.5 -26.5 -36.5s-14.667 -28.333 -20 -43
s-9.33301 -26.334 -12 -35.001l-126 6l-4 234l126 2v-54c11.333 16 25.333 30 42 42s36 18 58 18c34.667 0 62.334 -5 83.001 -15s36.5 -23.5 47.5 -40.5s18.333 -37.333 22 -61s5.5 -48.834 5.5 -75.501c0 -51.333 -0.333008 -102.666 -1 -153.999s-3.66699 -102 -9 -152
h68zM349.999 1034c-4 4 -10.667 7 -20 9s-18 3 -26 3c-29.333 0 -52 -6.16699 -68 -18.5s-24 -32.166 -24 -59.499c0 -16 4.33301 -29.333 13 -40s21.667 -16 39 -16c6 0 13.833 0.666992 23.5 2s19.167 3.5 28.5 6.5s17.333 7.16699 24 12.5s10 11.666 10 18.999v82z
M533.999 678.003l-10 -140l-432 -10l-6 146z" />
    <glyph glyph-name="guillemotleft" unicode="&#xab;" horiz-adv-x="1244" 
d="M650 262l-68 -160l-558 318l-12 128l570 336l68 -160l-454 -236zM1190 262l-68 -160l-558 318l-12 128l570 336l68 -160l-454 -236z" />
    <glyph glyph-name="logicalnot" unicode="&#xac;" horiz-adv-x="789" 
d="M532 656l-460 -8l-6 186l628 4v-418h-170z" />
    <glyph glyph-name="sfthyphen" unicode="&#xad;" horiz-adv-x="767" 
d="M699 838l-10 -180l-612 -10l-6 186z" />
    <glyph glyph-name="registered" unicode="&#xae;" horiz-adv-x="1181" 
d="M1118 704c0 -37.333 -3.33496 -77.334 -10.002 -120.001s-18 -85.5 -34 -128.5s-37.167 -84.333 -63.5 -124s-59.166 -74.667 -98.499 -105s-85.666 -54.666 -138.999 -72.999s-115 -27.5 -185 -27.5c-72.667 0 -136 9.16699 -190 27.5s-100.5 42.666 -139.5 72.999
s-71 65.166 -96 104.499s-44.833 80.5 -59.5 123.5s-24.834 86 -30.501 129s-8.5 83.167 -8.5 120.5c0 39.333 3 81.333 9 126s16.833 88.667 32.5 132s36.834 84.833 63.501 124.5s60.5 74.5 101.5 104.5s90.167 54 147.5 72s124 27 200 27
c66 0 124.333 -9.83301 175 -29.5s94.5 -45.667 131.5 -78s67.833 -69.166 92.5 -110.499s44.5 -83.666 59.5 -126.999s25.667 -86 32 -128s9.5 -79.667 9.5 -113zM1020 699.999c0 23.333 -2.16504 51.5 -6.49805 84.5s-12.333 67.5 -24 103.5s-27.5 71.833 -47.5 107.5
s-45.5 67.5 -76.5 95.5s-68.333 50.833 -112 68.5s-94.834 26.5 -153.501 26.5c-63.333 0 -118 -8.5 -164 -25.5s-85 -39.333 -117 -67s-57.833 -59 -77.5 -94s-35 -70.5 -46 -106.5s-18.333 -71 -22 -105s-5.5 -63.333 -5.5 -88c0 -24 1.83301 -52.333 5.5 -85
s10.834 -66.5 21.501 -101.5s25.667 -69.5 45 -103.5s44.666 -64.5 75.999 -91.5s69.5 -48.833 114.5 -65.5s98.167 -25 159.5 -25c56 0 105.5 8.5 148.5 25.5s80.5 39.167 112.5 66.5s58.667 58.333 80 93s38.666 69.5 51.999 104.5s22.833 68.5 28.5 100.5
s8.5 59.333 8.5 82zM848 455.999l-3.99902 -91.998l-204 -14l-14 88h44l-76 226h-76l-4 -224l68 2l-6 -92h-214l-8 90h66l-2 512l-64 -2l-4 94c41.333 1.33301 82.833 2.33301 124.5 3s83.5 1 125.5 1c33.333 0 64.666 -4 93.999 -12s55 -19.833 77 -35.5
s39.333 -35.334 52 -59.001s19 -50.834 19 -81.501c0 -20.667 -3.33301 -41.167 -10 -61.5s-16.5 -39 -29.5 -56s-29.167 -31.5 -48.5 -43.5s-41.333 -20.333 -66 -25l82 -220zM738.001 856.001c0 33.333 -12.333 58.667 -37 76s-55 26 -91 26h-40h-25
c-8.66699 0 -17 -0.666992 -25 -2l-2 -210c5.33301 -1.33301 10 -2 14 -2h14c24.667 0 48.5 1 71.5 3s43.5 6.66699 61.5 14s32.333 18.5 43 33.5s16 35.5 16 61.5z" />
    <glyph glyph-name="macron" unicode="&#xaf;" horiz-adv-x="412" 
d="M412 1256l-412 10l10 124h392z" />
    <glyph glyph-name="degree" unicode="&#xb0;" horiz-adv-x="536" 
d="M274 942c-33.333 0 -64.666 5.83496 -93.999 17.502s-55.166 28 -77.499 49s-40 45.833 -53 74.5s-19.5 59.667 -19.5 93s6 64.666 18 93.999s28.5 55 49.5 77s46 39.333 75 52s60.167 19 93.5 19c34 0 65.667 -6 95 -18s54.666 -28.5 75.999 -49.5
s38.166 -46 50.499 -75s18.5 -60.833 18.5 -95.5c0 -33.333 -5.83301 -64.333 -17.5 -93s-28 -53.834 -49 -75.501s-45.667 -38.667 -74 -51s-58.833 -18.5 -91.5 -18.5zM264 1306c-18.667 0 -35.333 -3.66992 -50 -11.0029s-27 -17.166 -37 -29.499
s-17.667 -26.666 -23 -42.999s-8 -33.166 -8 -50.499c0 -36 11.833 -64.333 35.5 -85s53.167 -31 88.5 -31c19.333 0 36.5 3.5 51.5 10.5s27.5 16.5 37.5 28.5s17.667 26 23 42s8 33 8 51c0 37.333 -12 66.333 -36 87s-54 31 -90 31z" />
    <glyph glyph-name="plusminus" unicode="&#xb1;" horiz-adv-x="778" 
d="M708 838l-10 -180l-198 -4l4 -228l-186 -6v232l-232 -4l-6 186h236l-2 214l180 -10l4 -202zM700 298l-10 -180l-612 -10l-6 186z" />
    <glyph glyph-name="twosuperior" unicode="&#xb2;" horiz-adv-x="690" 
d="M628 1208c0 -37.333 -5.5 -69.834 -16.5 -97.501s-25.5 -52.5 -43.5 -74.5s-38.667 -41.5 -62 -58.5s-47.333 -32.833 -72 -47.5l-72 -41.5c-24 -13.667 -46.667 -29.167 -68 -46.5c-19.333 -16 -35.5 -33.167 -48.5 -51.5s-22.167 -39.166 -27.5 -62.499l268 -6l6 118
l122 -6l-8 -238l-532 6c0 55.333 6 103.166 18 143.499s27.667 75 47 104s41.5 53.833 66.5 74.5s50.5 39.334 76.5 56.001l72.5 42.5c25 14.333 48.167 30.166 69.5 47.499c19.333 16 34.5 33.667 45.5 53s16.5 43 16.5 71c0 18 -1.5 35.667 -4.5 53s-9 33 -18 47
s-21.333 25.167 -37 33.5s-35.834 12.5 -60.501 12.5c-30 0 -55.667 -5.33301 -77 -16s-39 -25 -53 -43s-24.5 -38.333 -31.5 -61s-11.167 -46 -12.5 -70l-120 -4l-16 316l134 2v-88c24 30 51.333 51.5 82 64.5s68 19.5 112 19.5c42.667 0 79.334 -7 110.001 -21
s56 -32.667 76 -56s34.667 -50.166 44 -80.499s14 -61.833 14 -94.5z" />
    <glyph glyph-name="threesuperior" unicode="&#xb3;" horiz-adv-x="678" 
d="M622 818c0 -81.333 -23.833 -141.332 -71.5 -179.999s-117.834 -58 -210.501 -58c-42.667 0 -81 6.66699 -115 20s-63 31.666 -87 54.999s-42.333 50.666 -55 81.999s-19 65 -19 101v22c0 7.33301 0.666992 16 2 26l126 -4c0 -25.333 3 -49.666 9 -72.999
s15.5 -44.166 28.5 -62.499s30.167 -33 51.5 -44s47.666 -16.5 78.999 -16.5c46 0 78.5 11 97.5 33s28.5 51.667 28.5 89c0 18.667 -4.5 37.334 -13.5 56.001s-21 35.5 -36 50.5s-32.833 27.333 -53.5 37s-42.334 14.5 -65.001 14.5h-68v106h68c24 0 46 4.16699 66 12.5
s37 19.5 51 33.5s25 30 33 48s12 36.667 12 56c0 16 -2.33301 31.5 -7 46.5s-12 28.167 -22 39.5s-22.5 20.5 -37.5 27.5s-32.833 10.5 -53.5 10.5c-31.333 0 -57.166 -6.16699 -77.499 -18.5s-37 -28.333 -50 -48s-23.167 -41.5 -30.5 -65.5s-13.333 -47.333 -18 -70
l-120 -4l-16 316l134 2v-88c11.333 14.667 22.666 27.667 33.999 39s24 20.833 38 28.5s29.833 13.334 47.5 17.001s38.5 5.5 62.5 5.5c40 0 76 -5.66699 108 -17s59 -27.333 81 -48s39 -45.167 51 -73.5s18 -59.5 18 -93.5c0 -48 -12.833 -90 -38.5 -126
s-64.167 -62.667 -115.5 -80c22.667 -9.33301 43.334 -20.833 62.001 -34.5s34.834 -29.334 48.501 -47.001s24.334 -36.834 32.001 -57.501s11.5 -42.334 11.5 -65.001z" />
    <glyph glyph-name="acute" unicode="&#xb4;" horiz-adv-x="316" 
d="M316 1344l-222 -232l-94 30l130 252z" />
    <glyph glyph-name="mu" unicode="&#xb5;" horiz-adv-x="957" 
d="M288 -18l-64.0039 -480l-170 -8l89.5 683c29.667 226 61.167 453.667 94.5 683l-102 6l40 162l258 -6l-55 -357c-18.667 -118 -35 -237 -49 -357c-1.33301 -5.33301 -2 -10.333 -2 -15v-15c0 -14 1.33301 -27.5 4 -40.5s7.33398 -24.5 14.001 -34.5
s15.334 -18 26.001 -24s24 -9 40 -9c28.667 0 54.167 8.5 76.5 25.5s41.5 38 57.5 63s28.833 52 38.5 81s16.834 55.167 21.501 78.5c13.333 73.333 24.833 147 34.5 221l29.5 221l-88 -2l10 160l270 16l-122 -854l146 -6l-26 -170l-290 -22l16 162
c-17.333 -21.333 -37.166 -42.333 -59.499 -63s-46.5 -38.667 -72.5 -54s-53 -27.333 -81 -36s-56.333 -11.667 -85 -9z" />
    <glyph glyph-name="paragraph" unicode="&#xb6;" horiz-adv-x="1218" 
d="M1139 188l-11.9971 -180.001h-362l-4 186h76v1042c-62 4 -122.667 6 -182 6l-2 -1048h68l-6 -186h-362v180l130 6l-4 390c-67.333 6 -127.5 19 -180.5 39s-98 47.667 -135 83s-65.333 79 -85 131s-29.5 113 -29.5 183c0 63.333 11.667 120.833 35 172.5
s55.166 95.834 95.499 132.501s87.333 65 141 85s111.167 30 172.5 30c71.333 0 142 -1.33301 212 -4s140.667 -4 212 -4c33.333 0 66.666 0.666992 99.999 2s66.666 2 99.999 2l16 -190l-116 -10l-10 -1042zM477.003 751.999l-4.00195 499.997
c-33.333 0 -64.5 -6.16699 -93.5 -18.5s-54.167 -29.166 -75.5 -50.499s-38.166 -46.666 -50.499 -75.999s-18.5 -61 -18.5 -95c0 -37.333 5.33301 -71.666 16 -102.999s26.334 -58.5 47.001 -81.5s46 -41.167 76 -54.5s64.333 -20.333 103 -21z" />
    <glyph glyph-name="periodcentered" unicode="&#xb7;" horiz-adv-x="370" 
d="M312 714c0 -17.333 -3.33301 -33.666 -10 -48.999s-15.834 -28.666 -27.501 -39.999s-25.334 -20.333 -41.001 -27s-32.167 -10 -49.5 -10s-33.666 3.33301 -48.999 10s-28.666 15.667 -39.999 27s-20.333 24.666 -27 39.999s-10 31.666 -10 48.999
s3.33301 33.833 10 49.5s15.667 29.334 27 41.001s24.666 20.834 39.999 27.501s31.666 10 48.999 10s33.833 -3.33301 49.5 -10s29.334 -15.834 41.001 -27.501s20.834 -25.334 27.501 -41.001s10 -32.167 10 -49.5z" />
    <glyph glyph-name="cedilla" unicode="&#xb8;" horiz-adv-x="298" 
d="M298 -208c0 -23.333 -4.50293 -44.167 -13.5029 -62.5s-21 -33.833 -36 -46.5s-32.333 -22.334 -52 -29.001s-40.5 -10 -62.5 -10c-10 0 -21.167 0.666992 -33.5 2s-24.666 3.5 -36.999 6.5s-24.166 6.83301 -35.499 11.5s-20.666 10.667 -27.999 18l48 88
c8 -6 19.167 -12.167 33.5 -18.5s27.166 -9.5 38.499 -9.5c19.333 0 34.833 3.66699 46.5 11s17.5 21 17.5 41c0 12.667 -3 23.5 -9 32.5s-13.667 16.333 -23 22s-19.5 9.83398 -30.5 12.501s-21.5 3.66699 -31.5 3h-8l36 182l110 -20l-50 -98
c18.667 0 35.334 -3.83301 50.001 -11.5s27.167 -17.834 37.5 -30.501s18.333 -27.167 24 -43.5s8.5 -33.166 8.5 -50.499z" />
    <glyph glyph-name="onesuperior" unicode="&#xb9;" horiz-adv-x="444" 
d="M404 714l-8 -118l-334 -6l-4 122h104v604l-110 -2l8 126l236 -6l-4 -722z" />
    <glyph glyph-name="ordmasculine" unicode="&#xba;" horiz-adv-x="582" 
d="M286 792c-42 0 -76.334 10.5 -103.001 31.5s-47.5 46.833 -62.5 77.5s-25.167 63.334 -30.5 98.001s-8 65.667 -8 93c0 18.667 1.33301 40.167 4 64.5s7 49.166 13 74.499s14.333 50 25 74s24.167 45.333 40.5 64s35.5 33.834 57.5 45.501s48 17.5 78 17.5
c27.333 0 51.333 -5 72 -15s38.5 -23.167 53.5 -39.5s27.667 -35 38 -56s18.5 -42.667 24.5 -65s10.167 -44.5 12.5 -66.5s3.5 -42 3.5 -60c0 -18.667 -1.33301 -40 -4 -64s-7.16699 -48.5 -13.5 -73.5s-14.833 -49.5 -25.5 -73.5s-24 -45.333 -40 -64
s-35.167 -33.834 -57.5 -45.501s-48.166 -17.5 -77.499 -17.5zM301.999 1318c-15.333 0 -28.333 -4.33301 -39 -13s-19.667 -19.834 -27 -33.501s-13.166 -29.167 -17.499 -46.5s-7.5 -34.333 -9.5 -51s-3.33301 -32.5 -4 -47.5s-1 -27.167 -1 -36.5
c0 -11.333 0.833008 -27.166 2.5 -47.499s5.16699 -40.5 10.5 -60.5s13.333 -37.333 24 -52s25 -22 43 -22c22.667 0 40.667 9 54 27s23.166 39.333 29.499 64s10.333 49.667 12 75s2.5 45.333 2.5 60c0 12 -0.666992 28.333 -2 49s-4.5 41 -9.5 61s-13 37.333 -24 52
s-25.833 22 -44.5 22zM503.999 678l-10 -140l-406 -10l-6 146z" />
    <glyph glyph-name="guillemotright" unicode="&#xbb;" horiz-adv-x="1224" 
d="M692 548l-12 -128l-558 -318l-68 160l454 226l-454 236l68 160zM1212 548l-12 -128l-558 -318l-68 160l454 226l-454 236l68 160z" />
    <glyph glyph-name="onequarter" unicode="&#xbc;" horiz-adv-x="1261" 
d="M1008 1440l-686 -1460l-112 20l676 1460zM416 714l-8 -118l-334 -6l-4 122h104l-2 604l-108 -2l8 126l234 -6l-4 -722zM1212 364l-8 -118h-116l-2 -124l100 2l-8 -118l-298 -6l-4 120h82v124l-330 -4l-4 118l298 492h172l-4 -486h122zM956 364v328l-198 -330z" />
    <glyph glyph-name="onehalf" unicode="&#xbd;" horiz-adv-x="1423" 
d="M1001 1440l-686 -1460l-112 20l676 1460zM409 714l-8 -118l-334 -6l-4 122h104l-2 604l-108 -2l8 126l234 -6l-4 -722zM1369 608c0 -37.333 -5.49902 -69.834 -16.499 -97.501s-25.667 -52.5 -44 -74.5s-39.333 -41.5 -63 -58.5s-47.834 -32.833 -72.501 -47.5
l-70.5 -41.5c-23.667 -13.667 -46.167 -29.167 -67.5 -46.5c-19.333 -16 -35.5 -33.167 -48.5 -51.5s-22.167 -39.166 -27.5 -62.499l266 -6l8 118l120 -6l-6 -238l-534 6c0 55.333 6 103.166 18 143.499s28 75 48 104s42.5 53.833 67.5 74.5s50.5 39.334 76.5 56.001
l72.5 42.5c25 14.333 48.167 30.166 69.5 47.499c19.333 16 34.5 33.667 45.5 53s16.5 43 16.5 71c0 18 -1.5 35.667 -4.5 53s-9 33 -18 47s-21.333 25.167 -37 33.5s-35.834 12.5 -60.501 12.5c-30 0 -55.667 -5.33301 -77 -16s-39 -25 -53 -43s-24.5 -38.333 -31.5 -61
s-11.167 -46 -12.5 -70l-120 -4l-16 316l134 2v-88c24 30 51.333 51.5 82 64.5s68 19.5 112 19.5c42.667 0 79.334 -7 110.001 -21s56 -32.667 76 -56s34.667 -50.166 44 -80.499s14 -61.833 14 -94.5z" />
    <glyph glyph-name="threequarters" unicode="&#xbe;" horiz-adv-x="1440" 
d="M1188 1440l-686 -1460l-114 20l678 1460zM1390 364l-8 -118h-114l-2 -124l98 2l-8 -118l-298 -6l-4 120h82v124l-328 -4l-4 118l296 492h174l-6 -486h122zM1136 364v328l-200 -330zM632 818c0 -81.333 -24.001 -141.331 -72.001 -179.998s-118.667 -58 -212 -58
c-42.667 0 -81 6.66699 -115 20s-63 31.666 -87 54.999s-42.333 50.666 -55 81.999s-19 65 -19 101c0 7.33301 0.333008 14.666 1 21.999s1.66699 16 3 26l126 -4c0 -25.333 3 -49.666 9 -72.999s15.5 -44.166 28.5 -62.499s30.167 -33 51.5 -44s47.666 -16.5 78.999 -16.5
c46 0 78.5 11 97.5 33s28.5 51.667 28.5 89c0 18.667 -4.5 37.334 -13.5 56.001s-21.167 35.5 -36.5 50.5s-33.166 27.333 -53.499 37s-41.833 14.5 -64.5 14.5h-68v106h66c24.667 0 47 4.16699 67 12.5s37 19.5 51 33.5s24.833 30 32.5 48s11.5 36.667 11.5 56
c0 16 -2.33301 31.5 -7 46.5s-12 28.167 -22 39.5s-22.333 20.5 -37 27.5s-32 10.5 -52 10.5c-31.333 0 -57.166 -6.16699 -77.499 -18.5s-37 -28.333 -50 -48s-23.167 -41.5 -30.5 -65.5s-13.333 -47.333 -18 -70l-120 -4l-16 316l134 2v-88
c11.333 14.667 22.666 27.667 33.999 39s24 20.833 38 28.5s29.667 13.334 47 17.001s37.666 5.5 60.999 5.5c40 0 76 -5.66699 108 -17s59.333 -27.333 82 -48s40 -45.167 52 -73.5s18 -59.5 18 -93.5c0 -48 -13.167 -90 -39.5 -126s-65.166 -62.667 -116.499 -80
c22.667 -9.33301 43.667 -20.833 63 -34.5s35.833 -29.334 49.5 -47.001s24.334 -36.834 32.001 -57.501s11.5 -42.334 11.5 -65.001z" />
    <glyph glyph-name="questiondown" unicode="&#xbf;" horiz-adv-x="909" 
d="M54 254c0 58 6.83301 115.166 20.5 171.499s35 108.166 64 155.499s65.5 88.166 109.5 122.499s96.667 58.5 158 72.5l30 200h116l30 -352h-98c-39.333 0 -74 -11.667 -104 -35s-55 -52.166 -75 -86.499s-35.167 -71.166 -45.5 -110.499s-15.5 -75.333 -15.5 -108
c0 -27.333 2.83301 -57.5 8.5 -90.5s15.5 -63.667 29.5 -92s32.667 -52 56 -71s52.666 -28.5 87.999 -28.5c44.667 0 82 10.667 112 32s54.5 48.5 73.5 81.5s33.667 69.333 44 109s18.5 77.5 24.5 113.5l158 6l22 -508l-176 -4l-2 164c-18 -29.333 -35.333 -54.5 -52 -75.5
s-35 -38.333 -55 -52s-42.833 -23.834 -68.5 -30.501s-56.5 -10 -92.5 -10c-63.333 0 -117.666 11.167 -162.999 33.5s-82.5 52.833 -111.5 91.5s-50.5 83.834 -64.5 135.501s-21 106.834 -21 165.501zM372 1154c0 17.333 3.33301 33.833 10 49.5s15.667 29.334 27 41.001
s24.666 20.834 39.999 27.501s31.666 10 48.999 10s33.833 -3.33301 49.5 -10s29.334 -15.834 41.001 -27.501s20.834 -25.334 27.501 -41.001s10 -32.167 10 -49.5s-3.33301 -33.666 -10 -48.999s-15.834 -28.666 -27.501 -39.999s-25.334 -20.333 -41.001 -27
s-32.167 -10 -49.5 -10s-33.666 3.33301 -48.999 10s-28.666 15.667 -39.999 27s-20.333 24.666 -27 39.999s-10 31.666 -10 48.999z" />
    <glyph glyph-name="Agrave" unicode="&#xc0;" horiz-adv-x="960" 
d="M973 162l-14 -190l-406 10l-10 194l124 -4l-52 292l-264 -12l-42 -260l116 -10l-16 -180h-406l-10 194l124 -4l218 1068l-102 -4l-10 170l510 10l-10 -160l-100 -4l226 -1100zM587 620l-108 614l-100 -614h208zM541 1512l-92 -30l-224 232l186 50z" />
    <glyph glyph-name="Aacute" unicode="&#xc1;" horiz-adv-x="960" 
d="M973 162l-14 -190l-406 10l-10 194l124 -4l-52 292l-264 -12l-42 -260l116 -10l-16 -180h-406l-10 194l124 -4l218 1068l-102 -4l-10 170l510 10l-10 -160l-100 -4l226 -1100zM587 620l-108 614l-100 -614h208zM761 1714l-222 -232l-94 30l130 252z" />
    <glyph glyph-name="Acircumflex" unicode="&#xc2;" horiz-adv-x="960" 
d="M973 162l-14 -190l-406 10l-10 194l124 -4l-52 292l-264 -12l-42 -260l116 -10l-16 -180h-406l-10 194l124 -4l218 1068l-102 -4l-10 170l510 10l-10 -160l-100 -4l226 -1100zM587 620l-108 614l-100 -614h208zM713 1532l-142 -30l-92 174l-88 -174l-140 30l162 242
l136 10z" />
    <glyph glyph-name="Atilde" unicode="&#xc3;" horiz-adv-x="960" 
d="M973 162l-14 -190l-406 10l-10 194l124 -4l-52 292l-264 -12l-42 -260l116 -10l-16 -180h-406l-10 194l124 -4l218 1068l-102 -4l-10 170l510 10l-10 -160l-100 -4l226 -1100zM587 620l-108 614l-100 -614h208zM725 1564c-9.33301 -8 -19.835 -15.999 -31.502 -23.999
s-24 -15.333 -37 -22s-26.333 -12 -40 -16s-26.834 -6 -39.501 -6c-17.333 0 -34.166 4.33301 -50.499 13s-32.166 18 -47.499 28s-30.5 19.333 -45.5 28s-29.833 13 -44.5 13c-8 0 -17.333 -3.5 -28 -10.5s-21.334 -15.333 -32.001 -25s-20.5 -19.5 -29.5 -29.5l-20.5 -23
l-40 120c8 9.33301 17.833 19.666 29.5 30.999s24.334 21.833 38.001 31.5s27.834 17.667 42.501 24s28.667 9.5 42 9.5c17.333 0 33.333 -4.16699 48 -12.5s29.167 -17.5 43.5 -27.5s29 -19.167 44 -27.5s31.833 -12.5 50.5 -12.5c20 0 40 6.5 60 19.5s36 26.5 48 40.5z
" />
    <glyph glyph-name="Adieresis" unicode="&#xc4;" horiz-adv-x="960" 
d="M973 162l-14 -190l-406 10l-10 194l124 -4l-52 292l-264 -12l-42 -260l116 -10l-16 -180h-406l-10 194l124 -4l218 1068l-102 -4l-10 170l510 10l-10 -160l-100 -4l226 -1100zM587 620l-108 614l-100 -614h208zM723 1592c0 -26 -8.83301 -47.833 -26.5 -65.5
s-39.5 -26.5 -65.5 -26.5s-47.5 9 -64.5 27s-25.5 39.667 -25.5 65c0 26 8.83301 48.167 26.5 66.5s39.5 27.5 65.5 27.5s47.5 -9.16699 64.5 -27.5s25.5 -40.5 25.5 -66.5zM443 1592c0 -29.333 -9.66895 -54.002 -29.002 -74.002s-43.666 -30 -72.999 -30
c-14 0 -27.167 2.83301 -39.5 8.5s-23 13.334 -32 23.001s-16 20.834 -21 33.501s-7.5 25.667 -7.5 39c0 29.333 10 54 30 74s44.667 30 74 30c14.667 0 28 -2.83301 40 -8.5s22.333 -13.167 31 -22.5s15.334 -20.333 20.001 -33s7 -26 7 -40z" />
    <glyph glyph-name="Aring" unicode="&#xc5;" horiz-adv-x="960" 
d="M973 162l-14 -190l-406 10l-10 194l124 -4l-52 292l-264 -12l-42 -260l116 -10l-16 -180h-406l-10 194l124 -4l218 1068l-102 -4l-10 170l510 10l-10 -160l-100 -4l226 -1100zM587 620l-108 614l-100 -614h208zM665 1650c0 -25.333 -4.50098 -49 -13.501 -71
s-21.5 -41.167 -37.5 -57.5s-34.833 -29.333 -56.5 -39s-45.167 -14.5 -70.5 -14.5s-49.166 4.66699 -71.499 14s-42 22 -59 38s-30.5 35 -40.5 57s-15 45.667 -15 71s4.66699 49.166 14 71.499s22 41.833 38 58.5s35 29.834 57 39.501s45.667 14.5 71 14.5
c26 0 50.167 -4.5 72.5 -13.5s41.833 -21.5 58.5 -37.5s29.667 -35.167 39 -57.5s14 -46.833 14 -73.5zM570.999 1658c0 26 -8.5 46.834 -25.5 62.501s-38.5 23.5 -64.5 23.5c-14 0 -26.333 -2.83301 -37 -8.5s-19.667 -13 -27 -22s-12.833 -19.333 -16.5 -31
s-5.5 -23.834 -5.5 -36.501c0 -26 8.5 -46.833 25.5 -62.5s38.5 -23.5 64.5 -23.5c28 0 49.333 9.5 64 28.5s22 42.167 22 69.5z" />
    <glyph glyph-name="AE" unicode="&#xc6;" horiz-adv-x="1416" 
d="M654 464l-266 -12l-86 -260l112 -10l-6 -180h-446l4 194l144 -4l402 1068l-100 -4v170h944l10 -388l-148 -10l-20 206l-364 -8l-4 -446h304v-144l-306 -18l-4 -446l374 14v220h148l10 -398l-814 -20l-6 184h118v292zM652 1226h-2.00098l-204 -606h208v210v131v79
c0 19.333 -0.166992 37 -0.5 53s-0.666016 33.667 -0.999023 53s-0.5 46 -0.5 80z" />
    <glyph glyph-name="Ccedilla" unicode="&#xc7;" horiz-adv-x="1033" 
d="M669 -208c0 -23.333 -4.50488 -44.1631 -13.5049 -62.4961s-21 -33.833 -36 -46.5s-32.333 -22.334 -52 -29.001s-40.5 -10 -62.5 -10c-10 0 -21.167 0.666992 -33.5 2s-24.666 3.5 -36.999 6.5s-24.166 6.83301 -35.499 11.5s-20.666 10.667 -27.999 18l48 88
c8 -6 19.167 -12.167 33.5 -18.5s27.166 -9.5 38.499 -9.5c19.333 0 34.833 3.66699 46.5 11s17.5 21 17.5 41c0 12.667 -3 23.5 -9 32.5s-13.667 16.333 -23 22s-19.5 9.83398 -30.5 12.501s-21.5 3.66699 -31.5 3h-8l24 128c-51.333 6 -97.333 22 -138 48
s-76.5 58.667 -107.5 98s-57.333 83.5 -79 132.5s-39.5 99.333 -53.5 151s-24.167 103 -30.5 154s-9.5 97.833 -9.5 140.5c0 50.667 3.16699 104 9.5 160s16.666 111.167 30.999 165.5s33.333 106.166 57 155.499s53.167 92.666 88.5 129.999s77 67.166 125 89.499
s103 33.5 165 33.5c62.667 0 115.334 -14.667 158.001 -44s80 -70 112 -122l2 164l176 -4l-22 -510l-158 6c-4 23.333 -9.16699 47.666 -15.5 72.999s-14.333 50 -24 74s-21.167 46.833 -34.5 68.5s-29 40.667 -47 57s-38.333 29.333 -61 39s-48 14.5 -76 14.5
c-42 0 -78.5 -9 -109.5 -27s-57.5 -42 -79.5 -72s-40.167 -64.167 -54.5 -102.5s-25.5 -77.5 -33.5 -117.5s-13.5 -79.5 -16.5 -118.5s-4.5 -73.833 -4.5 -104.5c0 -28.667 1.33301 -62.167 4 -100.5s7.83398 -77.833 15.501 -118.5s18.167 -80.834 31.5 -120.501
s30.5 -75 51.5 -106s46.167 -56.167 75.5 -75.5s64 -29 104 -29c48.667 0 89.5 10.667 122.5 32s59.833 48.833 80.5 82.5s35.834 71.334 45.501 113.001s16.167 83.167 19.5 124.5h158c0 -64 -7.5 -126.333 -22.5 -187s-37.833 -115.5 -68.5 -164.5
s-69.5 -89.833 -116.5 -122.5s-102.5 -52.667 -166.5 -60l-32 -64c18.667 0 35.334 -3.83301 50.001 -11.5s27.167 -17.834 37.5 -30.501s18.333 -27.167 24 -43.5s8.5 -33.166 8.5 -50.499z" />
    <glyph glyph-name="Egrave" unicode="&#xc8;" horiz-adv-x="953" 
d="M903 1038l-148 -10l-20 206l-364 -8l-4 -446h304v-144l-306 -18l-4 -446l374 14v220h148l10 -398l-814 -20l-6 184h118l-2 1054l-124 -4l10 194l818 10zM541 1512l-92 -30l-224 232l186 50z" />
    <glyph glyph-name="Eacute" unicode="&#xc9;" horiz-adv-x="953" 
d="M903 1038l-148 -10l-20 206l-364 -8l-4 -446h304v-144l-306 -18l-4 -446l374 14v220h148l10 -398l-814 -20l-6 184h118l-2 1054l-124 -4l10 194l818 10zM741 1714l-222 -232l-94 30l130 252z" />
    <glyph glyph-name="Ecircumflex" unicode="&#xca;" horiz-adv-x="953" 
d="M903 1038l-148 -10l-20 206l-364 -8l-4 -446h304v-144l-306 -18l-4 -446l374 14v220h148l10 -398l-814 -20l-6 184h118l-2 1054l-124 -4l10 194l818 10zM715 1532l-142 -30l-92 174l-88 -174l-140 30l162 242l136 10z" />
    <glyph glyph-name="Edieresis" unicode="&#xcb;" horiz-adv-x="953" 
d="M903 1038l-148 -10l-20 206l-364 -8l-4 -446h304v-144l-306 -18l-4 -446l374 14v220h148l10 -398l-814 -20l-6 184h118l-2 1054l-124 -4l10 194l818 10zM725 1592c0 -26 -8.83301 -47.833 -26.5 -65.5s-39.5 -26.5 -65.5 -26.5s-47.5 9 -64.5 27s-25.5 39.667 -25.5 65
c0 26 8.83301 48.167 26.5 66.5s39.5 27.5 65.5 27.5s47.5 -9.16699 64.5 -27.5s25.5 -40.5 25.5 -66.5zM445 1592c0 -29.333 -9.66895 -54.002 -29.002 -74.002s-43.666 -30 -72.999 -30c-14 0 -27.167 2.83301 -39.5 8.5s-23 13.334 -32 23.001s-16 20.834 -21 33.501
s-7.5 25.667 -7.5 39c0 29.333 10 54 30 74s44.667 30 74 30c14.667 0 28 -2.83301 40 -8.5s22.333 -13.167 31 -22.5s15.334 -20.333 20.001 -33s7 -26 7 -40z" />
    <glyph glyph-name="Igrave" unicode="&#xcc;" horiz-adv-x="555" 
d="M501 198l-10 -180l-412 -10l-6 186h118l-2 1022l-124 -4l10 194h396l16 -180l-116 -10l-10 -1022zM321 1492l-92 -30l-224 232l186 50z" />
    <glyph glyph-name="Iacute" unicode="&#xcd;" horiz-adv-x="555" 
d="M501 198l-10 -180l-412 -10l-6 186h118l-2 1022l-124 -4l10 194h396l16 -180l-116 -10l-10 -1022zM561 1694l-222 -232l-94 30l130 252z" />
    <glyph glyph-name="Icircumflex" unicode="&#xce;" horiz-adv-x="555" 
d="M501 198l-10 -180l-412 -10l-6 186h118l-2 1022l-124 -4l10 194h396l16 -180l-116 -10l-10 -1022zM515 1492l-142 -30l-92 174l-88 -174l-140 30l162 242l136 10z" />
    <glyph glyph-name="Idieresis" unicode="&#xcf;" horiz-adv-x="555" 
d="M501 198l-10 -180l-412 -10l-6 186h118l-2 1022l-124 -4l10 194h396l16 -180l-116 -10l-10 -1022zM525 1572c0 -26 -8.83301 -47.833 -26.5 -65.5s-39.5 -26.5 -65.5 -26.5s-47.5 9 -64.5 27s-25.5 39.667 -25.5 65c0 26 8.83301 48.167 26.5 66.5s39.5 27.5 65.5 27.5
s47.5 -9.16699 64.5 -27.5s25.5 -40.5 25.5 -66.5zM245 1572c0 -29.333 -9.66895 -54.002 -29.002 -74.002s-43.666 -30 -72.999 -30c-14 0 -27.167 2.83301 -39.5 8.5s-23 13.334 -32 23.001s-16 20.834 -21 33.501s-7.5 25.667 -7.5 39c0 29.333 10 54 30 74
s44.667 30 74 30c14.667 0 28 -2.83301 40 -8.5s22.333 -13.167 31 -22.5s15.334 -20.333 20.001 -33s7 -26 7 -40z" />
    <glyph glyph-name="Eth" unicode="&#xd0;" horiz-adv-x="1029" 
d="M190 570l-109.997 -1.99902l-6 186h116v472l-114 -4l-10 194c58.667 4 116.834 6.66699 174.501 8s116.167 2 175.5 2h114c60.667 0 113.667 -11.333 159 -34s84.166 -53 116.499 -91s58.833 -81.667 79.5 -131s37 -100.833 49 -154.5s20.333 -107.334 25 -161.001
s7 -103.834 7 -150.501c0 -58 -3.83301 -118.5 -11.5 -181.5s-21.334 -124 -41.001 -183s-46.334 -113.833 -80.001 -164.5s-76.834 -93 -129.501 -127c-32 -21.333 -66.5 -37.666 -103.5 -48.999s-74.5 -17 -112.5 -17h-6l-402 6l-6 184h118zM542.003 758.001
l-9.99902 -179.998l-166 -4l-4 -412c13.333 -1.33301 26.333 -2.33301 39 -3s25.667 -1 39 -1c35.333 0 70 2 104 6c37.333 6 69.166 20.167 95.499 42.5s48.333 49.666 66 81.999s31.5 68.166 41.5 107.499s17.667 78.833 23 118.5s8.66602 78.167 9.99902 115.5s2 70 2 98
v18c0 22.667 -1.5 50.5 -4.5 83.5s-7.83301 67.833 -14.5 104.5s-16 73 -28 109s-26.667 68.5 -44 97.5s-38.166 52.5 -62.499 70.5s-52.5 27 -84.5 27h-64h-54c-18 0 -36 -0.666992 -54 -2l-4 -480z" />
    <glyph glyph-name="Ntilde" unicode="&#xd1;" horiz-adv-x="1167" 
d="M1133 1246l-116 -10l-30 -1244l-174 -4l-450 1088l10 -882l136 4v-180l-428 -10l-6 186h118l-12 1022l-124 -4l10 194h336l424 -1062v892l-126 -4l10 194h408zM837 1564c-9.33301 -8 -19.835 -15.999 -31.502 -23.999s-24 -15.333 -37 -22s-26.333 -12 -40 -16
s-26.834 -6 -39.501 -6c-17.333 0 -34.166 4.33301 -50.499 13s-32.166 18 -47.499 28s-30.5 19.333 -45.5 28s-29.833 13 -44.5 13c-8 0 -17.333 -3.5 -28 -10.5s-21.334 -15.333 -32.001 -25s-20.5 -19.5 -29.5 -29.5l-20.5 -23l-40 120
c8 9.33301 17.833 19.666 29.5 30.999s24.334 21.833 38.001 31.5s27.834 17.667 42.501 24s28.667 9.5 42 9.5c17.333 0 33.333 -4.16699 48 -12.5s29.167 -17.5 43.5 -27.5s29 -19.167 44 -27.5s31.833 -12.5 50.5 -12.5c20 0 40 6.5 60 19.5s36 26.5 48 40.5z" />
    <glyph glyph-name="Ograve" unicode="&#xd2;" 
d="M938 778c0 -54 -1.67188 -111.665 -5.00488 -172.998s-10.5 -122 -21.5 -182s-27 -117.833 -48 -173.5s-49 -104.5 -84 -146.5s-78.167 -75.667 -129.5 -101s-112.666 -38 -183.999 -38c-56 0 -104.667 10.167 -146 30.5s-76.833 47.5 -106.5 81.5
s-54.167 73.333 -73.5 118s-34.666 91.167 -45.999 139.5s-19.166 97.166 -23.499 146.499s-6.5 95.333 -6.5 138c0 54 2 112.333 6 175s12 125 24 187s28.833 121.667 50.5 179s50.334 108 86.001 152s79.167 79.167 130.5 105.5s112.333 39.5 183 39.5
c56 0 104.833 -10.833 146.5 -32.5s77 -50.667 106 -87s52.667 -77.833 71 -124.5s32.833 -95.167 43.5 -145.5s17.834 -100.333 21.501 -150s5.5 -95.834 5.5 -138.501zM741.995 766.002c0 22.667 -0.670898 50.8359 -2.00391 84.5029s-4.33301 69 -9 106
s-11.667 74.167 -21 111.5s-22.166 70.833 -38.499 100.5s-36.666 53.667 -60.999 72s-53.833 27.5 -88.5 27.5c-44 0 -81.167 -11.833 -111.5 -35.5s-55.5 -54.834 -75.5 -93.501s-35.667 -82.167 -47 -130.5s-19.666 -97.166 -24.999 -146.499s-8.5 -96.833 -9.5 -142.5
s-1.5 -84.834 -1.5 -117.501c0 -24.667 0.666992 -52.834 2 -84.501s4.5 -64 9.5 -97s12.5 -65.333 22.5 -97s23.167 -59.834 39.5 -84.501s36.833 -44.667 61.5 -60s54.334 -23 89.001 -23c43.333 0 80 11 110 33s54.833 50.833 74.5 86.5s35 75.834 46 120.501
s19.167 89.5 24.5 134.5s8.5 88.167 9.5 129.5s1.5 76.666 1.5 105.999zM557.991 1552l-92 -30l-224 232l186 50z" />
    <glyph glyph-name="Oacute" unicode="&#xd3;" 
d="M938 778c0 -54 -1.67188 -111.665 -5.00488 -172.998s-10.5 -122 -21.5 -182s-27 -117.833 -48 -173.5s-49 -104.5 -84 -146.5s-78.167 -75.667 -129.5 -101s-112.666 -38 -183.999 -38c-56 0 -104.667 10.167 -146 30.5s-76.833 47.5 -106.5 81.5
s-54.167 73.333 -73.5 118s-34.666 91.167 -45.999 139.5s-19.166 97.166 -23.499 146.499s-6.5 95.333 -6.5 138c0 54 2 112.333 6 175s12 125 24 187s28.833 121.667 50.5 179s50.334 108 86.001 152s79.167 79.167 130.5 105.5s112.333 39.5 183 39.5
c56 0 104.833 -10.833 146.5 -32.5s77 -50.667 106 -87s52.667 -77.833 71 -124.5s32.833 -95.167 43.5 -145.5s17.834 -100.333 21.501 -150s5.5 -95.834 5.5 -138.501zM741.995 766.002c0 22.667 -0.670898 50.8359 -2.00391 84.5029s-4.33301 69 -9 106
s-11.667 74.167 -21 111.5s-22.166 70.833 -38.499 100.5s-36.666 53.667 -60.999 72s-53.833 27.5 -88.5 27.5c-44 0 -81.167 -11.833 -111.5 -35.5s-55.5 -54.834 -75.5 -93.501s-35.667 -82.167 -47 -130.5s-19.666 -97.166 -24.999 -146.499s-8.5 -96.833 -9.5 -142.5
s-1.5 -84.834 -1.5 -117.501c0 -24.667 0.666992 -52.834 2 -84.501s4.5 -64 9.5 -97s12.5 -65.333 22.5 -97s23.167 -59.834 39.5 -84.501s36.833 -44.667 61.5 -60s54.334 -23 89.001 -23c43.333 0 80 11 110 33s54.833 50.833 74.5 86.5s35 75.834 46 120.501
s19.167 89.5 24.5 134.5s8.5 88.167 9.5 129.5s1.5 76.666 1.5 105.999zM817.991 1754l-222 -232l-94 30l130 252z" />
    <glyph glyph-name="Ocircumflex" unicode="&#xd4;" 
d="M938 778c0 -54 -1.67188 -111.665 -5.00488 -172.998s-10.5 -122 -21.5 -182s-27 -117.833 -48 -173.5s-49 -104.5 -84 -146.5s-78.167 -75.667 -129.5 -101s-112.666 -38 -183.999 -38c-56 0 -104.667 10.167 -146 30.5s-76.833 47.5 -106.5 81.5
s-54.167 73.333 -73.5 118s-34.666 91.167 -45.999 139.5s-19.166 97.166 -23.499 146.499s-6.5 95.333 -6.5 138c0 54 2 112.333 6 175s12 125 24 187s28.833 121.667 50.5 179s50.334 108 86.001 152s79.167 79.167 130.5 105.5s112.333 39.5 183 39.5
c56 0 104.833 -10.833 146.5 -32.5s77 -50.667 106 -87s52.667 -77.833 71 -124.5s32.833 -95.167 43.5 -145.5s17.834 -100.333 21.501 -150s5.5 -95.834 5.5 -138.501zM741.995 766.002c0 22.667 -0.670898 50.8359 -2.00391 84.5029s-4.33301 69 -9 106
s-11.667 74.167 -21 111.5s-22.166 70.833 -38.499 100.5s-36.666 53.667 -60.999 72s-53.833 27.5 -88.5 27.5c-44 0 -81.167 -11.833 -111.5 -35.5s-55.5 -54.834 -75.5 -93.501s-35.667 -82.167 -47 -130.5s-19.666 -97.166 -24.999 -146.499s-8.5 -96.833 -9.5 -142.5
s-1.5 -84.834 -1.5 -117.501c0 -24.667 0.666992 -52.834 2 -84.501s4.5 -64 9.5 -97s12.5 -65.333 22.5 -97s23.167 -59.834 39.5 -84.501s36.833 -44.667 61.5 -60s54.334 -23 89.001 -23c43.333 0 80 11 110 33s54.833 50.833 74.5 86.5s35 75.834 46 120.501
s19.167 89.5 24.5 134.5s8.5 88.167 9.5 129.5s1.5 76.666 1.5 105.999zM751.991 1532l-142 -30l-92 174l-88 -174l-140 30l162 242l136 10z" />
    <glyph glyph-name="Otilde" unicode="&#xd5;" 
d="M938 778c0 -54 -1.67188 -111.665 -5.00488 -172.998s-10.5 -122 -21.5 -182s-27 -117.833 -48 -173.5s-49 -104.5 -84 -146.5s-78.167 -75.667 -129.5 -101s-112.666 -38 -183.999 -38c-56 0 -104.667 10.167 -146 30.5s-76.833 47.5 -106.5 81.5
s-54.167 73.333 -73.5 118s-34.666 91.167 -45.999 139.5s-19.166 97.166 -23.499 146.499s-6.5 95.333 -6.5 138c0 54 2 112.333 6 175s12 125 24 187s28.833 121.667 50.5 179s50.334 108 86.001 152s79.167 79.167 130.5 105.5s112.333 39.5 183 39.5
c56 0 104.833 -10.833 146.5 -32.5s77 -50.667 106 -87s52.667 -77.833 71 -124.5s32.833 -95.167 43.5 -145.5s17.834 -100.333 21.501 -150s5.5 -95.834 5.5 -138.501zM741.995 766.002c0 22.667 -0.670898 50.8359 -2.00391 84.5029s-4.33301 69 -9 106
s-11.667 74.167 -21 111.5s-22.166 70.833 -38.499 100.5s-36.666 53.667 -60.999 72s-53.833 27.5 -88.5 27.5c-44 0 -81.167 -11.833 -111.5 -35.5s-55.5 -54.834 -75.5 -93.501s-35.667 -82.167 -47 -130.5s-19.666 -97.166 -24.999 -146.499s-8.5 -96.833 -9.5 -142.5
s-1.5 -84.834 -1.5 -117.501c0 -24.667 0.666992 -52.834 2 -84.501s4.5 -64 9.5 -97s12.5 -65.333 22.5 -97s23.167 -59.834 39.5 -84.501s36.833 -44.667 61.5 -60s54.334 -23 89.001 -23c43.333 0 80 11 110 33s54.833 50.833 74.5 86.5s35 75.834 46 120.501
s19.167 89.5 24.5 134.5s8.5 88.167 9.5 129.5s1.5 76.666 1.5 105.999zM743.991 1584c-9.33301 -8 -19.835 -15.999 -31.502 -23.999s-24 -15.333 -37 -22s-26.333 -12 -40 -16s-26.834 -6 -39.501 -6c-17.333 0 -34.166 4.33301 -50.499 13s-32.166 18 -47.499 28
s-30.5 19.333 -45.5 28s-29.833 13 -44.5 13c-8 0 -17.333 -3.5 -28 -10.5s-21.334 -15.333 -32.001 -25s-20.5 -19.5 -29.5 -29.5l-20.5 -23l-40 120c8 9.33301 17.833 19.666 29.5 30.999s24.334 21.833 38.001 31.5s27.834 17.667 42.501 24s28.667 9.5 42 9.5
c17.333 0 33.333 -4.16699 48 -12.5s29.167 -17.5 43.5 -27.5s29 -19.167 44 -27.5s31.833 -12.5 50.5 -12.5c20 0 40 6.5 60 19.5s36 26.5 48 40.5z" />
    <glyph glyph-name="Odieresis" unicode="&#xd6;" 
d="M938 778c0 -54 -1.67188 -111.665 -5.00488 -172.998s-10.5 -122 -21.5 -182s-27 -117.833 -48 -173.5s-49 -104.5 -84 -146.5s-78.167 -75.667 -129.5 -101s-112.666 -38 -183.999 -38c-56 0 -104.667 10.167 -146 30.5s-76.833 47.5 -106.5 81.5
s-54.167 73.333 -73.5 118s-34.666 91.167 -45.999 139.5s-19.166 97.166 -23.499 146.499s-6.5 95.333 -6.5 138c0 54 2 112.333 6 175s12 125 24 187s28.833 121.667 50.5 179s50.334 108 86.001 152s79.167 79.167 130.5 105.5s112.333 39.5 183 39.5
c56 0 104.833 -10.833 146.5 -32.5s77 -50.667 106 -87s52.667 -77.833 71 -124.5s32.833 -95.167 43.5 -145.5s17.834 -100.333 21.501 -150s5.5 -95.834 5.5 -138.501zM741.995 766.002c0 22.667 -0.670898 50.8359 -2.00391 84.5029s-4.33301 69 -9 106
s-11.667 74.167 -21 111.5s-22.166 70.833 -38.499 100.5s-36.666 53.667 -60.999 72s-53.833 27.5 -88.5 27.5c-44 0 -81.167 -11.833 -111.5 -35.5s-55.5 -54.834 -75.5 -93.501s-35.667 -82.167 -47 -130.5s-19.666 -97.166 -24.999 -146.499s-8.5 -96.833 -9.5 -142.5
s-1.5 -84.834 -1.5 -117.501c0 -24.667 0.666992 -52.834 2 -84.501s4.5 -64 9.5 -97s12.5 -65.333 22.5 -97s23.167 -59.834 39.5 -84.501s36.833 -44.667 61.5 -60s54.334 -23 89.001 -23c43.333 0 80 11 110 33s54.833 50.833 74.5 86.5s35 75.834 46 120.501
s19.167 89.5 24.5 134.5s8.5 88.167 9.5 129.5s1.5 76.666 1.5 105.999zM741.991 1592c0 -26 -8.83301 -47.833 -26.5 -65.5s-39.5 -26.5 -65.5 -26.5s-47.5 9 -64.5 27s-25.5 39.667 -25.5 65c0 26 8.83301 48.167 26.5 66.5s39.5 27.5 65.5 27.5s47.5 -9.16699 64.5 -27.5
s25.5 -40.5 25.5 -66.5zM461.991 1592c0 -29.333 -9.66895 -54.002 -29.002 -74.002s-43.666 -30 -72.999 -30c-14 0 -27.167 2.83301 -39.5 8.5s-23 13.334 -32 23.001s-16 20.834 -21 33.501s-7.5 25.667 -7.5 39c0 29.333 10 54 30 74s44.667 30 74 30
c14.667 0 28 -2.83301 40 -8.5s22.333 -13.167 31 -22.5s15.334 -20.333 20.001 -33s7 -26 7 -40z" />
    <glyph glyph-name="multiply" unicode="&#xd7;" horiz-adv-x="693" 
d="M636 606l-134 -120l-142 138l-160 -166l-134 128l162 164l-166 162l128 134l166 -164l150 152l122 -134l-142 -146z" />
    <glyph glyph-name="Oslash" unicode="&#xd8;" 
d="M270 392l353.999 838.001c-14 12 -29.167 21.333 -45.5 28s-35.166 10 -56.499 10c-44 0 -81.167 -11.833 -111.5 -35.5s-55.5 -54.834 -75.5 -93.501s-35.667 -82.167 -47 -130.5s-19.666 -97.166 -24.999 -146.499s-8.5 -96.833 -9.5 -142.5
s-1.5 -84.834 -1.5 -117.501c0 -28 1.16699 -60.5 3.5 -97.5s7.16602 -74.5 14.499 -112.5zM719.999 1026l-364 -822.001c15.333 -15.333 32.833 -27.166 52.5 -35.499s42.167 -12.5 67.5 -12.5c43.333 0 80 11 110 33s54.833 50.833 74.5 86.5s35 75.834 46 120.501
s19.167 89.5 24.5 134.5s8.5 88.167 9.5 129.5s1.5 76.666 1.5 105.999c0 14.667 -0.166992 32 -0.5 52s-1.33301 41.333 -3 64s-4 46.167 -7 70.5s-6.83301 48.833 -11.5 73.5zM903.999 1440l-70.0039 -158c20.667 -36.667 37.834 -76.5 51.501 -119.5
s24.334 -86.667 32.001 -131s13 -88.333 16 -132s4.5 -84.167 4.5 -121.5c0 -54 -1.66699 -111.667 -5 -173s-10.5 -122 -21.5 -182s-27 -117.833 -48 -173.5s-49 -104.5 -84 -146.5s-78.167 -75.667 -129.5 -101s-112.666 -38 -183.999 -38c-38 0 -73 5 -105 15
s-61 23.667 -87 41l-18 -40l-152 20l60 144c-19.333 34.667 -35.5 72 -48.5 112s-23.333 80.667 -31 122s-13 82.5 -16 123.5s-4.5 79.833 -4.5 116.5c0 54 2 112.333 6 175s12 125 24 187s28.833 121.667 50.5 179s50.334 108 86.001 152s79.167 79.167 130.5 105.5
s112.333 39.5 183 39.5c31.333 0 60 -3.33301 86 -10s50 -16 72 -28l18 42z" />
    <glyph glyph-name="Ugrave" unicode="&#xd9;" horiz-adv-x="1104" 
d="M1069 1266l-113.999 -9.99707v-534c-0.666992 -50 -2.5 -103.5 -5.5 -160.5s-9.5 -113.5 -19.5 -169.5s-24.333 -109.833 -43 -161.5s-43.834 -97.167 -75.501 -136.5s-70.667 -70.833 -117 -94.5s-102.166 -35.5 -167.499 -35.5c-56 0 -104.333 10.667 -145 32
s-75.167 49.833 -103.5 85.5s-51.166 76.667 -68.499 123s-30.833 94.333 -40.5 144s-16.167 99.167 -19.5 148.5s-5 95 -5 137c0 98.667 2.16699 197.167 6.5 295.5s8.16602 197.166 11.499 296.499l-124 -4l10 194h396l16 -180l-116 -10
c-3.33301 -102.667 -7.5 -205 -12.5 -307s-7.5 -204.333 -7.5 -307c0 -24.667 0.333008 -52.834 1 -84.501s3 -64.5 7 -98.5s10.333 -67.333 19 -100s20.834 -61.834 36.501 -87.501s35.5 -46.334 59.5 -62.001s53.667 -23.5 89 -23.5c40 0 73.667 10 101 30
s49.666 46.333 66.999 79s30.666 69.667 39.999 111s16 83 20 125s6.33301 82.833 7 122.5s1 73.834 1 102.501v530l-124 -4l10 194h396zM611.001 1512l-92 -30l-224 232l186 50z" />
    <glyph glyph-name="Uacute" unicode="&#xda;" horiz-adv-x="1104" 
d="M1069 1266l-113.999 -9.99707v-534c-0.666992 -50 -2.5 -103.5 -5.5 -160.5s-9.5 -113.5 -19.5 -169.5s-24.333 -109.833 -43 -161.5s-43.834 -97.167 -75.501 -136.5s-70.667 -70.833 -117 -94.5s-102.166 -35.5 -167.499 -35.5c-56 0 -104.333 10.667 -145 32
s-75.167 49.833 -103.5 85.5s-51.166 76.667 -68.499 123s-30.833 94.333 -40.5 144s-16.167 99.167 -19.5 148.5s-5 95 -5 137c0 98.667 2.16699 197.167 6.5 295.5s8.16602 197.166 11.499 296.499l-124 -4l10 194h396l16 -180l-116 -10
c-3.33301 -102.667 -7.5 -205 -12.5 -307s-7.5 -204.333 -7.5 -307c0 -24.667 0.333008 -52.834 1 -84.501s3 -64.5 7 -98.5s10.333 -67.333 19 -100s20.834 -61.834 36.501 -87.501s35.5 -46.334 59.5 -62.001s53.667 -23.5 89 -23.5c40 0 73.667 10 101 30
s49.666 46.333 66.999 79s30.666 69.667 39.999 111s16 83 20 125s6.33301 82.833 7 122.5s1 73.834 1 102.501v530l-124 -4l10 194h396zM811.001 1694l-222 -232l-94 30l130 252z" />
    <glyph glyph-name="Ucircumflex" unicode="&#xdb;" horiz-adv-x="1104" 
d="M1069 1266l-113.999 -9.99707v-534c-0.666992 -50 -2.5 -103.5 -5.5 -160.5s-9.5 -113.5 -19.5 -169.5s-24.333 -109.833 -43 -161.5s-43.834 -97.167 -75.501 -136.5s-70.667 -70.833 -117 -94.5s-102.166 -35.5 -167.499 -35.5c-56 0 -104.333 10.667 -145 32
s-75.167 49.833 -103.5 85.5s-51.166 76.667 -68.499 123s-30.833 94.333 -40.5 144s-16.167 99.167 -19.5 148.5s-5 95 -5 137c0 98.667 2.16699 197.167 6.5 295.5s8.16602 197.166 11.499 296.499l-124 -4l10 194h396l16 -180l-116 -10
c-3.33301 -102.667 -7.5 -205 -12.5 -307s-7.5 -204.333 -7.5 -307c0 -24.667 0.333008 -52.834 1 -84.501s3 -64.5 7 -98.5s10.333 -67.333 19 -100s20.834 -61.834 36.501 -87.501s35.5 -46.334 59.5 -62.001s53.667 -23.5 89 -23.5c40 0 73.667 10 101 30
s49.666 46.333 66.999 79s30.666 69.667 39.999 111s16 83 20 125s6.33301 82.833 7 122.5s1 73.834 1 102.501v530l-124 -4l10 194h396zM785.001 1532l-142 -30l-92 174l-88 -174l-140 30l162 242l136 10z" />
    <glyph glyph-name="Udieresis" unicode="&#xdc;" horiz-adv-x="1104" 
d="M1069 1266l-113.999 -9.99707v-534c-0.666992 -50 -2.5 -103.5 -5.5 -160.5s-9.5 -113.5 -19.5 -169.5s-24.333 -109.833 -43 -161.5s-43.834 -97.167 -75.501 -136.5s-70.667 -70.833 -117 -94.5s-102.166 -35.5 -167.499 -35.5c-56 0 -104.333 10.667 -145 32
s-75.167 49.833 -103.5 85.5s-51.166 76.667 -68.499 123s-30.833 94.333 -40.5 144s-16.167 99.167 -19.5 148.5s-5 95 -5 137c0 98.667 2.16699 197.167 6.5 295.5s8.16602 197.166 11.499 296.499l-124 -4l10 194h396l16 -180l-116 -10
c-3.33301 -102.667 -7.5 -205 -12.5 -307s-7.5 -204.333 -7.5 -307c0 -24.667 0.333008 -52.834 1 -84.501s3 -64.5 7 -98.5s10.333 -67.333 19 -100s20.834 -61.834 36.501 -87.501s35.5 -46.334 59.5 -62.001s53.667 -23.5 89 -23.5c40 0 73.667 10 101 30
s49.666 46.333 66.999 79s30.666 69.667 39.999 111s16 83 20 125s6.33301 82.833 7 122.5s1 73.834 1 102.501v530l-124 -4l10 194h396zM795.001 1592c0 -26 -8.83301 -47.833 -26.5 -65.5s-39.5 -26.5 -65.5 -26.5s-47.5 9 -64.5 27s-25.5 39.667 -25.5 65
c0 26 8.83301 48.167 26.5 66.5s39.5 27.5 65.5 27.5s47.5 -9.16699 64.5 -27.5s25.5 -40.5 25.5 -66.5zM515.001 1592c0 -29.333 -9.66895 -54.002 -29.002 -74.002s-43.666 -30 -72.999 -30c-14 0 -27.167 2.83301 -39.5 8.5s-23 13.334 -32 23.001s-16 20.834 -21 33.501
s-7.5 25.667 -7.5 39c0 29.333 10 54 30 74s44.667 30 74 30c14.667 0 28 -2.83301 40 -8.5s22.333 -13.167 31 -22.5s15.334 -20.333 20.001 -33s7 -26 7 -40z" />
    <glyph glyph-name="Yacute" unicode="&#xdd;" horiz-adv-x="958" 
d="M970 1236l-124 -10l-288 -702l-4 -330l140 4l-10 -180l-412 -10l-6 186h118l-2 334l-268 698l-124 -4l10 194h406l16 -180l-116 -10l170 -540l188 540l-124 -4l10 194l406 10zM738 1714l-222 -232l-94 30l130 252z" />
    <glyph glyph-name="Thorn" unicode="&#xde;" horiz-adv-x="973" 
d="M945 720c0 -82.667 -13.332 -152 -39.999 -208s-63.5 -101 -110.5 -135s-102.333 -58.5 -166 -73.5s-132.834 -22.833 -207.501 -23.5h-56l-4 -86l140 4l-10 -180l-412 -10l-6 186h118l-2 1048l-114 -4l-10 194l406 8l2 -180l-110 -10l2 -110h144
c60.667 0 117.667 -10.167 171 -30.5s99.5 -49 138.5 -86s69.833 -81.167 92.5 -132.5s34 -108.333 34 -171zM761.001 712c0 34 -6.16895 65.6689 -18.502 95.002s-29.166 54.666 -50.499 75.999s-46.666 38.166 -75.999 50.499s-61 18.5 -95 18.5h-64h-86l-6 -502h50
c46 0 89.833 2.83301 131.5 8.5s78.5 17.5 110.5 35.5s57.333 44.333 76 79s28 81 28 139z" />
    <glyph glyph-name="germandbls" unicode="&#xdf;" horiz-adv-x="1072" 
d="M775 1172c0 16.667 -4.66699 33.1641 -14 49.4971s-21.666 31 -36.999 44s-32.833 23.333 -52.5 31s-39.834 11.5 -60.501 11.5c-52 0 -93.833 -5.66699 -125.5 -17s-56.334 -28.5 -74.001 -51.5s-29.834 -52.5 -36.501 -88.5s-10.667 -78.333 -12 -127
c-3.33301 -56.667 -4.16602 -113.334 -2.49902 -170.001s1.83398 -113.334 0.500977 -170.001v-680h-308v176l132 4v664h-146l4 176h140c0.666992 72.667 7.5 137.834 20.5 195.501s35.167 106.334 66.5 146.001s73.166 70 125.499 91s118.166 31.5 197.499 31.5
c46.667 0 91.334 -6.83301 134.001 -20.5s80.167 -33.667 112.5 -60s58 -58.833 77 -97.5s28.5 -83.334 28.5 -134.001c0 -52 -6.83301 -93.5 -20.5 -124.5s-30.667 -56 -51 -75s-42.5 -34.333 -66.5 -46s-46.167 -23.667 -66.5 -36s-37.333 -27.666 -51 -45.999
s-20.5 -43.833 -20.5 -76.5c0 -29.333 6.16699 -55.333 18.5 -78s28.166 -43 47.499 -61s40.833 -34 64.5 -48s46.834 -27 69.501 -39c34 -19.333 62.833 -39.166 86.5 -59.499s43 -42.833 58 -67.5s26 -52.334 33 -83.001s10.5 -65.334 10.5 -104.001
c0 -37.333 -7.16699 -71.5 -21.5 -102.5s-33.833 -58 -58.5 -81s-53.167 -40.833 -85.5 -53.5s-66.5 -19 -102.5 -19c-33.333 0 -63.666 9 -90.999 27s-51 39 -71 63l-22 -86l-126 10l10 332l192 -2c-1.33301 -8 -2.33301 -16.333 -3 -25s-1 -17 -1 -25
c0 -16 2 -31.5 6 -46.5s10 -28.5 18 -40.5s18.5 -21.5 31.5 -28.5s28.5 -10.5 46.5 -10.5c12.667 0 24.5 3.16699 35.5 9.5s20.333 14.5 28 24.5s13.667 21 18 33s6.5 23.667 6.5 35c0 28.667 -6.66699 54.334 -20 77.001s-30 42.834 -50 60.501s-42 33.5 -66 47.5l-68 39
c-35.333 19.333 -64.833 39.166 -88.5 59.499s-42.5 42.833 -56.5 67.5s-24 52.334 -30 83.001s-9 66 -9 106c0 42.667 7.33301 77.5 22 104.5s33 49.833 55 68.5s45.667 34.334 71 47.001s49 26.334 71 41.001s40.333 31.5 55 50.5s22 43.833 22 74.5z" />
    <glyph glyph-name="agrave" unicode="&#xe0;" horiz-adv-x="766" 
d="M740 170l-3.99902 -159.996l-206 -20l-10 116c-14 -15.333 -30.167 -29.833 -48.5 -43.5s-38 -26 -59 -37s-42.667 -19.667 -65 -26s-44.166 -9.5 -65.499 -9.5c-41.333 0 -76.166 8.16699 -104.499 24.5s-51 38 -68 65s-29.167 57.833 -36.5 92.5s-11 70 -11 106
c0 45.333 7.5 86.666 22.5 123.999s36 69.166 63 95.499s59.5 46.666 97.5 60.999s79.667 21.5 125 21.5c18 0 35.833 -1.16699 53.5 -3.5s35.167 -6.5 52.5 -12.5c1.33301 11.333 2 22 2 32v32c0 6 -0.333008 15.833 -1 29.5s-1.83398 29 -3.50098 46
s-4.16699 34.667 -7.5 53s-7.83301 35 -13.5 50s-12.334 27.333 -20.001 37s-17.167 14.5 -28.5 14.5c-12.667 0 -25 -4.33301 -37 -13s-23.333 -19.834 -34 -33.501s-20.5 -29 -29.5 -46s-17.167 -33.833 -24.5 -50.5s-13.666 -32.167 -18.999 -46.5
s-9.33301 -25.833 -12 -34.5l-170 8l-6 372l166 4v-146c6.66699 17.333 15.667 35.333 27 54s24.5 35.5 39.5 50.5s31.667 27.333 50 37s38.166 14.5 59.499 14.5c50.667 0 91.5 -7.66699 122.5 -23s54.667 -36.833 71 -64.5s27.166 -61 32.499 -100s8 -81.833 8 -128.5
c0 -90.667 -0.666992 -181 -2 -271s-6 -180.333 -14 -271h108zM482.001 238.004l-0.00292969 146c-9.33301 13.333 -23.166 22 -41.499 26s-35.166 6 -50.499 6c-48 0 -87 -11.833 -117 -35.5s-45 -61.167 -45 -112.5c0 -31.333 8.33301 -57.833 25 -79.5
s41.667 -32.5 75 -32.5c10.667 0 24.834 1.5 42.501 4.5s34.667 7.83301 51 14.5s30.5 15.167 42.5 25.5s18 22.833 18 37.5zM457.998 1142l-92 -30l-224 232l186 50z" />
    <glyph glyph-name="aacute" unicode="&#xe1;" horiz-adv-x="766" 
d="M740 170l-3.99902 -159.996l-206 -20l-10 116c-14 -15.333 -30.167 -29.833 -48.5 -43.5s-38 -26 -59 -37s-42.667 -19.667 -65 -26s-44.166 -9.5 -65.499 -9.5c-41.333 0 -76.166 8.16699 -104.499 24.5s-51 38 -68 65s-29.167 57.833 -36.5 92.5s-11 70 -11 106
c0 45.333 7.5 86.666 22.5 123.999s36 69.166 63 95.499s59.5 46.666 97.5 60.999s79.667 21.5 125 21.5c18 0 35.833 -1.16699 53.5 -3.5s35.167 -6.5 52.5 -12.5c1.33301 11.333 2 22 2 32v32c0 6 -0.333008 15.833 -1 29.5s-1.83398 29 -3.50098 46
s-4.16699 34.667 -7.5 53s-7.83301 35 -13.5 50s-12.334 27.333 -20.001 37s-17.167 14.5 -28.5 14.5c-12.667 0 -25 -4.33301 -37 -13s-23.333 -19.834 -34 -33.501s-20.5 -29 -29.5 -46s-17.167 -33.833 -24.5 -50.5s-13.666 -32.167 -18.999 -46.5
s-9.33301 -25.833 -12 -34.5l-170 8l-6 372l166 4v-146c6.66699 17.333 15.667 35.333 27 54s24.5 35.5 39.5 50.5s31.667 27.333 50 37s38.166 14.5 59.499 14.5c50.667 0 91.5 -7.66699 122.5 -23s54.667 -36.833 71 -64.5s27.166 -61 32.499 -100s8 -81.833 8 -128.5
c0 -90.667 -0.666992 -181 -2 -271s-6 -180.333 -14 -271h108zM482.001 238.004l-0.00292969 146c-9.33301 13.333 -23.166 22 -41.499 26s-35.166 6 -50.499 6c-48 0 -87 -11.833 -117 -35.5s-45 -61.167 -45 -112.5c0 -31.333 8.33301 -57.833 25 -79.5
s41.667 -32.5 75 -32.5c10.667 0 24.834 1.5 42.501 4.5s34.667 7.83301 51 14.5s30.5 15.167 42.5 25.5s18 22.833 18 37.5zM657.998 1344l-222 -232l-94 30l130 252z" />
    <glyph glyph-name="acircumflex" unicode="&#xe2;" horiz-adv-x="766" 
d="M740 170l-3.99902 -159.996l-206 -20l-10 116c-14 -15.333 -30.167 -29.833 -48.5 -43.5s-38 -26 -59 -37s-42.667 -19.667 -65 -26s-44.166 -9.5 -65.499 -9.5c-41.333 0 -76.166 8.16699 -104.499 24.5s-51 38 -68 65s-29.167 57.833 -36.5 92.5s-11 70 -11 106
c0 45.333 7.5 86.666 22.5 123.999s36 69.166 63 95.499s59.5 46.666 97.5 60.999s79.667 21.5 125 21.5c18 0 35.833 -1.16699 53.5 -3.5s35.167 -6.5 52.5 -12.5c1.33301 11.333 2 22 2 32v32c0 6 -0.333008 15.833 -1 29.5s-1.83398 29 -3.50098 46
s-4.16699 34.667 -7.5 53s-7.83301 35 -13.5 50s-12.334 27.333 -20.001 37s-17.167 14.5 -28.5 14.5c-12.667 0 -25 -4.33301 -37 -13s-23.333 -19.834 -34 -33.501s-20.5 -29 -29.5 -46s-17.167 -33.833 -24.5 -50.5s-13.666 -32.167 -18.999 -46.5
s-9.33301 -25.833 -12 -34.5l-170 8l-6 372l166 4v-146c6.66699 17.333 15.667 35.333 27 54s24.5 35.5 39.5 50.5s31.667 27.333 50 37s38.166 14.5 59.499 14.5c50.667 0 91.5 -7.66699 122.5 -23s54.667 -36.833 71 -64.5s27.166 -61 32.499 -100s8 -81.833 8 -128.5
c0 -90.667 -0.666992 -181 -2 -271s-6 -180.333 -14 -271h108zM482.001 238.004l-0.00292969 146c-9.33301 13.333 -23.166 22 -41.499 26s-35.166 6 -50.499 6c-48 0 -87 -11.833 -117 -35.5s-45 -61.167 -45 -112.5c0 -31.333 8.33301 -57.833 25 -79.5
s41.667 -32.5 75 -32.5c10.667 0 24.834 1.5 42.501 4.5s34.667 7.83301 51 14.5s30.5 15.167 42.5 25.5s18 22.833 18 37.5zM631.998 1123l-142 -30l-92 174l-88 -174l-140 30l162 242l136 10z" />
    <glyph glyph-name="atilde" unicode="&#xe3;" horiz-adv-x="766" 
d="M740 170l-3.99902 -159.996l-206 -20l-10 116c-14 -15.333 -30.167 -29.833 -48.5 -43.5s-38 -26 -59 -37s-42.667 -19.667 -65 -26s-44.166 -9.5 -65.499 -9.5c-41.333 0 -76.166 8.16699 -104.499 24.5s-51 38 -68 65s-29.167 57.833 -36.5 92.5s-11 70 -11 106
c0 45.333 7.5 86.666 22.5 123.999s36 69.166 63 95.499s59.5 46.666 97.5 60.999s79.667 21.5 125 21.5c18 0 35.833 -1.16699 53.5 -3.5s35.167 -6.5 52.5 -12.5c1.33301 11.333 2 22 2 32v32c0 6 -0.333008 15.833 -1 29.5s-1.83398 29 -3.50098 46
s-4.16699 34.667 -7.5 53s-7.83301 35 -13.5 50s-12.334 27.333 -20.001 37s-17.167 14.5 -28.5 14.5c-12.667 0 -25 -4.33301 -37 -13s-23.333 -19.834 -34 -33.501s-20.5 -29 -29.5 -46s-17.167 -33.833 -24.5 -50.5s-13.666 -32.167 -18.999 -46.5
s-9.33301 -25.833 -12 -34.5l-170 8l-6 372l166 4v-146c6.66699 17.333 15.667 35.333 27 54s24.5 35.5 39.5 50.5s31.667 27.333 50 37s38.166 14.5 59.499 14.5c50.667 0 91.5 -7.66699 122.5 -23s54.667 -36.833 71 -64.5s27.166 -61 32.499 -100s8 -81.833 8 -128.5
c0 -90.667 -0.666992 -181 -2 -271s-6 -180.333 -14 -271h108zM482.001 238.004l-0.00292969 146c-9.33301 13.333 -23.166 22 -41.499 26s-35.166 6 -50.499 6c-48 0 -87 -11.833 -117 -35.5s-45 -61.167 -45 -112.5c0 -31.333 8.33301 -57.833 25 -79.5
s41.667 -32.5 75 -32.5c10.667 0 24.834 1.5 42.501 4.5s34.667 7.83301 51 14.5s30.5 15.167 42.5 25.5s18 22.833 18 37.5zM643.998 1175c-9.33301 -8 -19.835 -15.999 -31.502 -23.999s-24 -15.333 -37 -22s-26.333 -12 -40 -16s-26.834 -6 -39.501 -6
c-17.333 0 -34.166 4.33301 -50.499 13s-32.166 18 -47.499 28s-30.5 19.333 -45.5 28s-29.833 13 -44.5 13c-8 0 -17.333 -3.5 -28 -10.5s-21.334 -15.333 -32.001 -25s-20.5 -19.5 -29.5 -29.5l-20.5 -23l-40 120c8 9.33301 17.833 19.666 29.5 30.999
s24.334 21.833 38.001 31.5s27.834 17.667 42.501 24s28.667 9.5 42 9.5c17.333 0 33.333 -4.16699 48 -12.5s29.167 -17.5 43.5 -27.5s29 -19.167 44 -27.5s31.833 -12.5 50.5 -12.5c20 0 40 6.5 60 19.5s36 26.5 48 40.5z" />
    <glyph glyph-name="adieresis" unicode="&#xe4;" horiz-adv-x="766" 
d="M740 170l-3.99902 -159.996l-206 -20l-10 116c-14 -15.333 -30.167 -29.833 -48.5 -43.5s-38 -26 -59 -37s-42.667 -19.667 -65 -26s-44.166 -9.5 -65.499 -9.5c-41.333 0 -76.166 8.16699 -104.499 24.5s-51 38 -68 65s-29.167 57.833 -36.5 92.5s-11 70 -11 106
c0 45.333 7.5 86.666 22.5 123.999s36 69.166 63 95.499s59.5 46.666 97.5 60.999s79.667 21.5 125 21.5c18 0 35.833 -1.16699 53.5 -3.5s35.167 -6.5 52.5 -12.5c1.33301 11.333 2 22 2 32v32c0 6 -0.333008 15.833 -1 29.5s-1.83398 29 -3.50098 46
s-4.16699 34.667 -7.5 53s-7.83301 35 -13.5 50s-12.334 27.333 -20.001 37s-17.167 14.5 -28.5 14.5c-12.667 0 -25 -4.33301 -37 -13s-23.333 -19.834 -34 -33.501s-20.5 -29 -29.5 -46s-17.167 -33.833 -24.5 -50.5s-13.666 -32.167 -18.999 -46.5
s-9.33301 -25.833 -12 -34.5l-170 8l-6 372l166 4v-146c6.66699 17.333 15.667 35.333 27 54s24.5 35.5 39.5 50.5s31.667 27.333 50 37s38.166 14.5 59.499 14.5c50.667 0 91.5 -7.66699 122.5 -23s54.667 -36.833 71 -64.5s27.166 -61 32.499 -100s8 -81.833 8 -128.5
c0 -90.667 -0.666992 -181 -2 -271s-6 -180.333 -14 -271h108zM482.001 238.004l-0.00292969 146c-9.33301 13.333 -23.166 22 -41.499 26s-35.166 6 -50.499 6c-48 0 -87 -11.833 -117 -35.5s-45 -61.167 -45 -112.5c0 -31.333 8.33301 -57.833 25 -79.5
s41.667 -32.5 75 -32.5c10.667 0 24.834 1.5 42.501 4.5s34.667 7.83301 51 14.5s30.5 15.167 42.5 25.5s18 22.833 18 37.5zM621.998 1203c0 -26 -8.83301 -47.833 -26.5 -65.5s-39.5 -26.5 -65.5 -26.5s-47.5 9 -64.5 27s-25.5 39.667 -25.5 65
c0 26 8.83301 48.167 26.5 66.5s39.5 27.5 65.5 27.5s47.5 -9.16699 64.5 -27.5s25.5 -40.5 25.5 -66.5zM341.998 1203c0 -29.333 -9.66895 -54.002 -29.002 -74.002s-43.666 -30 -72.999 -30c-14 0 -27.167 2.83301 -39.5 8.5s-23 13.334 -32 23.001s-16 20.834 -21 33.501
s-7.5 25.667 -7.5 39c0 29.333 10 54 30 74s44.667 30 74 30c14.667 0 28 -2.83301 40 -8.5s22.333 -13.167 31 -22.5s15.334 -20.333 20.001 -33s7 -26 7 -40z" />
    <glyph glyph-name="aring" unicode="&#xe5;" horiz-adv-x="766" 
d="M740 170l-3.99902 -159.996l-206 -20l-10 116c-14 -15.333 -30.167 -29.833 -48.5 -43.5s-38 -26 -59 -37s-42.667 -19.667 -65 -26s-44.166 -9.5 -65.499 -9.5c-41.333 0 -76.166 8.16699 -104.499 24.5s-51 38 -68 65s-29.167 57.833 -36.5 92.5s-11 70 -11 106
c0 45.333 7.5 86.666 22.5 123.999s36 69.166 63 95.499s59.5 46.666 97.5 60.999s79.667 21.5 125 21.5c18 0 35.833 -1.16699 53.5 -3.5s35.167 -6.5 52.5 -12.5c1.33301 11.333 2 22 2 32v32c0 6 -0.333008 15.833 -1 29.5s-1.83398 29 -3.50098 46
s-4.16699 34.667 -7.5 53s-7.83301 35 -13.5 50s-12.334 27.333 -20.001 37s-17.167 14.5 -28.5 14.5c-12.667 0 -25 -4.33301 -37 -13s-23.333 -19.834 -34 -33.501s-20.5 -29 -29.5 -46s-17.167 -33.833 -24.5 -50.5s-13.666 -32.167 -18.999 -46.5
s-9.33301 -25.833 -12 -34.5l-170 8l-6 372l166 4v-146c6.66699 17.333 15.667 35.333 27 54s24.5 35.5 39.5 50.5s31.667 27.333 50 37s38.166 14.5 59.499 14.5c50.667 0 91.5 -7.66699 122.5 -23s54.667 -36.833 71 -64.5s27.166 -61 32.499 -100s8 -81.833 8 -128.5
c0 -90.667 -0.666992 -181 -2 -271s-6 -180.333 -14 -271h108zM482.001 238.004l-0.00292969 146c-9.33301 13.333 -23.166 22 -41.499 26s-35.166 6 -50.499 6c-48 0 -87 -11.833 -117 -35.5s-45 -61.167 -45 -112.5c0 -31.333 8.33301 -57.833 25 -79.5
s41.667 -32.5 75 -32.5c10.667 0 24.834 1.5 42.501 4.5s34.667 7.83301 51 14.5s30.5 15.167 42.5 25.5s18 22.833 18 37.5zM581.998 1261c0 -25.333 -4.50098 -49 -13.501 -71s-21.5 -41.167 -37.5 -57.5s-34.833 -29.333 -56.5 -39s-45.167 -14.5 -70.5 -14.5
s-49.166 4.66699 -71.499 14s-42 22 -59 38s-30.5 35 -40.5 57s-15 45.667 -15 71s4.66699 49.166 14 71.499s22 41.833 38 58.5s35 29.834 57 39.501s45.667 14.5 71 14.5c26 0 50.167 -4.5 72.5 -13.5s41.833 -21.5 58.5 -37.5s29.667 -35.167 39 -57.5
s14 -46.833 14 -73.5zM487.997 1269c0 26 -8.5 46.834 -25.5 62.501s-38.5 23.5 -64.5 23.5c-14 0 -26.333 -2.83301 -37 -8.5s-19.667 -13 -27 -22s-12.833 -19.333 -16.5 -31s-5.5 -23.834 -5.5 -36.501c0 -26 8.5 -46.833 25.5 -62.5s38.5 -23.5 64.5 -23.5
c28 0 49.333 9.5 64 28.5s22 42.167 22 69.5z" />
    <glyph glyph-name="ae" unicode="&#xe6;" horiz-adv-x="1147" 
d="M1096 606c0 -54.667 -2 -107.993 -6 -159.993l-430 -8c0 -14 0.666992 -30.833 2 -50.5s3.5 -40.334 6.5 -62.001s7.33301 -43 13 -64s13.167 -40 22.5 -57s20.833 -30.667 34.5 -41s30.167 -15.5 49.5 -15.5c20.667 0 38.5 5.5 53.5 16.5s27.333 24.667 37 41
s17.167 34.166 22.5 53.499s9 37.666 11 54.999h174c-6 -38 -16 -76.333 -30 -115s-32.667 -73.667 -56 -105s-51.666 -56.833 -84.999 -76.5s-72.333 -29.5 -117 -29.5c-53.333 0 -98 11 -134 33s-66 51 -90 87c-15.333 -13.333 -32.833 -26.833 -52.5 -40.5
s-41.834 -26.334 -66.501 -38.001s-51.5 -21.167 -80.5 -28.5s-59.833 -11 -92.5 -11c-41.333 0 -76.166 8.16699 -104.499 24.5s-51 38 -68 65s-29.167 57.833 -36.5 92.5s-11 70 -11 106c0 45.333 7.5 86.666 22.5 123.999s36 69.166 63 95.499s59.5 46.666 97.5 60.999
s79.667 21.5 125 21.5c18 0 35.833 -1.16699 53.5 -3.5s35.167 -6.5 52.5 -12.5c1.33301 11.333 2 22 2 32v32c0 6 -0.333008 15.833 -1 29.5s-1.83398 29 -3.50098 46s-4.16699 34.667 -7.5 53s-7.83301 35 -13.5 50s-12.334 27.333 -20.001 37s-17.167 14.5 -28.5 14.5
c-12.667 0 -25 -4.33301 -37 -13s-23.333 -19.834 -34 -33.501s-20.5 -29 -29.5 -46s-17.167 -33.833 -24.5 -50.5s-13.666 -32.167 -18.999 -46.5s-9.33301 -25.833 -12 -34.5l-170 8l-6 372l166 4v-146c6.66699 17.333 15.667 35.333 27 54s24.5 35.5 39.5 50.5
s31.667 27.333 50 37s38.166 14.5 59.499 14.5c46 0 83.667 -6.16699 113 -18.5s53 -30.166 71 -53.499c22 26 48.667 46.5 80 61.5s68 22.5 110 22.5c70.667 0 126.334 -11.167 167.001 -33.5s71.5 -53 92.5 -92s34.333 -85 40 -138s8.5 -109.833 8.5 -170.5zM922 664.007
c0 20 -1.16797 42.667 -3.50098 68s-7.66602 49.333 -15.999 72s-20.5 41.667 -36.5 57s-37.333 23 -64 23c-23.333 0 -43 -5.16699 -59 -15.5s-29.333 -23.833 -40 -40.5s-19 -35.834 -25 -57.501s-10.333 -43.667 -13 -66s-4.5 -44.166 -5.5 -65.499
s-1.5 -40.333 -1.5 -57h258c4 28 6 55.333 6 82zM481.999 238.007l-0.00292969 146c-9.33301 13.333 -23.166 22 -41.499 26s-35.166 6 -50.499 6c-48 0 -87 -11.833 -117 -35.5s-45 -61.167 -45 -112.5c0 -31.333 8.33301 -57.833 25 -79.5s41.667 -32.5 75 -32.5
c10.667 0 24.834 1.5 42.501 4.5s34.667 7.83301 51 14.5s30.5 15.167 42.5 25.5s18 22.833 18 37.5z" />
    <glyph glyph-name="ccedilla" unicode="&#xe7;" horiz-adv-x="738" 
d="M511 -198c0 -23.333 -4.50391 -44.167 -13.5039 -62.5s-21 -33.833 -36 -46.5s-32.333 -22.334 -52 -29.001s-40.5 -10 -62.5 -10c-10 0 -21.167 0.666992 -33.5 2s-24.666 3.5 -36.999 6.5s-24.166 6.83301 -35.499 11.5s-20.666 10.667 -27.999 18l48 88
c8 -6 19.167 -12.167 33.5 -18.5s27.166 -9.5 38.499 -9.5c19.333 0 34.833 3.66699 46.5 11s17.5 21 17.5 41c0 12.667 -3 23.5 -9 32.5s-13.667 16.333 -23 22s-19.5 9.83398 -30.5 12.501s-21.5 3.66699 -31.5 3h-8l24 124c-38 6 -71 18.333 -99 37
s-52 41.334 -72 68.001s-36.167 56.667 -48.5 90s-22.166 67.833 -29.499 103.5s-12.333 72 -15 109s-4 72.5 -4 106.5c0 32 2 67.167 6 105.5s10.833 76.833 20.5 115.5s22.5 76.334 38.5 113.001s35.833 69 59.5 97s51.334 50.5 83.001 67.5s68.5 25.5 110.5 25.5
c33.333 0 65 -8.66699 95 -26s55.667 -38.666 77 -63.999l20 86l126 -10l-10 -410l-162 4c-0.666992 18.667 -3.16699 42.167 -7.5 70.5s-11.5 56 -21.5 83s-23.667 50.167 -41 69.5s-39.333 29 -66 29c-21.333 0 -39.5 -7 -54.5 -21s-27.5 -32 -37.5 -54
s-18 -46.667 -24 -74s-10.5 -54.333 -13.5 -81s-4.83301 -51.5 -5.5 -74.5s-1 -41.5 -1 -55.5c0 -15.333 0.166992 -34.5 0.5 -57.5s1.66602 -47.333 3.99902 -73s6 -51.334 11 -77.001s12.667 -48.834 23 -69.501s23.333 -37.334 39 -50.001s35.167 -19 58.5 -19
c27.333 0 50 9.33301 68 28s32.5 41.167 43.5 67.5s18.667 53.833 23 82.5s6.83301 53.334 7.5 74.001h160c-0.666992 -28 -3.16699 -57.167 -7.5 -87.5s-11.166 -60.166 -20.499 -89.499s-21 -57.5 -35 -84.5s-30.667 -51.333 -50 -73s-41.333 -39.834 -66 -54.501
s-52.334 -24.334 -83.001 -29.001l-28 -58c18.667 0 35.334 -3.83301 50.001 -11.5s27.167 -17.834 37.5 -30.501s18.333 -27.167 24 -43.5s8.5 -33.166 8.5 -50.499z" />
    <glyph glyph-name="egrave" unicode="&#xe8;" horiz-adv-x="718" 
d="M667 606c0 -54.667 -1.99902 -107.996 -5.99902 -159.996l-430 -8c0 -14 0.666992 -30.833 2 -50.5s3.5 -40.334 6.5 -62.001s7.33301 -43 13 -64s13.167 -40 22.5 -57s20.833 -30.667 34.5 -41s30.167 -15.5 49.5 -15.5c20.667 0 38.5 5.5 53.5 16.5
s27.333 24.667 37 41s17.167 34.166 22.5 53.499s9 37.666 11 54.999h174c-6 -38 -16 -76.333 -30 -115s-32.667 -73.667 -56 -105s-51.666 -56.833 -84.999 -76.5s-72.333 -29.5 -117 -29.5c-46.667 0 -86.834 8.83301 -120.501 26.5s-62.167 41.167 -85.5 70.5
s-42.333 63.166 -57 101.499s-25.834 78 -33.501 119s-12.834 82.167 -15.501 123.5s-4 79.666 -4 114.999c0 32 1.83301 66.667 5.5 104s9.83398 74.333 18.501 111s20.5 72 35.5 106s33.833 63.833 56.5 89.5s49.667 46.334 81 62.001s67.666 23.5 108.999 23.5
c70.667 0 126.334 -11.167 167.001 -33.5s71.5 -53 92.5 -92s34.333 -85 40 -138s8.5 -109.833 8.5 -170.5zM493.001 664.004c0 20 -1.16797 42.667 -3.50098 68s-7.66602 49.333 -15.999 72s-20.5 41.667 -36.5 57s-37.333 23 -64 23c-23.333 0 -43 -5.16699 -59 -15.5
s-29.333 -23.833 -40 -40.5s-19 -35.834 -25 -57.501s-10.333 -43.667 -13 -66s-4.5 -44.166 -5.5 -65.499s-1.5 -40.333 -1.5 -57h258c4 28 6 55.333 6 82zM417 1142l-92 -30l-224 232l186 50z" />
    <glyph glyph-name="eacute" unicode="&#xe9;" horiz-adv-x="718" 
d="M667 606c0 -54.667 -1.99902 -107.996 -5.99902 -159.996l-430 -8c0 -14 0.666992 -30.833 2 -50.5s3.5 -40.334 6.5 -62.001s7.33301 -43 13 -64s13.167 -40 22.5 -57s20.833 -30.667 34.5 -41s30.167 -15.5 49.5 -15.5c20.667 0 38.5 5.5 53.5 16.5
s27.333 24.667 37 41s17.167 34.166 22.5 53.499s9 37.666 11 54.999h174c-6 -38 -16 -76.333 -30 -115s-32.667 -73.667 -56 -105s-51.666 -56.833 -84.999 -76.5s-72.333 -29.5 -117 -29.5c-46.667 0 -86.834 8.83301 -120.501 26.5s-62.167 41.167 -85.5 70.5
s-42.333 63.166 -57 101.499s-25.834 78 -33.501 119s-12.834 82.167 -15.501 123.5s-4 79.666 -4 114.999c0 32 1.83301 66.667 5.5 104s9.83398 74.333 18.501 111s20.5 72 35.5 106s33.833 63.833 56.5 89.5s49.667 46.334 81 62.001s67.666 23.5 108.999 23.5
c70.667 0 126.334 -11.167 167.001 -33.5s71.5 -53 92.5 -92s34.333 -85 40 -138s8.5 -109.833 8.5 -170.5zM493.001 664.004c0 20 -1.16797 42.667 -3.50098 68s-7.66602 49.333 -15.999 72s-20.5 41.667 -36.5 57s-37.333 23 -64 23c-23.333 0 -43 -5.16699 -59 -15.5
s-29.333 -23.833 -40 -40.5s-19 -35.834 -25 -57.501s-10.333 -43.667 -13 -66s-4.5 -44.166 -5.5 -65.499s-1.5 -40.333 -1.5 -57h258c4 28 6 55.333 6 82zM657 1344l-222 -232l-94 30l130 252z" />
    <glyph glyph-name="ecircumflex" unicode="&#xea;" horiz-adv-x="718" 
d="M667 606c0 -54.667 -1.99902 -107.996 -5.99902 -159.996l-430 -8c0 -14 0.666992 -30.833 2 -50.5s3.5 -40.334 6.5 -62.001s7.33301 -43 13 -64s13.167 -40 22.5 -57s20.833 -30.667 34.5 -41s30.167 -15.5 49.5 -15.5c20.667 0 38.5 5.5 53.5 16.5
s27.333 24.667 37 41s17.167 34.166 22.5 53.499s9 37.666 11 54.999h174c-6 -38 -16 -76.333 -30 -115s-32.667 -73.667 -56 -105s-51.666 -56.833 -84.999 -76.5s-72.333 -29.5 -117 -29.5c-46.667 0 -86.834 8.83301 -120.501 26.5s-62.167 41.167 -85.5 70.5
s-42.333 63.166 -57 101.499s-25.834 78 -33.501 119s-12.834 82.167 -15.501 123.5s-4 79.666 -4 114.999c0 32 1.83301 66.667 5.5 104s9.83398 74.333 18.501 111s20.5 72 35.5 106s33.833 63.833 56.5 89.5s49.667 46.334 81 62.001s67.666 23.5 108.999 23.5
c70.667 0 126.334 -11.167 167.001 -33.5s71.5 -53 92.5 -92s34.333 -85 40 -138s8.5 -109.833 8.5 -170.5zM493.001 664.004c0 20 -1.16797 42.667 -3.50098 68s-7.66602 49.333 -15.999 72s-20.5 41.667 -36.5 57s-37.333 23 -64 23c-23.333 0 -43 -5.16699 -59 -15.5
s-29.333 -23.833 -40 -40.5s-19 -35.834 -25 -57.501s-10.333 -43.667 -13 -66s-4.5 -44.166 -5.5 -65.499s-1.5 -40.333 -1.5 -57h258c4 28 6 55.333 6 82zM591 1123l-142 -30l-92 174l-88 -174l-140 30l162 242l136 10z" />
    <glyph glyph-name="edieresis" unicode="&#xeb;" horiz-adv-x="718" 
d="M667 606c0 -54.667 -1.99902 -107.996 -5.99902 -159.996l-430 -8c0 -14 0.666992 -30.833 2 -50.5s3.5 -40.334 6.5 -62.001s7.33301 -43 13 -64s13.167 -40 22.5 -57s20.833 -30.667 34.5 -41s30.167 -15.5 49.5 -15.5c20.667 0 38.5 5.5 53.5 16.5
s27.333 24.667 37 41s17.167 34.166 22.5 53.499s9 37.666 11 54.999h174c-6 -38 -16 -76.333 -30 -115s-32.667 -73.667 -56 -105s-51.666 -56.833 -84.999 -76.5s-72.333 -29.5 -117 -29.5c-46.667 0 -86.834 8.83301 -120.501 26.5s-62.167 41.167 -85.5 70.5
s-42.333 63.166 -57 101.499s-25.834 78 -33.501 119s-12.834 82.167 -15.501 123.5s-4 79.666 -4 114.999c0 32 1.83301 66.667 5.5 104s9.83398 74.333 18.501 111s20.5 72 35.5 106s33.833 63.833 56.5 89.5s49.667 46.334 81 62.001s67.666 23.5 108.999 23.5
c70.667 0 126.334 -11.167 167.001 -33.5s71.5 -53 92.5 -92s34.333 -85 40 -138s8.5 -109.833 8.5 -170.5zM493.001 664.004c0 20 -1.16797 42.667 -3.50098 68s-7.66602 49.333 -15.999 72s-20.5 41.667 -36.5 57s-37.333 23 -64 23c-23.333 0 -43 -5.16699 -59 -15.5
s-29.333 -23.833 -40 -40.5s-19 -35.834 -25 -57.501s-10.333 -43.667 -13 -66s-4.5 -44.166 -5.5 -65.499s-1.5 -40.333 -1.5 -57h258c4 28 6 55.333 6 82zM601 1203c0 -26 -8.83301 -47.833 -26.5 -65.5s-39.5 -26.5 -65.5 -26.5s-47.5 9 -64.5 27s-25.5 39.667 -25.5 65
c0 26 8.83301 48.167 26.5 66.5s39.5 27.5 65.5 27.5s47.5 -9.16699 64.5 -27.5s25.5 -40.5 25.5 -66.5zM321 1203c0 -29.333 -9.66895 -54.002 -29.002 -74.002s-43.666 -30 -72.999 -30c-14 0 -27.167 2.83301 -39.5 8.5s-23 13.334 -32 23.001s-16 20.834 -21 33.501
s-7.5 25.667 -7.5 39c0 29.333 10 54 30 74s44.667 30 74 30c14.667 0 28 -2.83301 40 -8.5s22.333 -13.167 31 -22.5s15.334 -20.333 20.001 -33s7 -26 7 -40z" />
    <glyph glyph-name="igrave" unicode="&#xec;" horiz-adv-x="457" 
d="M433 140l-6 -166l-366 16v174l84 6v674h-122l4 174h322l-24 -868zM286 1123l-92 -30l-224 232l186 50z" />
    <glyph glyph-name="iacute" unicode="&#xed;" horiz-adv-x="458" 
d="M433 140l-6 -166l-366 16v174l84 6v674h-122l4 174h322l-24 -868zM505 1325l-222 -232l-94 30l130 252z" />
    <glyph glyph-name="icircumflex" unicode="&#xee;" horiz-adv-x="457" 
d="M433 140l-6 -166l-366 16v174l84 6v674h-122l4 174h322l-24 -868zM460 1123l-142 -30l-92 174l-88 -174l-140 30l162 242l136 10z" />
    <glyph glyph-name="idieresis" unicode="&#xef;" horiz-adv-x="457" 
d="M433 140l-6 -166l-366 16v174l84 6v674h-122l4 174h322l-24 -868zM470 1203c0 -26 -8.83301 -47.833 -26.5 -65.5s-39.5 -26.5 -65.5 -26.5s-47.5 9 -64.5 27s-25.5 39.667 -25.5 65c0 26 8.83301 48.167 26.5 66.5s39.5 27.5 65.5 27.5s47.5 -9.16699 64.5 -27.5
s25.5 -40.5 25.5 -66.5zM190 1203c0 -29.333 -9.66895 -54.002 -29.002 -74.002s-43.666 -30 -72.999 -30c-14 0 -27.167 2.83301 -39.5 8.5s-23 13.334 -32 23.001s-16 20.834 -21 33.501s-7.5 25.667 -7.5 39c0 29.333 10 54 30 74s44.667 30 74 30
c14.667 0 28 -2.83301 40 -8.5s22.333 -13.167 31 -22.5s15.334 -20.333 20.001 -33s7 -26 7 -40z" />
    <glyph glyph-name="eth" unicode="&#xf0;" horiz-adv-x="753" 
d="M530 550c0 14 -0.664062 32.002 -1.99707 54.002s-3.83301 45.333 -7.5 70s-8.83398 49.334 -15.501 74.001s-15.334 47 -26.001 67s-23.834 36.167 -39.501 48.5s-34.167 18.5 -55.5 18.5c-26 0 -48.167 -7.83301 -66.5 -23.5s-34 -35.834 -47 -60.501
s-23.5 -52.167 -31.5 -82.5s-14.167 -60.666 -18.5 -90.999s-7.16602 -58.833 -8.49902 -85.5s-2 -48.334 -2 -65.001c0 -14 0.666992 -31.833 2 -53.5s4 -44.834 8 -69.501s9.5 -49.167 16.5 -73.5s15.833 -46.5 26.5 -66.5s23.667 -36.167 39 -48.5s33.333 -18.5 54 -18.5
c25.333 0 47.166 7.66699 65.499 23s34 35.166 47 59.499s23.5 51.5 31.5 81.5s14.167 60.167 18.5 90.5s7.33301 58.833 9 85.5s2.5 48.667 2.5 66zM658.003 1346l18 -139.996l-102 -22c14.667 -39.333 29 -82.166 43 -128.499s26.167 -96.166 36.5 -149.499
s18.666 -110.333 24.999 -171s9.5 -124.334 9.5 -191.001c0 -33.333 -2 -70.333 -6 -111s-11 -81.834 -21 -123.501s-23.167 -82.334 -39.5 -122.001s-36.833 -74.834 -61.5 -105.501s-53.5 -55.334 -86.5 -74.001s-71.5 -28 -115.5 -28
c-41.333 0 -77.666 7.83301 -108.999 23.5s-58.333 36.334 -81 62.001s-41.667 55.5 -57 89.5s-27.5 69.333 -36.5 106s-15.333 73.667 -19 111s-5.5 72 -5.5 104c0 33.333 2 70.666 6 111.999s10.833 83.166 20.5 125.499s22.667 83.5 39 123.5s36.666 75.5 60.999 106.5
s53.166 55.833 86.499 74.5s72.333 28 117 28c20 0 39.667 -4 59 -12s37.666 -18.667 54.999 -32l-32.5 70.5c-11.667 25.667 -24.167 51.5 -37.5 77.5l-152 -32l-32 142l112 22c-15.333 26 -30.666 49.833 -45.999 71.5s-30.666 40.5 -45.999 56.5l158 64l28 -40
c8.66699 -13.333 18.834 -29.833 30.501 -49.5s24.167 -42.5 37.5 -68.5z" />
    <glyph glyph-name="ntilde" unicode="&#xf1;" horiz-adv-x="886" 
d="M861 142l-19.999 -160.001l-336 14l-4 162l88 10c2 90.667 3.83301 181 5.5 271s2.5 180.333 2.5 271c0 16 -1.5 32.667 -4.5 50s-8.16699 33.333 -15.5 48s-17.5 26.667 -30.5 36s-29.5 14 -49.5 14c-29.333 0 -54.166 -8.16699 -74.499 -24.5
s-36.833 -36.5 -49.5 -60.5s-22 -50 -28 -78s-9.33301 -53.667 -10 -77c-3.33301 -75.333 -5.5 -150.333 -6.5 -225s-2.16699 -149.667 -3.5 -225h88l10 -162l-346 -4v184l98 6l-6 650l-146 10l4 170l288 10l6 -142c13.333 20 29.166 39.167 47.499 57.5
s38.5 34.5 60.5 48.5s45.167 25.167 69.5 33.5s49.166 12.5 74.499 12.5c30 0 55.667 -5 77 -15s39.333 -23.667 54 -41s26.167 -37.166 34.5 -59.499s14.833 -46 19.5 -71s7.66699 -50.333 9 -76s2 -50.167 2 -73.5c0 -92.667 -1.16699 -185 -3.5 -277
s-4.5 -184.333 -6.5 -277zM685.001 1175c-9.33301 -8 -19.835 -15.999 -31.502 -23.999s-24 -15.333 -37 -22s-26.333 -12 -40 -16s-26.834 -6 -39.501 -6c-17.333 0 -34.166 4.33301 -50.499 13s-32.166 18 -47.499 28s-30.5 19.333 -45.5 28s-29.833 13 -44.5 13
c-8 0 -17.333 -3.5 -28 -10.5s-21.334 -15.333 -32.001 -25s-20.5 -19.5 -29.5 -29.5l-20.5 -23l-40 120c8 9.33301 17.833 19.666 29.5 30.999s24.334 21.833 38.001 31.5s27.834 17.667 42.501 24s28.667 9.5 42 9.5c17.333 0 33.333 -4.16699 48 -12.5
s29.167 -17.5 43.5 -27.5s29 -19.167 44 -27.5s31.833 -12.5 50.5 -12.5c20 0 40 6.5 60 19.5s36 26.5 48 40.5z" />
    <glyph glyph-name="ograve" unicode="&#xf2;" horiz-adv-x="737" 
d="M688 544c0 -33.333 -1.99902 -70.3281 -5.99902 -110.995s-11 -81.834 -21 -123.501s-23.167 -82.334 -39.5 -122.001s-36.833 -74.834 -61.5 -105.501s-53.5 -55.334 -86.5 -74.001s-71.5 -28 -115.5 -28c-41.333 0 -77.666 7.83301 -108.999 23.5
s-58.333 36.334 -81 62.001s-41.667 55.5 -57 89.5s-27.5 69.333 -36.5 106s-15.333 73.667 -19 111s-5.5 72 -5.5 104c0 33.333 2 70.666 6 111.999s10.833 83.166 20.5 125.499s22.667 83.5 39 123.5s36.666 75.5 60.999 106.5s53.166 55.833 86.499 74.5
s72.333 28 117 28c40.667 0 76.5 -8 107.5 -24s58 -37.333 81 -64s42 -57.334 57 -92.001s27.167 -70.5 36.5 -107.5s16 -74.167 20 -111.5s6 -71.666 6 -102.999zM530.001 550.005c0 14 -0.664062 32.002 -1.99707 54.002s-3.83301 45.333 -7.5 70
s-8.83398 49.334 -15.501 74.001s-15.334 47 -26.001 67s-23.834 36.167 -39.501 48.5s-34.167 18.5 -55.5 18.5c-26 0 -48.167 -7.83301 -66.5 -23.5s-34 -35.834 -47 -60.501s-23.5 -52.167 -31.5 -82.5s-14.167 -60.666 -18.5 -90.999s-7.16602 -58.833 -8.49902 -85.5
s-2 -48.334 -2 -65.001c0 -14 0.666992 -31.833 2 -53.5s4 -44.834 8 -69.501s9.5 -49.167 16.5 -73.5s15.833 -46.5 26.5 -66.5s23.667 -36.167 39 -48.5s33.333 -18.5 54 -18.5c25.333 0 47.166 7.66699 65.499 23s34 35.166 47 59.499s23.5 51.5 31.5 81.5
s14.167 60.167 18.5 90.5s7.33301 58.833 9 85.5s2.5 48.667 2.5 66zM426.004 1142.01l-92 -30l-224 232l186 50z" />
    <glyph glyph-name="oacute" unicode="&#xf3;" horiz-adv-x="737" 
d="M688 544c0 -33.333 -1.99902 -70.3281 -5.99902 -110.995s-11 -81.834 -21 -123.501s-23.167 -82.334 -39.5 -122.001s-36.833 -74.834 -61.5 -105.501s-53.5 -55.334 -86.5 -74.001s-71.5 -28 -115.5 -28c-41.333 0 -77.666 7.83301 -108.999 23.5
s-58.333 36.334 -81 62.001s-41.667 55.5 -57 89.5s-27.5 69.333 -36.5 106s-15.333 73.667 -19 111s-5.5 72 -5.5 104c0 33.333 2 70.666 6 111.999s10.833 83.166 20.5 125.499s22.667 83.5 39 123.5s36.666 75.5 60.999 106.5s53.166 55.833 86.499 74.5
s72.333 28 117 28c40.667 0 76.5 -8 107.5 -24s58 -37.333 81 -64s42 -57.334 57 -92.001s27.167 -70.5 36.5 -107.5s16 -74.167 20 -111.5s6 -71.666 6 -102.999zM530.001 550.005c0 14 -0.664062 32.002 -1.99707 54.002s-3.83301 45.333 -7.5 70
s-8.83398 49.334 -15.501 74.001s-15.334 47 -26.001 67s-23.834 36.167 -39.501 48.5s-34.167 18.5 -55.5 18.5c-26 0 -48.167 -7.83301 -66.5 -23.5s-34 -35.834 -47 -60.501s-23.5 -52.167 -31.5 -82.5s-14.167 -60.666 -18.5 -90.999s-7.16602 -58.833 -8.49902 -85.5
s-2 -48.334 -2 -65.001c0 -14 0.666992 -31.833 2 -53.5s4 -44.834 8 -69.501s9.5 -49.167 16.5 -73.5s15.833 -46.5 26.5 -66.5s23.667 -36.167 39 -48.5s33.333 -18.5 54 -18.5c25.333 0 47.166 7.66699 65.499 23s34 35.166 47 59.499s23.5 51.5 31.5 81.5
s14.167 60.167 18.5 90.5s7.33301 58.833 9 85.5s2.5 48.667 2.5 66zM646.004 1344.01l-222 -232l-94 30l130 252z" />
    <glyph glyph-name="ocircumflex" unicode="&#xf4;" horiz-adv-x="737" 
d="M688 544c0 -33.333 -1.99902 -70.3281 -5.99902 -110.995s-11 -81.834 -21 -123.501s-23.167 -82.334 -39.5 -122.001s-36.833 -74.834 -61.5 -105.501s-53.5 -55.334 -86.5 -74.001s-71.5 -28 -115.5 -28c-41.333 0 -77.666 7.83301 -108.999 23.5
s-58.333 36.334 -81 62.001s-41.667 55.5 -57 89.5s-27.5 69.333 -36.5 106s-15.333 73.667 -19 111s-5.5 72 -5.5 104c0 33.333 2 70.666 6 111.999s10.833 83.166 20.5 125.499s22.667 83.5 39 123.5s36.666 75.5 60.999 106.5s53.166 55.833 86.499 74.5
s72.333 28 117 28c40.667 0 76.5 -8 107.5 -24s58 -37.333 81 -64s42 -57.334 57 -92.001s27.167 -70.5 36.5 -107.5s16 -74.167 20 -111.5s6 -71.666 6 -102.999zM530.001 550.005c0 14 -0.664062 32.002 -1.99707 54.002s-3.83301 45.333 -7.5 70
s-8.83398 49.334 -15.501 74.001s-15.334 47 -26.001 67s-23.834 36.167 -39.501 48.5s-34.167 18.5 -55.5 18.5c-26 0 -48.167 -7.83301 -66.5 -23.5s-34 -35.834 -47 -60.501s-23.5 -52.167 -31.5 -82.5s-14.167 -60.666 -18.5 -90.999s-7.16602 -58.833 -8.49902 -85.5
s-2 -48.334 -2 -65.001c0 -14 0.666992 -31.833 2 -53.5s4 -44.834 8 -69.501s9.5 -49.167 16.5 -73.5s15.833 -46.5 26.5 -66.5s23.667 -36.167 39 -48.5s33.333 -18.5 54 -18.5c25.333 0 47.166 7.66699 65.499 23s34 35.166 47 59.499s23.5 51.5 31.5 81.5
s14.167 60.167 18.5 90.5s7.33301 58.833 9 85.5s2.5 48.667 2.5 66zM620.004 1123.01l-142 -30l-92 174l-88 -174l-140 30l162 242l136 10z" />
    <glyph glyph-name="otilde" unicode="&#xf5;" horiz-adv-x="737" 
d="M688 544c0 -33.333 -1.99902 -70.3281 -5.99902 -110.995s-11 -81.834 -21 -123.501s-23.167 -82.334 -39.5 -122.001s-36.833 -74.834 -61.5 -105.501s-53.5 -55.334 -86.5 -74.001s-71.5 -28 -115.5 -28c-41.333 0 -77.666 7.83301 -108.999 23.5
s-58.333 36.334 -81 62.001s-41.667 55.5 -57 89.5s-27.5 69.333 -36.5 106s-15.333 73.667 -19 111s-5.5 72 -5.5 104c0 33.333 2 70.666 6 111.999s10.833 83.166 20.5 125.499s22.667 83.5 39 123.5s36.666 75.5 60.999 106.5s53.166 55.833 86.499 74.5
s72.333 28 117 28c40.667 0 76.5 -8 107.5 -24s58 -37.333 81 -64s42 -57.334 57 -92.001s27.167 -70.5 36.5 -107.5s16 -74.167 20 -111.5s6 -71.666 6 -102.999zM530.001 550.005c0 14 -0.664062 32.002 -1.99707 54.002s-3.83301 45.333 -7.5 70
s-8.83398 49.334 -15.501 74.001s-15.334 47 -26.001 67s-23.834 36.167 -39.501 48.5s-34.167 18.5 -55.5 18.5c-26 0 -48.167 -7.83301 -66.5 -23.5s-34 -35.834 -47 -60.501s-23.5 -52.167 -31.5 -82.5s-14.167 -60.666 -18.5 -90.999s-7.16602 -58.833 -8.49902 -85.5
s-2 -48.334 -2 -65.001c0 -14 0.666992 -31.833 2 -53.5s4 -44.834 8 -69.501s9.5 -49.167 16.5 -73.5s15.833 -46.5 26.5 -66.5s23.667 -36.167 39 -48.5s33.333 -18.5 54 -18.5c25.333 0 47.166 7.66699 65.499 23s34 35.166 47 59.499s23.5 51.5 31.5 81.5
s14.167 60.167 18.5 90.5s7.33301 58.833 9 85.5s2.5 48.667 2.5 66zM612.004 1175.01c-9.33301 -8 -19.835 -15.999 -31.502 -23.999s-24 -15.333 -37 -22s-26.333 -12 -40 -16s-26.834 -6 -39.501 -6c-17.333 0 -34.166 4.33301 -50.499 13s-32.166 18 -47.499 28
s-30.5 19.333 -45.5 28s-29.833 13 -44.5 13c-8 0 -17.333 -3.5 -28 -10.5s-21.334 -15.333 -32.001 -25s-20.5 -19.5 -29.5 -29.5l-20.5 -23l-40 120c8 9.33301 17.833 19.666 29.5 30.999s24.334 21.833 38.001 31.5s27.834 17.667 42.501 24s28.667 9.5 42 9.5
c17.333 0 33.333 -4.16699 48 -12.5s29.167 -17.5 43.5 -27.5s29 -19.167 44 -27.5s31.833 -12.5 50.5 -12.5c20 0 40 6.5 60 19.5s36 26.5 48 40.5z" />
    <glyph glyph-name="odieresis" unicode="&#xf6;" horiz-adv-x="737" 
d="M688 544c0 -33.333 -1.99902 -70.3281 -5.99902 -110.995s-11 -81.834 -21 -123.501s-23.167 -82.334 -39.5 -122.001s-36.833 -74.834 -61.5 -105.501s-53.5 -55.334 -86.5 -74.001s-71.5 -28 -115.5 -28c-41.333 0 -77.666 7.83301 -108.999 23.5
s-58.333 36.334 -81 62.001s-41.667 55.5 -57 89.5s-27.5 69.333 -36.5 106s-15.333 73.667 -19 111s-5.5 72 -5.5 104c0 33.333 2 70.666 6 111.999s10.833 83.166 20.5 125.499s22.667 83.5 39 123.5s36.666 75.5 60.999 106.5s53.166 55.833 86.499 74.5
s72.333 28 117 28c40.667 0 76.5 -8 107.5 -24s58 -37.333 81 -64s42 -57.334 57 -92.001s27.167 -70.5 36.5 -107.5s16 -74.167 20 -111.5s6 -71.666 6 -102.999zM530.001 550.005c0 14 -0.664062 32.002 -1.99707 54.002s-3.83301 45.333 -7.5 70
s-8.83398 49.334 -15.501 74.001s-15.334 47 -26.001 67s-23.834 36.167 -39.501 48.5s-34.167 18.5 -55.5 18.5c-26 0 -48.167 -7.83301 -66.5 -23.5s-34 -35.834 -47 -60.501s-23.5 -52.167 -31.5 -82.5s-14.167 -60.666 -18.5 -90.999s-7.16602 -58.833 -8.49902 -85.5
s-2 -48.334 -2 -65.001c0 -14 0.666992 -31.833 2 -53.5s4 -44.834 8 -69.501s9.5 -49.167 16.5 -73.5s15.833 -46.5 26.5 -66.5s23.667 -36.167 39 -48.5s33.333 -18.5 54 -18.5c25.333 0 47.166 7.66699 65.499 23s34 35.166 47 59.499s23.5 51.5 31.5 81.5
s14.167 60.167 18.5 90.5s7.33301 58.833 9 85.5s2.5 48.667 2.5 66zM610.004 1203.01c0 -26 -8.83301 -47.833 -26.5 -65.5s-39.5 -26.5 -65.5 -26.5s-47.5 9 -64.5 27s-25.5 39.667 -25.5 65c0 26 8.83301 48.167 26.5 66.5s39.5 27.5 65.5 27.5s47.5 -9.16699 64.5 -27.5
s25.5 -40.5 25.5 -66.5zM330.004 1203.01c0 -29.333 -9.66895 -54.002 -29.002 -74.002s-43.666 -30 -72.999 -30c-14 0 -27.167 2.83301 -39.5 8.5s-23 13.334 -32 23.001s-16 20.834 -21 33.501s-7.5 25.667 -7.5 39c0 29.333 10 54 30 74s44.667 30 74 30
c14.667 0 28 -2.83301 40 -8.5s22.333 -13.167 31 -22.5s15.334 -20.333 20.001 -33s7 -26 7 -40z" />
    <glyph glyph-name="divide" unicode="&#xf7;" horiz-adv-x="748" 
d="M689 838l-10 -180l-612 -10l-6 186zM489 494c0 -14 -2.66699 -27.167 -8 -39.5s-12.666 -23 -21.999 -32s-20.166 -16 -32.499 -21s-25.5 -7.5 -39.5 -7.5s-27.167 2.5 -39.5 7.5s-23 12 -32 21s-16 19.667 -21 32s-7.5 25.5 -7.5 39.5s2.5 27.167 7.5 39.5
s12 23.166 21 32.499s19.667 16.666 32 21.999s25.5 8 39.5 8s27.167 -2.66699 39.5 -8s23.166 -12.666 32.499 -21.999s16.666 -20.166 21.999 -32.499s8 -25.5 8 -39.5zM489 994c0 -14 -2.66699 -27.167 -8 -39.5s-12.666 -23 -21.999 -32s-20.166 -16 -32.499 -21
s-25.5 -7.5 -39.5 -7.5s-27.167 2.5 -39.5 7.5s-23 12 -32 21s-16 19.667 -21 32s-7.5 25.5 -7.5 39.5s2.5 27.167 7.5 39.5s12 23.166 21 32.499s19.667 16.666 32 21.999s25.5 8 39.5 8s27.167 -2.66699 39.5 -8s23.166 -12.666 32.499 -21.999
s16.666 -20.166 21.999 -32.499s8 -25.5 8 -39.5z" />
    <glyph glyph-name="oslash" unicode="&#xf8;" horiz-adv-x="746" 
d="M222 366l205.998 506c-13.333 6.66699 -26.666 10 -39.999 10c-26 0 -48.167 -7.83301 -66.5 -23.5s-34 -35.834 -47 -60.501s-23.5 -52.167 -31.5 -82.5s-14.167 -60.666 -18.5 -90.999s-7.16602 -58.833 -8.49902 -85.5s-2 -48.334 -2 -65.001
c0 -12 0.5 -27.667 1.5 -47s3.16699 -39.666 6.5 -60.999zM525.998 668l-219.998 -505.999c8 -6 16.167 -10.5 24.5 -13.5s18.166 -4.5 29.499 -4.5c25.333 0 47.166 7.66699 65.499 23s34 35.166 47 59.499s23.5 51.5 31.5 81.5s14.167 60.167 18.5 90.5
s7.33301 58.833 9 85.5s2.5 48.667 2.5 66c0 14 -0.5 31.167 -1.5 51.5s-3.16699 42.5 -6.5 66.5zM680 1024l-59.999 -137.994c13.333 -26 24.666 -53.833 33.999 -83.5s16.833 -59.5 22.5 -89.5s9.66699 -59.5 12 -88.5s3.5 -55.833 3.5 -80.5
c0 -33.333 -2 -70.333 -6 -111s-11 -81.834 -21 -123.501s-23.167 -82.334 -39.5 -122.001s-36.833 -74.834 -61.5 -105.501s-53.667 -55.334 -87 -74.001s-71.666 -28 -114.999 -28c-47.333 0 -88 10 -122 30l-14 -30l-152 20l54 130c-14 26 -25.667 53.833 -35 83.5
s-17 59.5 -23 89.5s-10.167 59.833 -12.5 89.5s-3.5 57.5 -3.5 83.5c0 33.333 2 70.666 6 111.999s10.833 83.166 20.5 125.499s22.667 83.5 39 123.5s36.666 75.5 60.999 106.5s53.333 55.833 87 74.5s72.5 28 116.5 28c39.333 0 74 -8 104 -24l10 22z" />
    <glyph glyph-name="ugrave" unicode="&#xf9;" horiz-adv-x="863" 
d="M862 160l-4 -169.994l-288 -10l-6 162c-13.333 -20 -29.166 -39.167 -47.499 -57.5s-38.333 -34.5 -60 -48.5s-44.667 -25.167 -69 -33.5s-48.833 -12.5 -73.5 -12.5c-30.667 0 -56.667 5 -78 15s-39.333 23.667 -54 41s-26.334 37.166 -35.001 59.499
s-15.334 46 -20.001 71s-7.66699 50.333 -9 76s-2 50.167 -2 73.5c0 90.667 1.16699 181.167 3.5 271.5s4.5 181.166 6.5 272.499l-102 10l20 160l258 -14l-9.5 -356c-3 -117.333 -4.5 -236 -4.5 -356c0 -15.333 1.66699 -31.333 5 -48s8.83301 -31.834 16.5 -45.501
s17.834 -24.834 30.501 -33.501s28.667 -13 48 -13c29.333 0 54.166 8.16699 74.499 24.5s36.833 36.5 49.5 60.5s21.834 50 27.501 78s9.16699 53.667 10.5 77c4 73.333 6.33301 146.666 7 219.999s1.66699 146.666 3 219.999h-88l-10 162l270 4l-16 -850zM500 1123.01
l-92 -30l-224 232l186 50z" />
    <glyph glyph-name="uacute" unicode="&#xfa;" horiz-adv-x="863" 
d="M862 160l-4 -169.994l-288 -10l-6 162c-13.333 -20 -29.166 -39.167 -47.499 -57.5s-38.333 -34.5 -60 -48.5s-44.667 -25.167 -69 -33.5s-48.833 -12.5 -73.5 -12.5c-30.667 0 -56.667 5 -78 15s-39.333 23.667 -54 41s-26.334 37.166 -35.001 59.499
s-15.334 46 -20.001 71s-7.66699 50.333 -9 76s-2 50.167 -2 73.5c0 90.667 1.16699 181.167 3.5 271.5s4.5 181.166 6.5 272.499l-102 10l20 160l258 -14l-9.5 -356c-3 -117.333 -4.5 -236 -4.5 -356c0 -15.333 1.66699 -31.333 5 -48s8.83301 -31.834 16.5 -45.501
s17.834 -24.834 30.501 -33.501s28.667 -13 48 -13c29.333 0 54.166 8.16699 74.499 24.5s36.833 36.5 49.5 60.5s21.834 50 27.501 78s9.16699 53.667 10.5 77c4 73.333 6.33301 146.666 7 219.999s1.66699 146.666 3 219.999h-88l-10 162l270 4l-16 -850zM680 1325.01
l-222 -232l-94 30l130 252z" />
    <glyph glyph-name="ucircumflex" unicode="&#xfb;" horiz-adv-x="863" 
d="M862 160l-4 -169.994l-288 -10l-6 162c-13.333 -20 -29.166 -39.167 -47.499 -57.5s-38.333 -34.5 -60 -48.5s-44.667 -25.167 -69 -33.5s-48.833 -12.5 -73.5 -12.5c-30.667 0 -56.667 5 -78 15s-39.333 23.667 -54 41s-26.334 37.166 -35.001 59.499
s-15.334 46 -20.001 71s-7.66699 50.333 -9 76s-2 50.167 -2 73.5c0 90.667 1.16699 181.167 3.5 271.5s4.5 181.166 6.5 272.499l-102 10l20 160l258 -14l-9.5 -356c-3 -117.333 -4.5 -236 -4.5 -356c0 -15.333 1.66699 -31.333 5 -48s8.83301 -31.834 16.5 -45.501
s17.834 -24.834 30.501 -33.501s28.667 -13 48 -13c29.333 0 54.166 8.16699 74.499 24.5s36.833 36.5 49.5 60.5s21.834 50 27.501 78s9.16699 53.667 10.5 77c4 73.333 6.33301 146.666 7 219.999s1.66699 146.666 3 219.999h-88l-10 162l270 4l-16 -850zM654 1123.01
l-142 -30l-92 174l-88 -174l-140 30l162 242l136 10z" />
    <glyph glyph-name="udieresis" unicode="&#xfc;" horiz-adv-x="863" 
d="M862 160l-4 -169.994l-288 -10l-6 162c-13.333 -20 -29.166 -39.167 -47.499 -57.5s-38.333 -34.5 -60 -48.5s-44.667 -25.167 -69 -33.5s-48.833 -12.5 -73.5 -12.5c-30.667 0 -56.667 5 -78 15s-39.333 23.667 -54 41s-26.334 37.166 -35.001 59.499
s-15.334 46 -20.001 71s-7.66699 50.333 -9 76s-2 50.167 -2 73.5c0 90.667 1.16699 181.167 3.5 271.5s4.5 181.166 6.5 272.499l-102 10l20 160l258 -14l-9.5 -356c-3 -117.333 -4.5 -236 -4.5 -356c0 -15.333 1.66699 -31.333 5 -48s8.83301 -31.834 16.5 -45.501
s17.834 -24.834 30.501 -33.501s28.667 -13 48 -13c29.333 0 54.166 8.16699 74.499 24.5s36.833 36.5 49.5 60.5s21.834 50 27.501 78s9.16699 53.667 10.5 77c4 73.333 6.33301 146.666 7 219.999s1.66699 146.666 3 219.999h-88l-10 162l270 4l-16 -850zM644 1203.01
c0 -26 -8.83301 -47.833 -26.5 -65.5s-39.5 -26.5 -65.5 -26.5s-47.5 9 -64.5 27s-25.5 39.667 -25.5 65c0 26 8.83301 48.167 26.5 66.5s39.5 27.5 65.5 27.5s47.5 -9.16699 64.5 -27.5s25.5 -40.5 25.5 -66.5zM364 1203.01c0 -29.333 -9.66895 -54.002 -29.002 -74.002
s-43.666 -30 -72.999 -30c-14 0 -27.167 2.83301 -39.5 8.5s-23 13.334 -32 23.001s-16 20.834 -21 33.501s-7.5 25.667 -7.5 39c0 29.333 10 54 30 74s44.667 30 74 30c14.667 0 28 -2.83301 40 -8.5s22.333 -13.167 31 -22.5s15.334 -20.333 20.001 -33s7 -26 7 -40z" />
    <glyph glyph-name="yacute" unicode="&#xfd;" horiz-adv-x="790" 
d="M787 848l-96 -6l-238 -1080l82 -4v-166l-344 -4l-6 156l96 10l56 240l-252 878h-92l10 170l336 -4l4 -162l-88 -8l158 -604l116 594l-78 10l-10 160l346 4v-184zM667 1344l-222 -232l-94 30l130 252z" />
    <glyph glyph-name="thorn" unicode="&#xfe;" horiz-adv-x="775" 
d="M723 510c0 -32.667 -1.50098 -68.3301 -4.50098 -106.997s-8.33301 -77.334 -16 -116.001s-18.667 -76.167 -33 -112.5s-32.666 -68.5 -54.999 -96.5s-49.333 -50.333 -81 -67s-69.167 -25 -112.5 -25c-33.333 0 -63.833 9.66699 -91.5 29s-49.167 43 -64.5 71v-338
l90 -2v-158h-382l6 170l104 -4l12 1508l-132 -4v164l268 10l14 -516c10.667 16 23.667 31 39 45s32 26.333 50 37s37 19 57 25s40 9 60 9c37.333 0 70 -9.16699 98 -27.5s52 -42.333 72 -72s36.667 -63.334 50 -101.001s23.833 -75.834 31.5 -114.501s13 -76.167 16 -112.5
s4.5 -67.833 4.5 -94.5zM546.999 496.004c0 14.667 -0.331055 33.834 -0.998047 57.501s-2.5 48.667 -5.5 75s-7.5 52.833 -13.5 79.5s-14.333 50.667 -25 72s-24.167 38.666 -40.5 51.999s-35.833 20 -58.5 20c-20.667 0 -38.834 -3.66699 -54.501 -11
s-28.834 -17.5 -39.501 -30.5s-18.834 -28.167 -24.501 -45.5s-8.83398 -35.666 -9.50098 -54.999l-4 -187.5c-1.33301 -62.333 -2 -125.166 -2 -188.499c0 -15.333 2.83301 -33.166 8.5 -53.499s13.834 -39.5 24.501 -57.5s23.5 -33.333 38.5 -46s31.833 -19 50.5 -19
c24.667 0 45.834 6 63.501 18s32.167 27.667 43.5 47s20.333 41.166 27 65.499s11.667 49.166 15 74.499s5.33301 49.666 6 72.999s1 43.333 1 60z" />
    <glyph glyph-name="ydieresis" unicode="&#xff;" horiz-adv-x="790" 
d="M787 848l-96 -6l-238 -1080l82 -4v-166l-344 -4l-6 156l96 10l56 240l-252 878h-92l10 170l336 -4l4 -162l-88 -8l158 -604l116 594l-78 10l-10 160l346 4v-184zM631 1223c0 -26 -8.83301 -47.833 -26.5 -65.5s-39.5 -26.5 -65.5 -26.5s-47.5 9 -64.5 27
s-25.5 39.667 -25.5 65c0 26 8.83301 48.167 26.5 66.5s39.5 27.5 65.5 27.5s47.5 -9.16699 64.5 -27.5s25.5 -40.5 25.5 -66.5zM351 1223c0 -29.333 -9.66895 -54.002 -29.002 -74.002s-43.666 -30 -72.999 -30c-14 0 -27.167 2.83301 -39.5 8.5s-23 13.334 -32 23.001
s-16 20.834 -21 33.501s-7.5 25.667 -7.5 39c0 29.333 10 54 30 74s44.667 30 74 30c14.667 0 28 -2.83301 40 -8.5s22.333 -13.167 31 -22.5s15.334 -20.333 20.001 -33s7 -26 7 -40z" />
    <glyph glyph-name="Amacron" unicode="&#x100;" horiz-adv-x="960" 
d="M973 162l-14 -190l-406 10l-10 194l124 -4l-52 292l-264 -12l-42 -260l116 -10l-16 -180h-406l-10 194l124 -4l218 1068l-102 -4l-10 170l510 10l-10 -160l-100 -4l226 -1100zM587 620l-108 614l-100 -614h208zM686 1504l-412 10l10 124h392z" />
    <glyph glyph-name="amacron" unicode="&#x101;" horiz-adv-x="766" 
d="M740 170l-3.99902 -159.996l-206 -20l-10 116c-14 -15.333 -30.167 -29.833 -48.5 -43.5s-38 -26 -59 -37s-42.667 -19.667 -65 -26s-44.166 -9.5 -65.499 -9.5c-41.333 0 -76.166 8.16699 -104.499 24.5s-51 38 -68 65s-29.167 57.833 -36.5 92.5s-11 70 -11 106
c0 45.333 7.5 86.666 22.5 123.999s36 69.166 63 95.499s59.5 46.666 97.5 60.999s79.667 21.5 125 21.5c18 0 35.833 -1.16699 53.5 -3.5s35.167 -6.5 52.5 -12.5c1.33301 11.333 2 22 2 32v32c0 6 -0.333008 15.833 -1 29.5s-1.83398 29 -3.50098 46
s-4.16699 34.667 -7.5 53s-7.83301 35 -13.5 50s-12.334 27.333 -20.001 37s-17.167 14.5 -28.5 14.5c-12.667 0 -25 -4.33301 -37 -13s-23.333 -19.834 -34 -33.501s-20.5 -29 -29.5 -46s-17.167 -33.833 -24.5 -50.5s-13.666 -32.167 -18.999 -46.5
s-9.33301 -25.833 -12 -34.5l-170 8l-6 372l166 4v-146c6.66699 17.333 15.667 35.333 27 54s24.5 35.5 39.5 50.5s31.667 27.333 50 37s38.166 14.5 59.499 14.5c50.667 0 91.5 -7.66699 122.5 -23s54.667 -36.833 71 -64.5s27.166 -61 32.499 -100s8 -81.833 8 -128.5
c0 -90.667 -0.666992 -181 -2 -271s-6 -180.333 -14 -271h108zM482.001 238.004l-0.00292969 146c-9.33301 13.333 -23.166 22 -41.499 26s-35.166 6 -50.499 6c-48 0 -87 -11.833 -117 -35.5s-45 -61.167 -45 -112.5c0 -31.333 8.33301 -57.833 25 -79.5
s41.667 -32.5 75 -32.5c10.667 0 24.834 1.5 42.501 4.5s34.667 7.83301 51 14.5s30.5 15.167 42.5 25.5s18 22.833 18 37.5zM588.998 1079l-412 10l10 124h392z" />
    <glyph glyph-name="Abreve" unicode="&#x102;" horiz-adv-x="960" 
d="M973 162l-14 -190l-406 10l-10 194l124 -4l-52 292l-264 -12l-42 -260l116 -10l-16 -180h-406l-10 194l124 -4l218 1068l-102 -4l-10 170l510 10l-10 -160l-100 -4l226 -1100zM587 620l-108 614l-100 -614h208zM707 1740c-4.66699 -29.333 -13.167 -57.668 -25.5 -85.001
s-28.333 -51.5 -48 -72.5s-42.5 -38 -68.5 -51s-54.667 -19.5 -86 -19.5s-60.333 5.66699 -87 17s-49.834 26.833 -69.501 46.5s-35.5 42.667 -47.5 69s-19.333 54.833 -22 85.5l106 22c5.33301 -37.333 19.333 -64.666 42 -81.999s52 -26 88 -26
c15.333 0 29.333 3.5 42 10.5s23.834 16.167 33.501 27.5s17.5 24 23.5 38s10.333 28 13 42z" />
    <glyph glyph-name="abreve" unicode="&#x103;" horiz-adv-x="766" 
d="M740 170l-3.99902 -159.996l-206 -20l-10 116c-14 -15.333 -30.167 -29.833 -48.5 -43.5s-38 -26 -59 -37s-42.667 -19.667 -65 -26s-44.166 -9.5 -65.499 -9.5c-41.333 0 -76.166 8.16699 -104.499 24.5s-51 38 -68 65s-29.167 57.833 -36.5 92.5s-11 70 -11 106
c0 45.333 7.5 86.666 22.5 123.999s36 69.166 63 95.499s59.5 46.666 97.5 60.999s79.667 21.5 125 21.5c18 0 35.833 -1.16699 53.5 -3.5s35.167 -6.5 52.5 -12.5c1.33301 11.333 2 22 2 32v32c0 6 -0.333008 15.833 -1 29.5s-1.83398 29 -3.50098 46
s-4.16699 34.667 -7.5 53s-7.83301 35 -13.5 50s-12.334 27.333 -20.001 37s-17.167 14.5 -28.5 14.5c-12.667 0 -25 -4.33301 -37 -13s-23.333 -19.834 -34 -33.501s-20.5 -29 -29.5 -46s-17.167 -33.833 -24.5 -50.5s-13.666 -32.167 -18.999 -46.5
s-9.33301 -25.833 -12 -34.5l-170 8l-6 372l166 4v-146c6.66699 17.333 15.667 35.333 27 54s24.5 35.5 39.5 50.5s31.667 27.333 50 37s38.166 14.5 59.499 14.5c50.667 0 91.5 -7.66699 122.5 -23s54.667 -36.833 71 -64.5s27.166 -61 32.499 -100s8 -81.833 8 -128.5
c0 -90.667 -0.666992 -181 -2 -271s-6 -180.333 -14 -271h108zM482.001 238.004l-0.00292969 146c-9.33301 13.333 -23.166 22 -41.499 26s-35.166 6 -50.499 6c-48 0 -87 -11.833 -117 -35.5s-45 -61.167 -45 -112.5c0 -31.333 8.33301 -57.833 25 -79.5
s41.667 -32.5 75 -32.5c10.667 0 24.834 1.5 42.501 4.5s34.667 7.83301 51 14.5s30.5 15.167 42.5 25.5s18 22.833 18 37.5zM609.998 1316c-4.66699 -29.333 -13.167 -57.668 -25.5 -85.001s-28.333 -51.5 -48 -72.5s-42.5 -38 -68.5 -51s-54.667 -19.5 -86 -19.5
s-60.333 5.66699 -87 17s-49.834 26.833 -69.501 46.5s-35.5 42.667 -47.5 69s-19.333 54.833 -22 85.5l106 22c5.33301 -37.333 19.333 -64.666 42 -81.999s52 -26 88 -26c15.333 0 29.333 3.5 42 10.5s23.834 16.167 33.501 27.5s17.5 24 23.5 38s10.333 28 13 42z" />
    <glyph glyph-name="Aogonek" unicode="&#x104;" horiz-adv-x="960" 
d="M906 -308c-14 -4 -28.001 -7.33398 -42.001 -10.001s-28.667 -4 -44 -4c-25.333 0 -48.666 3.83301 -69.999 11.5s-39.5 18.834 -54.5 33.501s-26.667 32.334 -35 53.001s-12.5 44 -12.5 70c0 22.667 3.66699 45.167 11 67.5s17.333 44.166 30 65.499l-136 3l-10 194
l124 -4l-52 292l-264 -12l-42 -260l116 -10l-16 -180h-406l-10 194l124 -4l218 1068l-102 -4l-10 170l510 10l-10 -160l-100 -4l226 -1100l124 -10l-14 -190l-159 4c-10 -17.333 -18.167 -35.5 -24.5 -54.5s-9.5 -36.833 -9.5 -53.5c0 -23.333 4.83301 -40.833 14.5 -52.5
s26.167 -17.5 49.5 -17.5c18.667 0 36 4 52 12zM586.999 619.999l-108 614l-100 -614h208z" />
    <glyph glyph-name="aogonek" unicode="&#x105;" horiz-adv-x="766" 
d="M740 -308c-14 -4 -28.001 -7.33301 -42.001 -10s-28.667 -4 -44 -4c-25.333 0 -48.666 3.83301 -69.999 11.5s-39.5 18.834 -54.5 33.501s-26.667 32.334 -35 53.001s-12.5 44 -12.5 70c0 24.667 4.33301 49.334 13 74.001s20.334 48 35.001 70l-10 116
c-14 -15.333 -30.167 -29.833 -48.5 -43.5s-38 -26 -59 -37s-42.667 -19.667 -65 -26s-44.166 -9.5 -65.499 -9.5c-41.333 0 -76.166 8.16699 -104.499 24.5s-51 38 -68 65s-29.167 57.833 -36.5 92.5s-11 70 -11 106c0 45.333 7.5 86.666 22.5 123.999s36 69.166 63 95.499
s59.5 46.666 97.5 60.999s79.667 21.5 125 21.5c18 0 35.833 -1.16699 53.5 -3.5s35.167 -6.5 52.5 -12.5c1.33301 11.333 2 22 2 32v32c0 6 -0.333008 15.833 -1 29.5s-1.83398 29 -3.50098 46s-4.16699 34.667 -7.5 53s-7.83301 35 -13.5 50s-12.334 27.333 -20.001 37
s-17.167 14.5 -28.5 14.5c-12.667 0 -25 -4.33301 -37 -13s-23.333 -19.834 -34 -33.501s-20.5 -29 -29.5 -46s-17.167 -33.833 -24.5 -50.5s-13.666 -32.167 -18.999 -46.5s-9.33301 -25.833 -12 -34.5l-170 8l-6 372l166 4v-146c6.66699 17.333 15.667 35.333 27 54
s24.5 35.5 39.5 50.5s31.667 27.333 50 37s38.166 14.5 59.499 14.5c50.667 0 91.5 -7.66699 122.5 -23s54.667 -36.833 71 -64.5s27.166 -61 32.499 -100s8 -81.833 8 -128.5c0 -90.667 -0.666992 -181 -2 -271s-6 -180.333 -14 -271h108l-4 -160l-87 -9
c-13.333 -20.667 -24.833 -42.667 -34.5 -66s-14.5 -45.666 -14.5 -66.999c0 -23.333 4.83301 -40.833 14.5 -52.5s26.167 -17.5 49.5 -17.5c18.667 0 36 4 52 12zM481.999 238l-0.00292969 146c-9.33301 13.333 -23.166 22 -41.499 26s-35.166 6 -50.499 6
c-48 0 -87 -11.833 -117 -35.5s-45 -61.167 -45 -112.5c0 -31.333 8.33301 -57.833 25 -79.5s41.667 -32.5 75 -32.5c10.667 0 24.834 1.5 42.501 4.5s34.667 7.83301 51 14.5s30.5 15.167 42.5 25.5s18 22.833 18 37.5z" />
    <glyph glyph-name="Cacute" unicode="&#x106;" horiz-adv-x="1033" 
d="M983 1444l-22.0049 -509.996l-158 6c-4 23.333 -9.16699 47.666 -15.5 72.999s-14.333 50 -24 74s-21.167 46.833 -34.5 68.5s-29 40.667 -47 57s-38.333 29.333 -61 39s-48 14.5 -76 14.5c-42 0 -78.5 -9 -109.5 -27s-57.5 -42 -79.5 -72s-40.167 -64.167 -54.5 -102.5
s-25.5 -77.5 -33.5 -117.5s-13.5 -79.5 -16.5 -118.5s-4.5 -73.833 -4.5 -104.5c0 -28.667 1.33301 -62.167 4 -100.5s7.83398 -77.833 15.501 -118.5s18.167 -80.834 31.5 -120.501s30.5 -75 51.5 -106s46.167 -56.167 75.5 -75.5s64 -29 104 -29
c48.667 0 89.5 10.667 122.5 32s59.833 48.833 80.5 82.5s35.834 71.334 45.501 113.001s16.167 83.167 19.5 124.5h158c0 -68.667 -8.5 -135.334 -25.5 -200.001s-43.167 -122 -78.5 -172s-80.166 -90.167 -134.499 -120.5s-118.833 -45.5 -193.5 -45.5
c-57.333 0 -108.666 11.667 -153.999 35s-85.166 54.5 -119.499 93.5s-63.5 83.667 -87.5 134s-43.667 102.5 -59 156.5s-26.5 107.833 -33.5 161.5s-10.5 102.834 -10.5 147.501c0 50.667 3.16699 104 9.5 160s16.666 111.167 30.999 165.5s33.333 106.166 57 155.499
s53.167 92.666 88.5 129.999s77 67.166 125 89.499s103 33.5 165 33.5c62.667 0 115.334 -14.667 158.001 -44s80 -70 112 -122l2 164zM813.995 1734l-222 -232l-94 30l130 252z" />
    <glyph glyph-name="cacute" unicode="&#x107;" horiz-adv-x="738" 
d="M687 1022l-10.0029 -410l-162 4c-0.666992 18.667 -3.16699 42.167 -7.5 70.5s-11.5 56 -21.5 83s-23.667 50.167 -41 69.5s-39.333 29 -66 29c-21.333 0 -39.5 -7 -54.5 -21s-27.5 -32 -37.5 -54s-18 -46.667 -24 -74s-10.5 -54.333 -13.5 -81
s-4.83301 -51.5 -5.5 -74.5s-1 -41.5 -1 -55.5c0 -15.333 0.166992 -34.5 0.5 -57.5s1.66602 -47.333 3.99902 -73s6 -51.334 11 -77.001s12.667 -48.834 23 -69.501s23.333 -37.334 39 -50.001s35.167 -19 58.5 -19c27.333 0 50 9.33301 68 28s32.5 41.167 43.5 67.5
s18.667 53.833 23 82.5s6.83301 53.334 7.5 74.001h160c-0.666992 -45.333 -6.66699 -92.666 -18 -141.999s-29.166 -94.833 -53.499 -136.5s-55.5 -76 -93.5 -103s-83.667 -40.5 -137 -40.5c-46.667 0 -87.167 7.66699 -121.5 23s-63.666 36.166 -87.999 62.499
s-44.166 57 -59.499 92s-27.333 71.667 -36 110s-14.667 77.5 -18 117.5s-5 78.333 -5 115c0 32 2 67.167 6 105.5s10.833 76.833 20.5 115.5s22.5 76.334 38.5 113.001s35.833 69 59.5 97s51.334 50.5 83.001 67.5s68.5 25.5 110.5 25.5c33.333 0 65 -8.66699 95 -26
s55.667 -38.666 77 -63.999l20 86zM652.997 1344l-222 -232l-94 30l130 252z" />
    <glyph glyph-name="Ccircumflex" unicode="&#x108;" horiz-adv-x="1033" 
d="M983 1444l-22.0049 -509.996l-158 6c-4 23.333 -9.16699 47.666 -15.5 72.999s-14.333 50 -24 74s-21.167 46.833 -34.5 68.5s-29 40.667 -47 57s-38.333 29.333 -61 39s-48 14.5 -76 14.5c-42 0 -78.5 -9 -109.5 -27s-57.5 -42 -79.5 -72s-40.167 -64.167 -54.5 -102.5
s-25.5 -77.5 -33.5 -117.5s-13.5 -79.5 -16.5 -118.5s-4.5 -73.833 -4.5 -104.5c0 -28.667 1.33301 -62.167 4 -100.5s7.83398 -77.833 15.501 -118.5s18.167 -80.834 31.5 -120.501s30.5 -75 51.5 -106s46.167 -56.167 75.5 -75.5s64 -29 104 -29
c48.667 0 89.5 10.667 122.5 32s59.833 48.833 80.5 82.5s35.834 71.334 45.501 113.001s16.167 83.167 19.5 124.5h158c0 -68.667 -8.5 -135.334 -25.5 -200.001s-43.167 -122 -78.5 -172s-80.166 -90.167 -134.499 -120.5s-118.833 -45.5 -193.5 -45.5
c-57.333 0 -108.666 11.667 -153.999 35s-85.166 54.5 -119.499 93.5s-63.5 83.667 -87.5 134s-43.667 102.5 -59 156.5s-26.5 107.833 -33.5 161.5s-10.5 102.834 -10.5 147.501c0 50.667 3.16699 104 9.5 160s16.666 111.167 30.999 165.5s33.333 106.166 57 155.499
s53.167 92.666 88.5 129.999s77 67.166 125 89.499s103 33.5 165 33.5c62.667 0 115.334 -14.667 158.001 -44s80 -70 112 -122l2 164zM746.995 1538l-142 -30l-92 174l-88 -174l-140 30l162 242l136 10z" />
    <glyph glyph-name="ccircumflex" unicode="&#x109;" horiz-adv-x="738" 
d="M687 1022l-10.0029 -410l-162 4c-0.666992 18.667 -3.16699 42.167 -7.5 70.5s-11.5 56 -21.5 83s-23.667 50.167 -41 69.5s-39.333 29 -66 29c-21.333 0 -39.5 -7 -54.5 -21s-27.5 -32 -37.5 -54s-18 -46.667 -24 -74s-10.5 -54.333 -13.5 -81
s-4.83301 -51.5 -5.5 -74.5s-1 -41.5 -1 -55.5c0 -15.333 0.166992 -34.5 0.5 -57.5s1.66602 -47.333 3.99902 -73s6 -51.334 11 -77.001s12.667 -48.834 23 -69.501s23.333 -37.334 39 -50.001s35.167 -19 58.5 -19c27.333 0 50 9.33301 68 28s32.5 41.167 43.5 67.5
s18.667 53.833 23 82.5s6.83301 53.334 7.5 74.001h160c-0.666992 -45.333 -6.66699 -92.666 -18 -141.999s-29.166 -94.833 -53.499 -136.5s-55.5 -76 -93.5 -103s-83.667 -40.5 -137 -40.5c-46.667 0 -87.167 7.66699 -121.5 23s-63.666 36.166 -87.999 62.499
s-44.166 57 -59.499 92s-27.333 71.667 -36 110s-14.667 77.5 -18 117.5s-5 78.333 -5 115c0 32 2 67.167 6 105.5s10.833 76.833 20.5 115.5s22.5 76.334 38.5 113.001s35.833 69 59.5 97s51.334 50.5 83.001 67.5s68.5 25.5 110.5 25.5c33.333 0 65 -8.66699 95 -26
s55.667 -38.666 77 -63.999l20 86zM599.997 1105l-142 -30l-92 174l-88 -174l-140 30l162 242l136 10z" />
    <glyph glyph-name="Cdotaccent" unicode="&#x10a;" horiz-adv-x="1033" 
d="M983 1444l-22.0049 -509.996l-158 6c-4 23.333 -9.16699 47.666 -15.5 72.999s-14.333 50 -24 74s-21.167 46.833 -34.5 68.5s-29 40.667 -47 57s-38.333 29.333 -61 39s-48 14.5 -76 14.5c-42 0 -78.5 -9 -109.5 -27s-57.5 -42 -79.5 -72s-40.167 -64.167 -54.5 -102.5
s-25.5 -77.5 -33.5 -117.5s-13.5 -79.5 -16.5 -118.5s-4.5 -73.833 -4.5 -104.5c0 -28.667 1.33301 -62.167 4 -100.5s7.83398 -77.833 15.501 -118.5s18.167 -80.834 31.5 -120.501s30.5 -75 51.5 -106s46.167 -56.167 75.5 -75.5s64 -29 104 -29
c48.667 0 89.5 10.667 122.5 32s59.833 48.833 80.5 82.5s35.834 71.334 45.501 113.001s16.167 83.167 19.5 124.5h158c0 -68.667 -8.5 -135.334 -25.5 -200.001s-43.167 -122 -78.5 -172s-80.166 -90.167 -134.499 -120.5s-118.833 -45.5 -193.5 -45.5
c-57.333 0 -108.666 11.667 -153.999 35s-85.166 54.5 -119.499 93.5s-63.5 83.667 -87.5 134s-43.667 102.5 -59 156.5s-26.5 107.833 -33.5 161.5s-10.5 102.834 -10.5 147.501c0 50.667 3.16699 104 9.5 160s16.666 111.167 30.999 165.5s33.333 106.166 57 155.499
s53.167 92.666 88.5 129.999s77 67.166 125 89.499s103 33.5 165 33.5c62.667 0 115.334 -14.667 158.001 -44s80 -70 112 -122l2 164zM616.995 1612c0 -29.333 -9.66895 -54.002 -29.002 -74.002s-43.666 -30 -72.999 -30c-14 0 -27.167 2.83301 -39.5 8.5
s-23 13.334 -32 23.001s-16 20.834 -21 33.501s-7.5 25.667 -7.5 39c0 29.333 10 54 30 74s44.667 30 74 30c14.667 0 28 -2.83301 40 -8.5s22.333 -13.167 31 -22.5s15.334 -20.333 20.001 -33s7 -26 7 -40z" />
    <glyph glyph-name="cdotaccent" unicode="&#x10b;" horiz-adv-x="738" 
d="M687 1022l-10.0029 -410l-162 4c-0.666992 18.667 -3.16699 42.167 -7.5 70.5s-11.5 56 -21.5 83s-23.667 50.167 -41 69.5s-39.333 29 -66 29c-21.333 0 -39.5 -7 -54.5 -21s-27.5 -32 -37.5 -54s-18 -46.667 -24 -74s-10.5 -54.333 -13.5 -81
s-4.83301 -51.5 -5.5 -74.5s-1 -41.5 -1 -55.5c0 -15.333 0.166992 -34.5 0.5 -57.5s1.66602 -47.333 3.99902 -73s6 -51.334 11 -77.001s12.667 -48.834 23 -69.501s23.333 -37.334 39 -50.001s35.167 -19 58.5 -19c27.333 0 50 9.33301 68 28s32.5 41.167 43.5 67.5
s18.667 53.833 23 82.5s6.83301 53.334 7.5 74.001h160c-0.666992 -45.333 -6.66699 -92.666 -18 -141.999s-29.166 -94.833 -53.499 -136.5s-55.5 -76 -93.5 -103s-83.667 -40.5 -137 -40.5c-46.667 0 -87.167 7.66699 -121.5 23s-63.666 36.166 -87.999 62.499
s-44.166 57 -59.499 92s-27.333 71.667 -36 110s-14.667 77.5 -18 117.5s-5 78.333 -5 115c0 32 2 67.167 6 105.5s10.833 76.833 20.5 115.5s22.5 76.334 38.5 113.001s35.833 69 59.5 97s51.334 50.5 83.001 67.5s68.5 25.5 110.5 25.5c33.333 0 65 -8.66699 95 -26
s55.667 -38.666 77 -63.999l20 86zM469.997 1199c0 -29.333 -9.66895 -54.002 -29.002 -74.002s-43.666 -30 -72.999 -30c-14 0 -27.167 2.83301 -39.5 8.5s-23 13.334 -32 23.001s-16 20.834 -21 33.501s-7.5 25.667 -7.5 39c0 29.333 10 54 30 74s44.667 30 74 30
c14.667 0 28 -2.83301 40 -8.5s22.333 -13.167 31 -22.5s15.334 -20.333 20.001 -33s7 -26 7 -40z" />
    <glyph glyph-name="Ccaron" unicode="&#x10c;" horiz-adv-x="1033" 
d="M983 1444l-22.0049 -509.996l-158 6c-4 23.333 -9.16699 47.666 -15.5 72.999s-14.333 50 -24 74s-21.167 46.833 -34.5 68.5s-29 40.667 -47 57s-38.333 29.333 -61 39s-48 14.5 -76 14.5c-42 0 -78.5 -9 -109.5 -27s-57.5 -42 -79.5 -72s-40.167 -64.167 -54.5 -102.5
s-25.5 -77.5 -33.5 -117.5s-13.5 -79.5 -16.5 -118.5s-4.5 -73.833 -4.5 -104.5c0 -28.667 1.33301 -62.167 4 -100.5s7.83398 -77.833 15.501 -118.5s18.167 -80.834 31.5 -120.501s30.5 -75 51.5 -106s46.167 -56.167 75.5 -75.5s64 -29 104 -29
c48.667 0 89.5 10.667 122.5 32s59.833 48.833 80.5 82.5s35.834 71.334 45.501 113.001s16.167 83.167 19.5 124.5h158c0 -68.667 -8.5 -135.334 -25.5 -200.001s-43.167 -122 -78.5 -172s-80.166 -90.167 -134.499 -120.5s-118.833 -45.5 -193.5 -45.5
c-57.333 0 -108.666 11.667 -153.999 35s-85.166 54.5 -119.499 93.5s-63.5 83.667 -87.5 134s-43.667 102.5 -59 156.5s-26.5 107.833 -33.5 161.5s-10.5 102.834 -10.5 147.501c0 50.667 3.16699 104 9.5 160s16.666 111.167 30.999 165.5s33.333 106.166 57 155.499
s53.167 92.666 88.5 129.999s77 67.166 125 89.499s103 33.5 165 33.5c62.667 0 115.334 -14.667 158.001 -44s80 -70 112 -122l2 164zM746.995 1765l-162 -242l-134 -10l-166 252l142 30l92 -174l88 174z" />
    <glyph glyph-name="ccaron" unicode="&#x10d;" horiz-adv-x="738" 
d="M687 1022l-10.0029 -410l-162 4c-0.666992 18.667 -3.16699 42.167 -7.5 70.5s-11.5 56 -21.5 83s-23.667 50.167 -41 69.5s-39.333 29 -66 29c-21.333 0 -39.5 -7 -54.5 -21s-27.5 -32 -37.5 -54s-18 -46.667 -24 -74s-10.5 -54.333 -13.5 -81
s-4.83301 -51.5 -5.5 -74.5s-1 -41.5 -1 -55.5c0 -15.333 0.166992 -34.5 0.5 -57.5s1.66602 -47.333 3.99902 -73s6 -51.334 11 -77.001s12.667 -48.834 23 -69.501s23.333 -37.334 39 -50.001s35.167 -19 58.5 -19c27.333 0 50 9.33301 68 28s32.5 41.167 43.5 67.5
s18.667 53.833 23 82.5s6.83301 53.334 7.5 74.001h160c-0.666992 -45.333 -6.66699 -92.666 -18 -141.999s-29.166 -94.833 -53.499 -136.5s-55.5 -76 -93.5 -103s-83.667 -40.5 -137 -40.5c-46.667 0 -87.167 7.66699 -121.5 23s-63.666 36.166 -87.999 62.499
s-44.166 57 -59.499 92s-27.333 71.667 -36 110s-14.667 77.5 -18 117.5s-5 78.333 -5 115c0 32 2 67.167 6 105.5s10.833 76.833 20.5 115.5s22.5 76.334 38.5 113.001s35.833 69 59.5 97s51.334 50.5 83.001 67.5s68.5 25.5 110.5 25.5c33.333 0 65 -8.66699 95 -26
s55.667 -38.666 77 -63.999l20 86zM599.997 1345l-162 -242l-134 -10l-166 252l142 30l92 -174l88 174z" />
    <glyph glyph-name="Dcaron" unicode="&#x10e;" horiz-adv-x="1029" 
d="M966 704c0 -58 -3.83008 -118.499 -11.4971 -181.499s-21.334 -124 -41.001 -183s-46.334 -113.833 -80.001 -164.5s-76.834 -93 -129.501 -127c-32 -21.333 -66.5 -37.666 -103.5 -48.999s-74.5 -17 -112.5 -17h-6l-402 6l-6 184h118l-2 1054l-114 -4l-10 194
c58.667 4 116.834 6.66699 174.501 8s116.167 2 175.5 2h114c60.667 0 113.667 -11.333 159 -34s84.166 -53 116.499 -91s58.833 -81.667 79.5 -131s37 -100.833 49 -154.5s20.333 -107.334 25 -161.001s7 -103.834 7 -150.501zM782.003 728.001l0.000976562 18.002
c0 22.667 -1.5 50.5 -4.5 83.5s-7.83301 67.833 -14.5 104.5s-16 73 -28 109s-26.667 68.5 -44 97.5s-38.166 52.5 -62.499 70.5s-52.5 27 -84.5 27h-64h-54c-18 0 -36 -0.666992 -54 -2l-10 -1074c13.333 -1.33301 26.333 -2.33301 39 -3s25.667 -1 39 -1
c35.333 0 70 2 104 6c37.333 6 69.166 20.167 95.499 42.5s48.333 49.666 66 81.999s31.5 68.166 41.5 107.499s17.667 78.833 23 118.5s8.66602 78.167 9.99902 115.5s2 70 2 98zM745.004 1734l-162 -242l-134 -10l-166 252l142 30l92 -174l88 174z" />
    <glyph glyph-name="dcaron" unicode="&#x10f;" horiz-adv-x="1079" 
d="M821 -2l-268 -7.99902l-14 116c-22 -36 -51.333 -64.333 -88 -85s-76 -31 -118 -31c-41.333 0 -76.833 8.66699 -106.5 26s-55 40.333 -76 69s-38 61.334 -51 98.001s-23 74.334 -30 113.001s-11.833 76.667 -14.5 114s-4 71.333 -4 102s2 65.167 6 103.5
s10.833 77.166 20.5 116.499s22.334 77.666 38.001 114.999s35 70.666 58 99.999s50.167 52.833 81.5 70.5s67.333 26.5 108 26.5c31.333 0 61.166 -8.16699 89.499 -24.5s50.5 -37.5 66.5 -63.5v326h-180v172l366 -6l-16 -1288l132 4v-166zM513 736.001
c-4 12 -9.66992 25.332 -17.0029 39.999s-16.166 28.5 -26.499 41.5s-22 24 -35 33s-26.833 13.5 -41.5 13.5c-22 0 -41.167 -6.33301 -57.5 -19s-30.166 -29 -41.499 -49s-20.833 -42.5 -28.5 -67.5s-13.5 -50 -17.5 -75s-6.83301 -48.667 -8.5 -71
s-2.5 -41.166 -2.5 -56.499v-55c0 -22.667 1 -47.167 3 -73.5s5.5 -53 10.5 -80s12.167 -51.5 21.5 -73.5s21.333 -39.833 36 -53.5s33 -20.5 55 -20.5c16.667 0 32.667 4.83301 48 14.5s29.333 21.667 42 36s23.834 29.5 33.501 45.5s17.167 30.667 22.5 44zM1029 1294
c0 -50 -11.833 -96 -35.5 -138s-56.5 -76 -98.5 -102l-52 42c8 8 17.5 19 28.5 33s17.5 27 19.5 39c-16.667 1.33301 -32 5.66602 -46 12.999s-26.167 16.5 -36.5 27.5s-18.5 23.833 -24.5 38.5s-9 30.334 -9 47.001c0 17.333 3.33301 33.833 10 49.5
s15.667 29.334 27 41.001s24.666 20.834 39.999 27.501s31.666 10 48.999 10s33.833 -3.33301 49.5 -10s29.334 -15.834 41.001 -27.501s20.834 -25.334 27.501 -41.001s10 -32.167 10 -49.5z" />
    <glyph glyph-name="Dcroat" unicode="&#x110;" horiz-adv-x="1029" 
d="M190 570l-109.997 -1.99902l-6 186h116v472l-114 -4l-10 194c58.667 4 116.834 6.66699 174.501 8s116.167 2 175.5 2h114c60.667 0 113.667 -11.333 159 -34s84.166 -53 116.499 -91s58.833 -81.667 79.5 -131s37 -100.833 49 -154.5s20.333 -107.334 25 -161.001
s7 -103.834 7 -150.501c0 -58 -3.83301 -118.5 -11.5 -181.5s-21.334 -124 -41.001 -183s-46.334 -113.833 -80.001 -164.5s-76.834 -93 -129.501 -127c-32 -21.333 -66.5 -37.666 -103.5 -48.999s-74.5 -17 -112.5 -17h-6l-402 6l-6 184h118zM542.003 758.001
l-9.99902 -179.998l-166 -4l-4 -412c13.333 -1.33301 26.333 -2.33301 39 -3s25.667 -1 39 -1c35.333 0 70 2 104 6c37.333 6 69.166 20.167 95.499 42.5s48.333 49.666 66 81.999s31.5 68.166 41.5 107.499s17.667 78.833 23 118.5s8.66602 78.167 9.99902 115.5s2 70 2 98
v18c0 22.667 -1.5 50.5 -4.5 83.5s-7.83301 67.833 -14.5 104.5s-16 73 -28 109s-26.667 68.5 -44 97.5s-38.166 52.5 -62.499 70.5s-52.5 27 -84.5 27h-64h-54c-18 0 -36 -0.666992 -54 -2l-4 -480z" />
    <glyph glyph-name="dcroat" unicode="&#x111;" horiz-adv-x="831" 
d="M808 1249l-8 -147.999l-100 -2l-11 -939l132 4v-166l-268 -8l-14 116c-22 -36 -51.333 -64.333 -88 -85s-76 -31 -118 -31c-41.333 0 -76.833 8.66699 -106.5 26s-55 40.333 -76 69s-38 61.334 -51 98.001s-23 74.334 -30 113.001s-11.833 76.667 -14.5 114
s-4 71.333 -4 102s2 65.167 6 103.5s10.833 77.166 20.5 116.499s22.334 77.666 38.001 114.999s35 70.666 58 99.999s50.167 52.833 81.5 70.5s67.333 26.5 108 26.5c31.333 0 61.166 -8.16699 89.499 -24.5s50.5 -37.5 66.5 -63.5v140l-217 -4l-5 154l222 1v35h-87v172
l273 -6l-3 -200zM513 736.001c-4 12 -9.66992 25.332 -17.0029 39.999s-16.166 28.5 -26.499 41.5s-22 24 -35 33s-26.833 13.5 -41.5 13.5c-22 0 -41.167 -6.33301 -57.5 -19s-30.166 -29 -41.499 -49s-20.833 -42.5 -28.5 -67.5s-13.5 -50 -17.5 -75
s-6.83301 -48.667 -8.5 -71s-2.5 -41.166 -2.5 -56.499v-55c0 -22.667 1 -47.167 3 -73.5s5.5 -53 10.5 -80s12.167 -51.5 21.5 -73.5s21.333 -39.833 36 -53.5s33 -20.5 55 -20.5c16.667 0 32.667 4.83301 48 14.5s29.333 21.667 42 36s23.834 29.5 33.501 45.5
s17.167 30.667 22.5 44z" />
    <glyph glyph-name="Emacron" unicode="&#x112;" horiz-adv-x="953" 
d="M903 1038l-148 -10l-20 206l-364 -8l-4 -446h304v-144l-306 -18l-4 -446l374 14v220h148l10 -398l-814 -20l-6 184h118l-2 1054l-124 -4l10 194l818 10zM682 1495l-412 10l10 124h392z" />
    <glyph glyph-name="emacron" unicode="&#x113;" horiz-adv-x="718" 
d="M667 606c0 -54.667 -1.99902 -107.996 -5.99902 -159.996l-430 -8c0 -14 0.666992 -30.833 2 -50.5s3.5 -40.334 6.5 -62.001s7.33301 -43 13 -64s13.167 -40 22.5 -57s20.833 -30.667 34.5 -41s30.167 -15.5 49.5 -15.5c20.667 0 38.5 5.5 53.5 16.5
s27.333 24.667 37 41s17.167 34.166 22.5 53.499s9 37.666 11 54.999h174c-6 -38 -16 -76.333 -30 -115s-32.667 -73.667 -56 -105s-51.666 -56.833 -84.999 -76.5s-72.333 -29.5 -117 -29.5c-46.667 0 -86.834 8.83301 -120.501 26.5s-62.167 41.167 -85.5 70.5
s-42.333 63.166 -57 101.499s-25.834 78 -33.501 119s-12.834 82.167 -15.501 123.5s-4 79.666 -4 114.999c0 32 1.83301 66.667 5.5 104s9.83398 74.333 18.501 111s20.5 72 35.5 106s33.833 63.833 56.5 89.5s49.667 46.334 81 62.001s67.666 23.5 108.999 23.5
c70.667 0 126.334 -11.167 167.001 -33.5s71.5 -53 92.5 -92s34.333 -85 40 -138s8.5 -109.833 8.5 -170.5zM493.001 664.004c0 20 -1.16797 42.667 -3.50098 68s-7.66602 49.333 -15.999 72s-20.5 41.667 -36.5 57s-37.333 23 -64 23c-23.333 0 -43 -5.16699 -59 -15.5
s-29.333 -23.833 -40 -40.5s-19 -35.834 -25 -57.501s-10.333 -43.667 -13 -66s-4.5 -44.166 -5.5 -65.499s-1.5 -40.333 -1.5 -57h258c4 28 6 55.333 6 82zM565 1097l-412 10l10 124h392z" />
    <glyph glyph-name="Ebreve" unicode="&#x114;" horiz-adv-x="953" 
d="M903 1038l-148 -10l-20 206l-364 -8l-4 -446h304v-144l-306 -18l-4 -446l374 14v220h148l10 -398l-814 -20l-6 184h118l-2 1054l-124 -4l10 194l818 10zM703 1709c-4.66699 -29.333 -13.167 -57.668 -25.5 -85.001s-28.333 -51.5 -48 -72.5s-42.5 -38 -68.5 -51
s-54.667 -19.5 -86 -19.5s-60.333 5.66699 -87 17s-49.834 26.833 -69.501 46.5s-35.5 42.667 -47.5 69s-19.333 54.833 -22 85.5l106 22c5.33301 -37.333 19.333 -64.666 42 -81.999s52 -26 88 -26c15.333 0 29.333 3.5 42 10.5s23.834 16.167 33.501 27.5s17.5 24 23.5 38
s10.333 28 13 42z" />
    <glyph glyph-name="ebreve" unicode="&#x115;" horiz-adv-x="718" 
d="M667 606c0 -54.667 -1.99902 -107.996 -5.99902 -159.996l-430 -8c0 -14 0.666992 -30.833 2 -50.5s3.5 -40.334 6.5 -62.001s7.33301 -43 13 -64s13.167 -40 22.5 -57s20.833 -30.667 34.5 -41s30.167 -15.5 49.5 -15.5c20.667 0 38.5 5.5 53.5 16.5
s27.333 24.667 37 41s17.167 34.166 22.5 53.499s9 37.666 11 54.999h174c-6 -38 -16 -76.333 -30 -115s-32.667 -73.667 -56 -105s-51.666 -56.833 -84.999 -76.5s-72.333 -29.5 -117 -29.5c-46.667 0 -86.834 8.83301 -120.501 26.5s-62.167 41.167 -85.5 70.5
s-42.333 63.166 -57 101.499s-25.834 78 -33.501 119s-12.834 82.167 -15.501 123.5s-4 79.666 -4 114.999c0 32 1.83301 66.667 5.5 104s9.83398 74.333 18.501 111s20.5 72 35.5 106s33.833 63.833 56.5 89.5s49.667 46.334 81 62.001s67.666 23.5 108.999 23.5
c70.667 0 126.334 -11.167 167.001 -33.5s71.5 -53 92.5 -92s34.333 -85 40 -138s8.5 -109.833 8.5 -170.5zM493.001 664.004c0 20 -1.16797 42.667 -3.50098 68s-7.66602 49.333 -15.999 72s-20.5 41.667 -36.5 57s-37.333 23 -64 23c-23.333 0 -43 -5.16699 -59 -15.5
s-29.333 -23.833 -40 -40.5s-19 -35.834 -25 -57.501s-10.333 -43.667 -13 -66s-4.5 -44.166 -5.5 -65.499s-1.5 -40.333 -1.5 -57h258c4 28 6 55.333 6 82zM586 1329c-4.66699 -29.333 -13.167 -57.668 -25.5 -85.001s-28.333 -51.5 -48 -72.5s-42.5 -38 -68.5 -51
s-54.667 -19.5 -86 -19.5s-60.333 5.66699 -87 17s-49.834 26.833 -69.501 46.5s-35.5 42.667 -47.5 69s-19.333 54.833 -22 85.5l106 22c5.33301 -37.333 19.333 -64.666 42 -81.999s52 -26 88 -26c15.333 0 29.333 3.5 42 10.5s23.834 16.167 33.501 27.5s17.5 24 23.5 38
s10.333 28 13 42z" />
    <glyph glyph-name="Edotaccent" unicode="&#x116;" horiz-adv-x="953" 
d="M903 1038l-148 -10l-20 206l-364 -8l-4 -446h304v-144l-306 -18l-4 -446l374 14v220h148l10 -398l-814 -20l-6 184h118l-2 1054l-124 -4l10 194l818 10zM577 1592c0 -29.333 -9.66895 -54.002 -29.002 -74.002s-43.666 -30 -72.999 -30c-14 0 -27.167 2.83301 -39.5 8.5
s-23 13.334 -32 23.001s-16 20.834 -21 33.501s-7.5 25.667 -7.5 39c0 29.333 10 54 30 74s44.667 30 74 30c14.667 0 28 -2.83301 40 -8.5s22.333 -13.167 31 -22.5s15.334 -20.333 20.001 -33s7 -26 7 -40z" />
    <glyph glyph-name="edotaccent" unicode="&#x117;" horiz-adv-x="718" 
d="M667 606c0 -54.667 -1.99902 -107.996 -5.99902 -159.996l-430 -8c0 -14 0.666992 -30.833 2 -50.5s3.5 -40.334 6.5 -62.001s7.33301 -43 13 -64s13.167 -40 22.5 -57s20.833 -30.667 34.5 -41s30.167 -15.5 49.5 -15.5c20.667 0 38.5 5.5 53.5 16.5
s27.333 24.667 37 41s17.167 34.166 22.5 53.499s9 37.666 11 54.999h174c-6 -38 -16 -76.333 -30 -115s-32.667 -73.667 -56 -105s-51.666 -56.833 -84.999 -76.5s-72.333 -29.5 -117 -29.5c-46.667 0 -86.834 8.83301 -120.501 26.5s-62.167 41.167 -85.5 70.5
s-42.333 63.166 -57 101.499s-25.834 78 -33.501 119s-12.834 82.167 -15.501 123.5s-4 79.666 -4 114.999c0 32 1.83301 66.667 5.5 104s9.83398 74.333 18.501 111s20.5 72 35.5 106s33.833 63.833 56.5 89.5s49.667 46.334 81 62.001s67.666 23.5 108.999 23.5
c70.667 0 126.334 -11.167 167.001 -33.5s71.5 -53 92.5 -92s34.333 -85 40 -138s8.5 -109.833 8.5 -170.5zM493.001 664.004c0 20 -1.16797 42.667 -3.50098 68s-7.66602 49.333 -15.999 72s-20.5 41.667 -36.5 57s-37.333 23 -64 23c-23.333 0 -43 -5.16699 -59 -15.5
s-29.333 -23.833 -40 -40.5s-19 -35.834 -25 -57.501s-10.333 -43.667 -13 -66s-4.5 -44.166 -5.5 -65.499s-1.5 -40.333 -1.5 -57h258c4 28 6 55.333 6 82zM460 1199c0 -29.333 -9.66895 -54.002 -29.002 -74.002s-43.666 -30 -72.999 -30c-14 0 -27.167 2.83301 -39.5 8.5
s-23 13.334 -32 23.001s-16 20.834 -21 33.501s-7.5 25.667 -7.5 39c0 29.333 10 54 30 74s44.667 30 74 30c14.667 0 28 -2.83301 40 -8.5s22.333 -13.167 31 -22.5s15.334 -20.333 20.001 -33s7 -26 7 -40z" />
    <glyph glyph-name="Eogonek" unicode="&#x118;" horiz-adv-x="953" 
d="M903 -308c-14 -4 -28.002 -7.33496 -42.002 -10.002s-28.667 -4 -44 -4c-25.333 0 -48.666 3.83301 -69.999 11.5s-39.5 18.834 -54.5 33.501s-26.667 32.334 -35 53.001s-12.5 44 -12.5 70c0 27.333 5.33301 54.5 16 81.5s24.334 52.167 41.001 75.5l-623 -15l-6 184
h118l-2 1054l-124 -4l10 194l818 10l10 -388l-148 -10l-20 206l-364 -8l-4 -446h304v-144l-306 -18l-4 -446l374 14v220h148l10 -398l-78 -2c-14 -21.333 -26.167 -44.333 -36.5 -69s-15.5 -47.667 -15.5 -69c0 -23.333 4.83301 -40.833 14.5 -52.5s26.167 -17.5 49.5 -17.5
c18.667 0 36 4 52 12z" />
    <glyph glyph-name="eogonek" unicode="&#x119;" horiz-adv-x="718" 
d="M489 -308c-14 -4 -28.002 -7.33105 -42.002 -9.99805s-28.667 -4 -44 -4c-25.333 0 -48.666 3.83301 -69.999 11.5s-39.5 18.834 -54.5 33.501s-26.667 32.334 -35 53.001s-12.5 44 -12.5 70c0 26.667 5 53.167 15 79.5s23.333 51.166 40 74.499
c-34 10 -63.5 26 -88.5 48s-46 48 -63 78s-30.833 62.667 -41.5 98s-19 71.5 -25 108.5s-10 73.667 -12 110s-3 70.166 -3 101.499c0 32 1.83301 66.667 5.5 104s9.83398 74.333 18.501 111s20.5 72 35.5 106s33.833 63.833 56.5 89.5s49.667 46.334 81 62.001
s67.666 23.5 108.999 23.5c70.667 0 126.334 -11.167 167.001 -33.5s71.5 -53 92.5 -92s34.333 -85 40 -138s8.5 -109.833 8.5 -170.5c0 -54.667 -2 -108 -6 -160l-430 -8c0 -14 0.666992 -30.833 2 -50.5s3.5 -40.334 6.5 -62.001s7.33301 -43 13 -64s13.167 -40 22.5 -57
s20.833 -30.667 34.5 -41s30.167 -15.5 49.5 -15.5c20.667 0 38.5 5.5 53.5 16.5s27.333 24.667 37 41s17.167 34.166 22.5 53.499s9 37.666 11 54.999h174c-6 -36.667 -15.5 -73.5 -28.5 -110.5s-30.333 -70.833 -52 -101.5s-48 -56.334 -79 -77.001
s-66.833 -32.667 -107.5 -36c-11.333 -19.333 -21 -39.666 -29 -60.999s-12 -41.333 -12 -60c0 -23.333 4.83301 -40.833 14.5 -52.5s26.167 -17.5 49.5 -17.5c18.667 0 36 4 52 12zM492.998 664.002c0 20 -1.16797 42.667 -3.50098 68s-7.66602 49.333 -15.999 72
s-20.5 41.667 -36.5 57s-37.333 23 -64 23c-23.333 0 -43 -5.16699 -59 -15.5s-29.333 -23.833 -40 -40.5s-19 -35.834 -25 -57.501s-10.333 -43.667 -13 -66s-4.5 -44.166 -5.5 -65.499s-1.5 -40.333 -1.5 -57h258c4 28 6 55.333 6 82z" />
    <glyph glyph-name="Ecaron" unicode="&#x11a;" horiz-adv-x="953" 
d="M903 1038l-148 -10l-20 206l-364 -8l-4 -446h304v-144l-306 -18l-4 -446l374 14v220h148l10 -398l-814 -20l-6 184h118l-2 1054l-124 -4l10 194l818 10zM707 1734l-162 -242l-134 -10l-166 252l142 30l92 -174l88 174z" />
    <glyph glyph-name="ecaron" unicode="&#x11b;" horiz-adv-x="718" 
d="M667 606c0 -54.667 -1.99902 -107.996 -5.99902 -159.996l-430 -8c0 -14 0.666992 -30.833 2 -50.5s3.5 -40.334 6.5 -62.001s7.33301 -43 13 -64s13.167 -40 22.5 -57s20.833 -30.667 34.5 -41s30.167 -15.5 49.5 -15.5c20.667 0 38.5 5.5 53.5 16.5
s27.333 24.667 37 41s17.167 34.166 22.5 53.499s9 37.666 11 54.999h174c-6 -38 -16 -76.333 -30 -115s-32.667 -73.667 -56 -105s-51.666 -56.833 -84.999 -76.5s-72.333 -29.5 -117 -29.5c-46.667 0 -86.834 8.83301 -120.501 26.5s-62.167 41.167 -85.5 70.5
s-42.333 63.166 -57 101.499s-25.834 78 -33.501 119s-12.834 82.167 -15.501 123.5s-4 79.666 -4 114.999c0 32 1.83301 66.667 5.5 104s9.83398 74.333 18.501 111s20.5 72 35.5 106s33.833 63.833 56.5 89.5s49.667 46.334 81 62.001s67.666 23.5 108.999 23.5
c70.667 0 126.334 -11.167 167.001 -33.5s71.5 -53 92.5 -92s34.333 -85 40 -138s8.5 -109.833 8.5 -170.5zM493.001 664.004c0 20 -1.16797 42.667 -3.50098 68s-7.66602 49.333 -15.999 72s-20.5 41.667 -36.5 57s-37.333 23 -64 23c-23.333 0 -43 -5.16699 -59 -15.5
s-29.333 -23.833 -40 -40.5s-19 -35.834 -25 -57.501s-10.333 -43.667 -13 -66s-4.5 -44.166 -5.5 -65.499s-1.5 -40.333 -1.5 -57h258c4 28 6 55.333 6 82zM590 1341l-162 -242l-134 -10l-166 252l142 30l92 -174l88 174z" />
    <glyph glyph-name="Gcircumflex" unicode="&#x11c;" horiz-adv-x="1028" 
d="M960 530c0 -65.333 -9.1709 -130.168 -27.5039 -194.501s-45.833 -122.333 -82.5 -174s-82.167 -93.5 -136.5 -125.5s-117.5 -48 -189.5 -48c-57.333 0 -108.666 11.667 -153.999 35s-85.166 54.5 -119.499 93.5s-63.5 83.667 -87.5 134s-43.667 102.5 -59 156.5
s-26.5 107.833 -33.5 161.5s-10.5 102.834 -10.5 147.501c0 48.667 2.66699 100.667 8 156s14.5 110.166 27.5 164.499s30.667 106.333 53 156s50.333 93.667 84 132s73.834 68.833 120.501 91.5s101 34 163 34c32 0 60 -3.83301 84 -11.5s45.667 -18.667 65 -33
s37 -31.833 53 -52.5s32 -43.667 48 -69l2 164l176 -4l-22 -510l-158 6c-5.33301 32.667 -13.166 68.167 -23.499 106.5s-24.5 73.666 -42.5 105.999s-41.167 59.333 -69.5 81s-63.166 32.5 -104.499 32.5s-76.833 -9.16699 -106.5 -27.5s-54.667 -42.666 -75 -72.999
s-36.833 -64.666 -49.5 -102.999s-22.334 -77.666 -29.001 -117.999s-11 -79.666 -13 -117.999s-3 -72.5 -3 -102.5c0 -28.667 1.33301 -62.167 4 -100.5s7.83398 -77.833 15.501 -118.5s18.167 -80.834 31.5 -120.501s30.5 -75 51.5 -106s46.167 -56.167 75.5 -75.5
s64 -29 104 -29c32 0 60.667 6.33301 86 19s47.5 29.5 66.5 50.5s35 45.167 48 72.5s23.5 55.666 31.5 84.999s13.833 58.833 17.5 88.5s5.16699 57.167 4.5 82.5v20l-282 8v138l446 10c3.33301 -36 6.16602 -72.333 8.49902 -109s3.5 -73 3.5 -109zM744.996 1542l-142 -30
l-92 174l-88 -174l-140 30l162 242l136 10z" />
    <glyph glyph-name="gcircumflex" unicode="&#x11d;" horiz-adv-x="721" 
d="M760 1058l-156.007 -137.995c13.333 -35.333 22.333 -74.166 27 -116.499s7 -82.166 7 -119.499c0 -49.333 -5.83301 -94.833 -17.5 -136.5s-29.667 -78.334 -54 -110.001s-55.333 -57.5 -93 -77.5s-82.167 -32.667 -133.5 -38
c-5.33301 -3.33301 -11.166 -7.33301 -17.499 -12s-12.166 -9.83398 -17.499 -15.501s-9.83301 -11.834 -13.5 -18.501s-5.5 -13.334 -5.5 -20.001c0 -6 2 -13.167 6 -21.5s8.66699 -16.5 14 -24.5s10.833 -15.667 16.5 -23l13.5 -17c44.667 0 88.834 -4.33301 132.501 -13
s82.667 -23.5 117 -44.5s62 -48.833 83 -83.5s31.5 -78.334 31.5 -131.001c0 -44.667 -10.5 -85.5 -31.5 -122.5s-48.333 -69 -82 -96s-71.5 -48 -113.5 -63s-83.667 -22.5 -125 -22.5c-43.333 0 -83.5 6.5 -120.5 19.5s-69 31.667 -96 56s-48 54 -63 89
s-22.5 74.833 -22.5 119.5c0 49.333 10.167 95.5 30.5 138.5s51.5 78.167 93.5 105.5c-12 19.333 -22.667 39.666 -32 60.999s-14 43 -14 65c0 23.333 6 46 18 68s28 38.667 48 50c-22.667 16.667 -42.167 38 -58.5 64s-30 53.833 -41 83.5s-19.167 60 -24.5 91
s-8 60.167 -8 87.5c0 53.333 6 102.166 18 146.499s30.667 82.5 56 114.5s57.833 56.833 97.5 74.5s87.167 26.5 142.5 26.5c14.667 0 27.834 -0.666992 39.501 -2s22.834 -3.5 33.501 -6.5s21.334 -6.66699 32.001 -11s22.334 -9.83301 35.001 -16.5l126 160z
M471.993 696.005c0 18.667 -2.16797 39.1689 -6.50098 61.502s-11.5 43 -21.5 62s-23 34.833 -39 47.5s-35.667 19 -59 19c-27.333 0 -49 -5.5 -65 -16.5s-28.167 -25.333 -36.5 -43s-13.833 -37.5 -16.5 -59.5s-4 -43.667 -4 -65c0 -18 1.83301 -39.333 5.5 -64
s10 -48.334 19 -71.001s21.333 -41.834 37 -57.501s35.834 -23.5 60.501 -23.5c23.333 0 43 7.5 59 22.5s29 33.333 39 55s17.167 44.5 21.5 68.5s6.5 45.333 6.5 64zM539.992 -97.9932c0 23.333 -6.33398 42.999 -19.001 58.999s-28.5 29 -47.5 39s-39.667 17.167 -62 21.5
s-42.833 6.5 -61.5 6.5c-44 0 -77 -13.833 -99 -41.5s-33 -62.5 -33 -104.5c0 -21.333 5.33301 -39.333 16 -54s24 -26.5 40 -35.5s33.833 -15.667 53.5 -20s38.5 -6.5 56.5 -6.5c18.667 0 37.334 3.16699 56.001 9.5s35.5 15.5 50.5 27.5s27 26.333 36 43
s13.5 35.334 13.5 56.001zM572.991 1132.01l-142 -30l-92 174l-88 -174l-140 30l162 242l136 10z" />
    <glyph glyph-name="Gbreve" unicode="&#x11e;" horiz-adv-x="1028" 
d="M960 530c0 -65.333 -9.1709 -130.168 -27.5039 -194.501s-45.833 -122.333 -82.5 -174s-82.167 -93.5 -136.5 -125.5s-117.5 -48 -189.5 -48c-57.333 0 -108.666 11.667 -153.999 35s-85.166 54.5 -119.499 93.5s-63.5 83.667 -87.5 134s-43.667 102.5 -59 156.5
s-26.5 107.833 -33.5 161.5s-10.5 102.834 -10.5 147.501c0 48.667 2.66699 100.667 8 156s14.5 110.166 27.5 164.499s30.667 106.333 53 156s50.333 93.667 84 132s73.834 68.833 120.501 91.5s101 34 163 34c32 0 60 -3.83301 84 -11.5s45.667 -18.667 65 -33
s37 -31.833 53 -52.5s32 -43.667 48 -69l2 164l176 -4l-22 -510l-158 6c-5.33301 32.667 -13.166 68.167 -23.499 106.5s-24.5 73.666 -42.5 105.999s-41.167 59.333 -69.5 81s-63.166 32.5 -104.499 32.5s-76.833 -9.16699 -106.5 -27.5s-54.667 -42.666 -75 -72.999
s-36.833 -64.666 -49.5 -102.999s-22.334 -77.666 -29.001 -117.999s-11 -79.666 -13 -117.999s-3 -72.5 -3 -102.5c0 -28.667 1.33301 -62.167 4 -100.5s7.83398 -77.833 15.501 -118.5s18.167 -80.834 31.5 -120.501s30.5 -75 51.5 -106s46.167 -56.167 75.5 -75.5
s64 -29 104 -29c32 0 60.667 6.33301 86 19s47.5 29.5 66.5 50.5s35 45.167 48 72.5s23.5 55.666 31.5 84.999s13.833 58.833 17.5 88.5s5.16699 57.167 4.5 82.5v20l-282 8v138l446 10c3.33301 -36 6.16602 -72.333 8.49902 -109s3.5 -73 3.5 -109zM740.996 1740
c-4.66699 -29.333 -13.167 -57.668 -25.5 -85.001s-28.333 -51.5 -48 -72.5s-42.5 -38 -68.5 -51s-54.667 -19.5 -86 -19.5s-60.333 5.66699 -87 17s-49.834 26.833 -69.501 46.5s-35.5 42.667 -47.5 69s-19.333 54.833 -22 85.5l106 22
c5.33301 -37.333 19.333 -64.666 42 -81.999s52 -26 88 -26c15.333 0 29.333 3.5 42 10.5s23.834 16.167 33.501 27.5s17.5 24 23.5 38s10.333 28 13 42z" />
    <glyph glyph-name="gbreve" unicode="&#x11f;" horiz-adv-x="721" 
d="M760 1058l-156.007 -137.995c13.333 -35.333 22.333 -74.166 27 -116.499s7 -82.166 7 -119.499c0 -49.333 -5.83301 -94.833 -17.5 -136.5s-29.667 -78.334 -54 -110.001s-55.333 -57.5 -93 -77.5s-82.167 -32.667 -133.5 -38
c-5.33301 -3.33301 -11.166 -7.33301 -17.499 -12s-12.166 -9.83398 -17.499 -15.501s-9.83301 -11.834 -13.5 -18.501s-5.5 -13.334 -5.5 -20.001c0 -6 2 -13.167 6 -21.5s8.66699 -16.5 14 -24.5s10.833 -15.667 16.5 -23l13.5 -17c44.667 0 88.834 -4.33301 132.501 -13
s82.667 -23.5 117 -44.5s62 -48.833 83 -83.5s31.5 -78.334 31.5 -131.001c0 -44.667 -10.5 -85.5 -31.5 -122.5s-48.333 -69 -82 -96s-71.5 -48 -113.5 -63s-83.667 -22.5 -125 -22.5c-43.333 0 -83.5 6.5 -120.5 19.5s-69 31.667 -96 56s-48 54 -63 89
s-22.5 74.833 -22.5 119.5c0 49.333 10.167 95.5 30.5 138.5s51.5 78.167 93.5 105.5c-12 19.333 -22.667 39.666 -32 60.999s-14 43 -14 65c0 23.333 6 46 18 68s28 38.667 48 50c-22.667 16.667 -42.167 38 -58.5 64s-30 53.833 -41 83.5s-19.167 60 -24.5 91
s-8 60.167 -8 87.5c0 53.333 6 102.166 18 146.499s30.667 82.5 56 114.5s57.833 56.833 97.5 74.5s87.167 26.5 142.5 26.5c14.667 0 27.834 -0.666992 39.501 -2s22.834 -3.5 33.501 -6.5s21.334 -6.66699 32.001 -11s22.334 -9.83301 35.001 -16.5l126 160z
M471.993 696.005c0 18.667 -2.16797 39.1689 -6.50098 61.502s-11.5 43 -21.5 62s-23 34.833 -39 47.5s-35.667 19 -59 19c-27.333 0 -49 -5.5 -65 -16.5s-28.167 -25.333 -36.5 -43s-13.833 -37.5 -16.5 -59.5s-4 -43.667 -4 -65c0 -18 1.83301 -39.333 5.5 -64
s10 -48.334 19 -71.001s21.333 -41.834 37 -57.501s35.834 -23.5 60.501 -23.5c23.333 0 43 7.5 59 22.5s29 33.333 39 55s17.167 44.5 21.5 68.5s6.5 45.333 6.5 64zM539.992 -97.9932c0 23.333 -6.33398 42.999 -19.001 58.999s-28.5 29 -47.5 39s-39.667 17.167 -62 21.5
s-42.833 6.5 -61.5 6.5c-44 0 -77 -13.833 -99 -41.5s-33 -62.5 -33 -104.5c0 -21.333 5.33301 -39.333 16 -54s24 -26.5 40 -35.5s33.833 -15.667 53.5 -20s38.5 -6.5 56.5 -6.5c18.667 0 37.334 3.16699 56.001 9.5s35.5 15.5 50.5 27.5s27 26.333 36 43
s13.5 35.334 13.5 56.001zM559.991 1338.01c-4.66699 -29.333 -13.167 -57.668 -25.5 -85.001s-28.333 -51.5 -48 -72.5s-42.5 -38 -68.5 -51s-54.667 -19.5 -86 -19.5s-60.333 5.66699 -87 17s-49.834 26.833 -69.501 46.5s-35.5 42.667 -47.5 69s-19.333 54.833 -22 85.5
l106 22c5.33301 -37.333 19.333 -64.666 42 -81.999s52 -26 88 -26c15.333 0 29.333 3.5 42 10.5s23.834 16.167 33.501 27.5s17.5 24 23.5 38s10.333 28 13 42z" />
    <glyph glyph-name="Gdotaccent" unicode="&#x120;" horiz-adv-x="1028" 
d="M960 530c0 -65.333 -9.1709 -130.168 -27.5039 -194.501s-45.833 -122.333 -82.5 -174s-82.167 -93.5 -136.5 -125.5s-117.5 -48 -189.5 -48c-57.333 0 -108.666 11.667 -153.999 35s-85.166 54.5 -119.499 93.5s-63.5 83.667 -87.5 134s-43.667 102.5 -59 156.5
s-26.5 107.833 -33.5 161.5s-10.5 102.834 -10.5 147.501c0 48.667 2.66699 100.667 8 156s14.5 110.166 27.5 164.499s30.667 106.333 53 156s50.333 93.667 84 132s73.834 68.833 120.501 91.5s101 34 163 34c32 0 60 -3.83301 84 -11.5s45.667 -18.667 65 -33
s37 -31.833 53 -52.5s32 -43.667 48 -69l2 164l176 -4l-22 -510l-158 6c-5.33301 32.667 -13.166 68.167 -23.499 106.5s-24.5 73.666 -42.5 105.999s-41.167 59.333 -69.5 81s-63.166 32.5 -104.499 32.5s-76.833 -9.16699 -106.5 -27.5s-54.667 -42.666 -75 -72.999
s-36.833 -64.666 -49.5 -102.999s-22.334 -77.666 -29.001 -117.999s-11 -79.666 -13 -117.999s-3 -72.5 -3 -102.5c0 -28.667 1.33301 -62.167 4 -100.5s7.83398 -77.833 15.501 -118.5s18.167 -80.834 31.5 -120.501s30.5 -75 51.5 -106s46.167 -56.167 75.5 -75.5
s64 -29 104 -29c32 0 60.667 6.33301 86 19s47.5 29.5 66.5 50.5s35 45.167 48 72.5s23.5 55.666 31.5 84.999s13.833 58.833 17.5 88.5s5.16699 57.167 4.5 82.5v20l-282 8v138l446 10c3.33301 -36 6.16602 -72.333 8.49902 -109s3.5 -73 3.5 -109zM614.996 1622
c0 -29.333 -9.66895 -54.002 -29.002 -74.002s-43.666 -30 -72.999 -30c-14 0 -27.167 2.83301 -39.5 8.5s-23 13.334 -32 23.001s-16 20.834 -21 33.501s-7.5 25.667 -7.5 39c0 29.333 10 54 30 74s44.667 30 74 30c14.667 0 28 -2.83301 40 -8.5s22.333 -13.167 31 -22.5
s15.334 -20.333 20.001 -33s7 -26 7 -40z" />
    <glyph glyph-name="gdotaccent" unicode="&#x121;" horiz-adv-x="721" 
d="M760 1058l-156.007 -137.995c13.333 -35.333 22.333 -74.166 27 -116.499s7 -82.166 7 -119.499c0 -49.333 -5.83301 -94.833 -17.5 -136.5s-29.667 -78.334 -54 -110.001s-55.333 -57.5 -93 -77.5s-82.167 -32.667 -133.5 -38
c-5.33301 -3.33301 -11.166 -7.33301 -17.499 -12s-12.166 -9.83398 -17.499 -15.501s-9.83301 -11.834 -13.5 -18.501s-5.5 -13.334 -5.5 -20.001c0 -6 2 -13.167 6 -21.5s8.66699 -16.5 14 -24.5s10.833 -15.667 16.5 -23l13.5 -17c44.667 0 88.834 -4.33301 132.501 -13
s82.667 -23.5 117 -44.5s62 -48.833 83 -83.5s31.5 -78.334 31.5 -131.001c0 -44.667 -10.5 -85.5 -31.5 -122.5s-48.333 -69 -82 -96s-71.5 -48 -113.5 -63s-83.667 -22.5 -125 -22.5c-43.333 0 -83.5 6.5 -120.5 19.5s-69 31.667 -96 56s-48 54 -63 89
s-22.5 74.833 -22.5 119.5c0 49.333 10.167 95.5 30.5 138.5s51.5 78.167 93.5 105.5c-12 19.333 -22.667 39.666 -32 60.999s-14 43 -14 65c0 23.333 6 46 18 68s28 38.667 48 50c-22.667 16.667 -42.167 38 -58.5 64s-30 53.833 -41 83.5s-19.167 60 -24.5 91
s-8 60.167 -8 87.5c0 53.333 6 102.166 18 146.499s30.667 82.5 56 114.5s57.833 56.833 97.5 74.5s87.167 26.5 142.5 26.5c14.667 0 27.834 -0.666992 39.501 -2s22.834 -3.5 33.501 -6.5s21.334 -6.66699 32.001 -11s22.334 -9.83301 35.001 -16.5l126 160z
M471.993 696.005c0 18.667 -2.16797 39.1689 -6.50098 61.502s-11.5 43 -21.5 62s-23 34.833 -39 47.5s-35.667 19 -59 19c-27.333 0 -49 -5.5 -65 -16.5s-28.167 -25.333 -36.5 -43s-13.833 -37.5 -16.5 -59.5s-4 -43.667 -4 -65c0 -18 1.83301 -39.333 5.5 -64
s10 -48.334 19 -71.001s21.333 -41.834 37 -57.501s35.834 -23.5 60.501 -23.5c23.333 0 43 7.5 59 22.5s29 33.333 39 55s17.167 44.5 21.5 68.5s6.5 45.333 6.5 64zM539.992 -97.9932c0 23.333 -6.33398 42.999 -19.001 58.999s-28.5 29 -47.5 39s-39.667 17.167 -62 21.5
s-42.833 6.5 -61.5 6.5c-44 0 -77 -13.833 -99 -41.5s-33 -62.5 -33 -104.5c0 -21.333 5.33301 -39.333 16 -54s24 -26.5 40 -35.5s33.833 -15.667 53.5 -20s38.5 -6.5 56.5 -6.5c18.667 0 37.334 3.16699 56.001 9.5s35.5 15.5 50.5 27.5s27 26.333 36 43
s13.5 35.334 13.5 56.001zM460.991 1213.01c0 -29.333 -9.66895 -54.002 -29.002 -74.002s-43.666 -30 -72.999 -30c-14 0 -27.167 2.83301 -39.5 8.5s-23 13.334 -32 23.001s-16 20.834 -21 33.501s-7.5 25.667 -7.5 39c0 29.333 10 54 30 74s44.667 30 74 30
c14.667 0 28 -2.83301 40 -8.5s22.333 -13.167 31 -22.5s15.334 -20.333 20.001 -33s7 -26 7 -40z" />
    <glyph glyph-name="Gcommaaccent" unicode="&#x122;" horiz-adv-x="1028" 
d="M960 530c0 -65.333 -9.1709 -130.168 -27.5039 -194.501s-45.833 -122.333 -82.5 -174s-82.167 -93.5 -136.5 -125.5s-117.5 -48 -189.5 -48c-57.333 0 -108.666 11.667 -153.999 35s-85.166 54.5 -119.499 93.5s-63.5 83.667 -87.5 134s-43.667 102.5 -59 156.5
s-26.5 107.833 -33.5 161.5s-10.5 102.834 -10.5 147.501c0 48.667 2.66699 100.667 8 156s14.5 110.166 27.5 164.499s30.667 106.333 53 156s50.333 93.667 84 132s73.834 68.833 120.501 91.5s101 34 163 34c32 0 60 -3.83301 84 -11.5s45.667 -18.667 65 -33
s37 -31.833 53 -52.5s32 -43.667 48 -69l2 164l176 -4l-22 -510l-158 6c-5.33301 32.667 -13.166 68.167 -23.499 106.5s-24.5 73.666 -42.5 105.999s-41.167 59.333 -69.5 81s-63.166 32.5 -104.499 32.5s-76.833 -9.16699 -106.5 -27.5s-54.667 -42.666 -75 -72.999
s-36.833 -64.666 -49.5 -102.999s-22.334 -77.666 -29.001 -117.999s-11 -79.666 -13 -117.999s-3 -72.5 -3 -102.5c0 -28.667 1.33301 -62.167 4 -100.5s7.83398 -77.833 15.501 -118.5s18.167 -80.834 31.5 -120.501s30.5 -75 51.5 -106s46.167 -56.167 75.5 -75.5
s64 -29 104 -29c32 0 60.667 6.33301 86 19s47.5 29.5 66.5 50.5s35 45.167 48 72.5s23.5 55.666 31.5 84.999s13.833 58.833 17.5 88.5s5.16699 57.167 4.5 82.5v20l-282 8v138l446 10c3.33301 -36 6.16602 -72.333 8.49902 -109s3.5 -73 3.5 -109zM611.996 -163.002
c0 -40 -9.33008 -76.668 -27.9971 -110.001s-45 -60.666 -79 -81.999l-42 34c3.33301 3.33301 7 7.33301 11 12l12 14.5c4 5 7.5 10.167 10.5 15.5s4.83301 10.333 5.5 15c-26.667 2.66699 -48.834 13.5 -66.501 32.5s-26.5 41.833 -26.5 68.5c0 14 2.66699 27.167 8 39.5
s12.5 23.333 21.5 33s19.667 17.167 32 22.5s25.5 8 39.5 8s27.167 -2.66699 39.5 -8s23.166 -12.833 32.499 -22.5s16.666 -20.667 21.999 -33s8 -25.5 8 -39.5z" />
    </font>
</defs>
</svg>
